<svg width="525" height="525" viewBox="0 0 525 525" fill="none" xmlns="http://www.w3.org/2000/svg">
<rect width="525" height="525" fill="#270065"></rect>
<path d="M354.162 274.348L376.506 316.682L424.278 323.498L389.22 354.397L398.218 400.14L354.162 374.41L310.105 400.14L319.103 354.397L284.045 323.498L333.127 316.682L354.162 274.348Z" fill="#F1F1F1"></path>
<path d="M218.298 264.848H147.611V283.849H218.298V264.848Z" fill="#F1F1F1"></path>
<path d="M260.102 218.102H147.611V240.904H260.102V218.102Z" fill="#F1F1F1"></path>
<path d="M260.102 171.359H147.611V194.162H260.102V171.359Z" fill="#F1F1F1"></path>
<path d="M262.573 377.179H123.968V147.574H401.178V262.377H424.279V147.574C424.279 141.485 421.853 135.644 417.51 131.338C413.19 127.033 407.299 124.613 401.178 124.613H123.968C117.842 124.613 111.965 127.033 107.633 131.338C103.302 135.644 100.867 141.485 100.867 147.574V377.179C100.867 383.264 103.302 389.119 107.633 393.413C111.965 397.729 117.842 400.14 123.968 400.14H262.573V377.179Z" fill="#F1F1F1"></path>
</svg>