<svg width="525" height="525" viewBox="0 0 525 525" fill="none" xmlns="http://www.w3.org/2000/svg">
<rect width="525" height="525" fill="#270065"></rect>
<path d="M321.801 360.175C332.705 360.175 341.544 351.335 341.544 340.431C341.544 329.527 332.705 320.688 321.801 320.688C310.896 320.688 302.057 329.527 302.057 340.431C302.057 351.335 310.896 360.175 321.801 360.175Z" fill="#F1F1F1"></path>
<path d="M398.572 336.398C392.472 320.86 381.947 307.453 368.299 297.841C354.653 288.227 338.486 282.829 321.802 282.316C305.117 282.829 288.949 288.227 275.303 297.841C261.657 307.453 251.131 320.86 245.03 336.398L242.828 341.546L245.03 346.695C251.131 362.233 261.657 375.639 275.303 385.252C288.949 394.866 305.117 400.263 321.802 400.776C338.486 400.263 354.653 394.866 368.299 385.252C381.947 375.639 392.472 362.233 398.572 346.695L400.774 341.546L398.572 336.398ZM321.802 381.033C313.992 381.033 306.357 378.716 299.863 374.378C293.37 370.039 288.309 363.872 285.32 356.657C282.332 349.442 281.55 341.502 283.073 333.843C284.597 326.183 288.357 319.147 293.88 313.625C299.403 308.103 306.438 304.342 314.098 302.819C321.757 301.294 329.697 302.076 336.913 305.065C344.127 308.054 350.294 313.115 354.634 319.608C358.973 326.102 361.288 333.737 361.288 341.546C361.277 352.016 357.113 362.052 349.71 369.455C342.307 376.858 332.27 381.022 321.802 381.033Z" fill="#F1F1F1"></path>
<path d="M351.416 203.34H144.111C138.876 203.335 133.857 201.253 130.156 197.551C126.455 193.85 124.373 188.832 124.367 183.597V144.11C124.373 138.876 126.455 133.857 130.156 130.156C133.857 126.455 138.876 124.373 144.111 124.367H351.416C356.65 124.373 361.669 126.455 365.37 130.156C369.072 133.857 371.154 138.876 371.159 144.11V183.597C371.154 188.832 369.072 193.85 365.37 197.551C361.669 201.253 356.65 203.335 351.416 203.34ZM144.111 144.11V183.597H351.416V144.11H144.111Z" fill="#F1F1F1"></path>
<path d="M223.084 381.031H144.111V341.544H223.084V321.801H144.111C138.876 321.807 133.858 323.889 130.157 327.59C126.455 331.292 124.373 336.31 124.367 341.544V381.031C124.373 386.266 126.455 391.284 130.157 394.985C133.858 398.686 138.876 400.768 144.111 400.774H223.084V381.031Z" fill="#F1F1F1"></path>
<path d="M381.031 223.086H173.726C168.491 223.092 163.473 225.174 159.772 228.875C156.071 232.577 153.989 237.595 153.982 242.829V282.317C153.989 287.551 156.071 292.57 159.772 296.27C163.473 299.971 168.491 302.053 173.726 302.06H223.085V282.317H173.726V242.829H381.031L381.038 262.573H400.774V242.829C400.769 237.595 398.687 232.577 394.984 228.875C391.284 225.174 386.265 223.092 381.031 223.086Z" fill="#F1F1F1"></path>
</svg>