<svg width="524" height="525" viewBox="0 0 524 525" fill="none" xmlns="http://www.w3.org/2000/svg">
<rect width="524" height="525" fill="#270065"></rect>
<path d="M373 348.81H151V369H373V348.81Z" fill="#F1F1F1"></path>
<path d="M282.286 298.333V247.857H292.429C303.185 247.845 313.497 243.586 321.103 236.016C328.709 228.446 332.988 218.182 333 207.476V177.19H302.571C292.186 177.207 282.207 181.208 274.711 188.362C269.458 178.871 261.744 170.955 252.373 165.439C243.001 159.923 232.316 157.009 221.429 157H191V187.286C191.018 203.345 197.435 218.741 208.844 230.097C220.253 241.452 235.722 247.84 251.857 247.857H262V298.333H191V318.524H333V298.333H282.286ZM302.571 197.381H312.714V207.476C312.709 212.829 310.57 217.962 306.767 221.747C302.964 225.532 297.807 227.661 292.429 227.667H282.286V217.571C282.291 212.218 284.43 207.086 288.233 203.3C292.036 199.515 297.193 197.386 302.571 197.381ZM251.857 227.667C241.101 227.654 230.788 223.396 223.182 215.826C215.577 208.256 211.298 197.992 211.286 187.286V177.19H221.429C232.185 177.203 242.498 181.461 250.104 189.031C257.71 196.601 261.988 206.865 262 217.571V227.667H251.857Z" fill="#F1F1F1"></path>
</svg>