<svg width="525" height="524" viewBox="0 0 525 524" fill="none" xmlns="http://www.w3.org/2000/svg">
<rect width="525" height="524" fill="#270065"></rect>
<path d="M315.706 346.151C308.914 346.151 302.275 344.138 296.628 340.366C290.981 336.594 286.58 331.233 283.981 324.96C281.382 318.688 280.702 311.785 282.027 305.127C283.352 298.468 286.622 292.351 291.425 287.55C296.227 282.75 302.346 279.48 309.007 278.156C315.668 276.831 322.572 277.511 328.846 280.109C335.121 282.707 340.484 287.107 344.257 292.752C348.03 298.397 350.044 305.034 350.044 311.824C350.033 320.924 346.412 329.65 339.975 336.085C333.537 342.52 324.809 346.14 315.706 346.151ZM315.706 297.112C312.795 297.112 309.95 297.975 307.53 299.591C305.109 301.208 303.223 303.505 302.109 306.194C300.996 308.882 300.704 311.84 301.272 314.694C301.84 317.547 303.241 320.169 305.3 322.226C307.358 324.284 309.98 325.685 312.835 326.253C315.689 326.82 318.648 326.529 321.337 325.415C324.026 324.302 326.325 322.416 327.942 319.997C329.559 317.578 330.422 314.733 330.422 311.824C330.418 307.923 328.866 304.184 326.107 301.426C323.348 298.668 319.607 297.116 315.706 297.112Z" fill="#F1F1F1"></path>
<path d="M210.241 346.151C203.449 346.151 196.81 344.138 191.163 340.366C185.516 336.594 181.115 331.233 178.516 324.96C175.917 318.688 175.237 311.785 176.562 305.127C177.887 298.468 181.158 292.351 185.96 287.55C190.762 282.75 196.881 279.48 203.542 278.156C210.203 276.831 217.107 277.511 223.382 280.109C229.656 282.707 235.019 287.107 238.792 292.752C242.565 298.397 244.579 305.034 244.579 311.824C244.569 320.924 240.947 329.65 234.51 336.085C228.073 342.52 219.345 346.14 210.241 346.151ZM210.241 297.112C207.33 297.112 204.485 297.975 202.065 299.591C199.645 301.208 197.758 303.505 196.645 306.194C195.531 308.882 195.239 311.84 195.807 314.694C196.375 317.547 197.777 320.169 199.835 322.226C201.893 324.284 204.515 325.685 207.37 326.253C210.224 326.82 213.183 326.529 215.873 325.415C218.562 324.302 220.86 322.416 222.477 319.997C224.094 317.578 224.957 314.733 224.957 311.824C224.953 307.923 223.401 304.184 220.642 301.426C217.883 298.668 214.142 297.116 210.241 297.112Z" fill="#F1F1F1"></path>
<path d="M148.317 401.303C141.525 401.303 134.886 399.29 129.24 395.518C123.593 391.746 119.191 386.385 116.592 380.112C113.993 373.84 113.313 366.938 114.638 360.279C115.963 353.62 119.234 347.503 124.036 342.703C128.838 337.902 134.957 334.633 141.618 333.308C148.279 331.984 155.183 332.663 161.458 335.261C167.732 337.86 173.095 342.259 176.868 347.905C180.641 353.55 182.655 360.187 182.655 366.976C182.645 376.077 179.024 384.802 172.586 391.237C166.149 397.673 157.421 401.293 148.317 401.303ZM148.317 352.264C145.406 352.264 142.561 353.127 140.141 354.743C137.721 356.36 135.835 358.658 134.721 361.346C133.607 364.034 133.315 366.992 133.883 369.846C134.451 372.7 135.853 375.321 137.911 377.379C139.969 379.436 142.591 380.837 145.446 381.405C148.301 381.973 151.26 381.681 153.949 380.568C156.638 379.454 158.936 377.569 160.553 375.149C162.17 372.73 163.033 369.886 163.033 366.976C163.029 363.075 161.477 359.336 158.718 356.578C155.959 353.82 152.219 352.269 148.317 352.264Z" fill="#F1F1F1"></path>
<path d="M267.327 401.303C260.535 401.303 253.896 399.29 248.249 395.518C242.602 391.746 238.201 386.385 235.602 380.112C233.003 373.84 232.323 366.938 233.648 360.279C234.973 353.62 238.243 347.503 243.046 342.703C247.848 337.902 253.967 334.633 260.628 333.308C267.289 331.984 274.193 332.663 280.467 335.261C286.742 337.86 292.105 342.259 295.878 347.905C299.651 353.55 301.665 360.187 301.665 366.976C301.654 376.077 298.033 384.802 291.596 391.237C285.158 397.673 276.431 401.293 267.327 401.303ZM267.327 352.264C264.416 352.264 261.571 353.127 259.151 354.743C256.731 356.36 254.844 358.658 253.73 361.346C252.617 364.034 252.325 366.992 252.893 369.846C253.461 372.7 254.862 375.321 256.921 377.379C258.979 379.436 261.601 380.837 264.456 381.405C267.31 381.973 270.269 381.681 272.958 380.568C275.648 379.454 277.946 377.569 279.563 375.149C281.18 372.73 282.043 369.886 282.043 366.976C282.039 363.075 280.487 359.336 277.728 356.578C274.969 353.82 271.228 352.269 267.327 352.264Z" fill="#F1F1F1"></path>
<path d="M376.661 401.303C369.869 401.303 363.23 399.29 357.583 395.518C351.936 391.746 347.535 386.385 344.936 380.112C342.337 373.84 341.657 366.938 342.982 360.279C344.307 353.62 347.577 347.503 352.38 342.703C357.182 337.902 363.301 334.633 369.962 333.308C376.623 331.984 383.527 332.663 389.801 335.261C396.076 337.86 401.439 342.259 405.212 347.905C408.985 353.55 410.999 360.187 410.999 366.976C410.988 376.077 407.367 384.802 400.93 391.237C394.492 397.673 385.765 401.293 376.661 401.303ZM376.661 352.264C373.75 352.264 370.905 353.127 368.485 354.743C366.065 356.36 364.178 358.658 363.064 361.346C361.951 364.034 361.659 366.992 362.227 369.846C362.795 372.7 364.196 375.321 366.255 377.379C368.313 379.436 370.935 380.837 373.79 381.405C376.644 381.973 379.603 381.681 382.292 380.568C384.982 379.454 387.28 377.569 388.897 375.149C390.514 372.73 391.377 369.886 391.377 366.976C391.373 363.075 389.821 359.336 387.062 356.578C384.303 353.82 380.562 352.269 376.661 352.264Z" fill="#F1F1F1"></path>
<path d="M376.067 255H157.155C151.351 254.993 145.787 252.685 141.683 248.581C137.579 244.477 135.27 238.912 135.264 233.109V145.544C135.27 139.74 137.579 134.175 141.683 130.071C145.787 125.968 151.351 123.659 157.155 123.652H376.067C381.871 123.659 387.435 125.968 391.539 130.071C395.643 134.175 397.952 139.74 397.959 145.544V233.109C397.952 238.912 395.643 244.477 391.539 248.581C387.435 252.685 381.871 254.993 376.067 255ZM157.155 145.544V233.109H376.067V145.544H157.155Z" fill="#F1F1F1"></path>
</svg>