<svg width="525" height="524" viewBox="0 0 525 524" fill="none" xmlns="http://www.w3.org/2000/svg">
<rect width="525" height="524" fill="#270065"></rect>
<path d="M262.5 105L105 228.75L172.5 420H352.5L420 228.75L262.5 105ZM291.545 321.732L224.202 336.702L208.197 248.668L263.435 201.317L324.653 247.235L291.545 321.732ZM293.769 344.293L322.422 397.5H202.578L222.729 360.075L293.769 344.293ZM190.388 234.304L147.075 224.306L251.25 142.452V182.14L190.388 234.304ZM273.75 180.938V142.452L377.925 224.306L342.488 232.485L273.75 180.938ZM134.411 244.476L186.763 256.557L203.462 348.402L183.91 384.718L134.411 244.476ZM341.09 384.718L312.104 330.884L345.924 254.783L390.587 244.476L341.09 384.718Z" fill="#F1F1F1"></path>
</svg>