<svg width="525" height="524" viewBox="0 0 525 524" fill="none" xmlns="http://www.w3.org/2000/svg">
<rect width="525" height="524" fill="#270065"></rect>
<g clip-path="url(#clip0_196_2828)">
<path d="M262.201 212.28C281.332 212.28 296.841 196.771 296.841 177.64C296.841 158.509 281.332 143 262.201 143C243.069 143 227.561 158.509 227.561 177.64C227.561 196.771 243.069 212.28 262.201 212.28Z" stroke="#F1F1F1" stroke-width="20" stroke-miterlimit="10"></path>
<path d="M262.201 212.281V269.621" stroke="#F1F1F1" stroke-width="20" stroke-miterlimit="10"></path>
<path d="M349.39 274.96C368.521 274.96 384.03 259.451 384.03 240.32C384.03 221.189 368.521 205.68 349.39 205.68C330.259 205.68 314.75 221.189 314.75 240.32C314.75 259.451 330.259 274.96 349.39 274.96Z" stroke="#F1F1F1" stroke-width="20" stroke-miterlimit="10"></path>
<path d="M316.549 251.359L262.199 269.619" stroke="#F1F1F1" stroke-width="20" stroke-miterlimit="10"></path>
<path d="M317.74 377.581C336.871 377.581 352.38 362.072 352.38 342.941C352.38 323.81 336.871 308.301 317.74 308.301C298.608 308.301 283.1 323.81 283.1 342.941C283.1 362.072 298.608 377.581 317.74 377.581Z" stroke="#F1F1F1" stroke-width="20" stroke-miterlimit="10"></path>
<path d="M296.819 315.331L262.199 269.621" stroke="#F1F1F1" stroke-width="20" stroke-miterlimit="10"></path>
<path d="M210.39 380.272C229.521 380.272 245.03 364.763 245.03 345.632C245.03 326.501 229.521 310.992 210.39 310.992C191.259 310.992 175.75 326.501 175.75 345.632C175.75 364.763 191.259 380.272 210.39 380.272Z" stroke="#F1F1F1" stroke-width="20" stroke-miterlimit="10"></path>
<path d="M229.9 317.001L262.2 269.621" stroke="#F1F1F1" stroke-width="20" stroke-miterlimit="10"></path>
<path d="M173.65 279.37C192.781 279.37 208.29 263.861 208.29 244.73C208.29 225.599 192.781 210.09 173.65 210.09C154.519 210.09 139.01 225.599 139.01 244.73C139.01 263.861 154.519 279.37 173.65 279.37Z" stroke="#F1F1F1" stroke-width="20" stroke-miterlimit="10"></path>
<path d="M206.99 254.102L262.2 269.622" stroke="#F1F1F1" stroke-width="20" stroke-miterlimit="10"></path>
</g>
<defs>
<clipPath id="clip0_196_2828">
<rect width="265.04" height="257.27" fill="white" transform="translate(129 133)"></rect>
</clipPath>
</defs>
</svg>