<svg width="525" height="524" viewBox="0 0 525 524" fill="none" xmlns="http://www.w3.org/2000/svg">
<rect width="525" height="524" fill="#270065"></rect>
<path d="M241.728 238.22H269.31V255.97H236.73V267.752H269.349V285.688H241.209C245.585 293.768 251.888 298.541 260.466 300.198C269.036 301.851 276.699 298.87 284.452 295.084C287.176 300.436 289.907 305.8 292.61 311.12C292.515 311.319 292.487 311.489 292.396 311.541C275.438 321.254 255.903 322.023 239.366 310.534C231.176 304.841 226.035 296.789 222.637 287.555C222.118 286.144 221.476 285.648 219.97 285.688C215.823 285.799 211.673 285.728 207.372 285.728V267.824H218.206V256.045H207.174V238.22C210.02 238.22 212.83 238.228 215.641 238.22C217.552 238.213 219.875 238.843 221.258 237.983C222.59 237.15 222.951 234.763 223.747 233.063C230.482 218.624 241.28 209.152 257.184 206.258C269.405 204.038 280.889 206.56 291.691 212.51C291.857 212.602 291.976 212.776 292.202 212.99C289.479 218.429 286.747 223.885 284 229.372C275.438 224.444 266.717 221.704 257.061 225.118C250.465 227.453 245.446 231.671 241.72 238.22H241.728Z" fill="#F1F1F1"></path>
<path d="M262.211 160.889C282.249 160.889 301.839 166.832 318.504 177.968C335.165 189.105 348.155 204.931 355.821 223.445C363.492 241.964 365.498 262.338 361.585 281.994C357.677 301.65 348.028 319.708 333.857 333.878C319.685 348.051 301.633 357.701 281.98 361.61C262.326 365.519 241.951 363.513 223.439 355.845C204.923 348.178 189.099 335.186 177.968 318.523C166.833 301.86 160.891 282.267 160.891 262.223C160.97 235.371 171.669 209.641 190.653 190.655C209.637 171.669 235.363 160.964 262.211 160.889ZM262.211 144C238.832 144 215.979 150.934 196.539 163.926C177.1 176.918 161.949 195.38 153.003 216.983C144.052 238.586 141.709 262.357 146.272 285.292C150.834 308.227 162.092 329.291 178.622 345.823C195.152 362.359 216.217 373.618 239.149 378.178C262.08 382.741 285.849 380.398 307.449 371.45C329.048 362.502 347.509 347.345 360.499 327.907C373.489 308.465 380.422 285.609 380.422 262.227C380.331 230.899 367.848 200.883 345.697 178.729C323.55 156.579 293.535 144.091 262.211 144Z" fill="#F1F1F1"></path>
</svg>