<svg width="525" height="525" viewBox="0 0 525 525" fill="none" xmlns="http://www.w3.org/2000/svg">
<g clip-path="url(#clip0_197_2884)">
<path d="M525 0H0V525H525V0Z" fill="#270065"></path>
<path d="M440.323 84.6758H84.6777V440.321H440.323V84.6758Z" fill="white" fill-opacity="0.01"></path>
<path d="M418.094 373.641H106.904V395.868H418.094V373.641Z" fill="#F1F1F1"></path>
<path d="M366.971 184.704C375.862 175.813 375.862 162.476 366.971 153.585L326.96 113.575C318.069 104.683 304.733 104.683 295.841 113.575L129.133 280.283V351.412H200.262L366.971 184.704ZM311.401 129.134L351.411 169.144L318.069 202.486L278.059 162.476L311.401 129.134ZM151.361 329.184V289.174L262.5 178.035L302.51 218.045L191.371 329.184H151.361Z" fill="#F1F1F1"></path>
</g>
<defs>
<clipPath id="clip0_197_2884">
<rect width="525" height="525" fill="white"></rect>
</clipPath>
</defs>
</svg>