<svg width="525" height="525" viewBox="0 0 525 525" fill="none" xmlns="http://www.w3.org/2000/svg">
<rect width="525" height="525" fill="#270065"></rect>
<path d="M176.291 132.907V176.043H133.156V132.907H176.291ZM111.588 111.34V197.611H197.859V111.34H111.588Z" fill="#F1F1F1"></path>
<path d="M284.192 165.353V208.488H241.056V165.353H284.192ZM219.488 143.785V230.056H305.759V143.785H219.488Z" fill="#F1F1F1"></path>
<path d="M176.291 262.255V305.513H133.156V262.255H176.291ZM111.588 240.625V327.142H197.859V240.625H111.588Z" fill="#F1F1F1"></path>
<path d="M327.339 197.613V262.354H262.598V327.093H197.857V413.414H413.658V197.613H327.339ZM284.178 283.934H327.339V327.093H284.178V283.934ZM262.598 391.834H219.439V348.673H262.598V391.834ZM327.339 391.834H284.178V348.673H327.339V391.834ZM392.078 391.834H348.919V348.673H392.078V391.834ZM392.078 327.093H348.919V283.934H392.078V327.093ZM348.919 262.354V219.193H392.078V262.354H348.919Z" fill="#F1F1F1"></path>
</svg>