<svg width="62" height="62" viewBox="0 0 62 62" fill="none" xmlns="http://www.w3.org/2000/svg">
<rect width="62" height="62" fill="#270065"></rect>
<rect width="42" height="42" transform="translate(10 9.59375)" fill="white" fill-opacity="0.01"></rect>
<path d="M25.75 47.6563C25.4909 47.655 25.2379 47.577 25.0231 47.4322C24.8082 47.2874 24.641 47.0822 24.5425 46.8425L18.3081 31.9063H12.625V29.2813H19.1875C19.4466 29.2826 19.6996 29.3605 19.9144 29.5053C20.1293 29.6501 20.2965 29.8553 20.395 30.095L25.75 42.7738L36.3287 14.3844C36.4226 14.1332 36.5912 13.9167 36.8117 13.7642C37.0323 13.6117 37.2943 13.5304 37.5625 13.5313C37.8332 13.536 38.0957 13.6243 38.3143 13.7841C38.5328 13.9438 38.6965 14.1673 38.7831 14.4238L43.7575 29.2813H49.375V31.9063H42.8125C42.5373 31.907 42.2689 31.8212 42.0452 31.661C41.8214 31.5009 41.6537 31.2744 41.5656 31.0138L37.5625 18.7813L26.9837 46.8031C26.8899 47.0543 26.7213 47.2708 26.5008 47.4233C26.2802 47.5758 26.0182 47.6571 25.75 47.6563Z" fill="#F1F1F1"></path>
</svg>