<svg width="1451" height="1451" viewBox="0 0 1451 1451" fill="none" xmlns="http://www.w3.org/2000/svg">
<g clip-path="url(#clip0_57_119)">
<path d="M1451 0H0V1451H1451V0Z" fill="#270065"></path>
<path d="M297.625 978.284C297.639 881.596 376.026 803.217 472.715 803.217H774.192V850.024H472.715C401.876 850.024 344.445 907.446 344.432 978.284L344.409 1153.4H297.603L297.625 978.284ZM1005.46 810.142L928.895 892.214L894.659 860.263L1011.77 734.813L1013.5 733.122C1017.74 729.434 1023.19 727.388 1028.86 727.385C1035.35 727.385 1041.55 730.071 1045.98 734.813L1163.06 860.263L1128.85 892.214L1052.27 810.119V1052.27H1005.46V810.142ZM1030.76 472.692C1030.76 421.322 997.822 372.94 941.58 341.415L921.171 329.988L944.048 289.146L964.48 300.596C1030.95 337.858 1077.57 399.758 1077.57 472.692C1077.56 545.627 1030.95 607.527 964.48 644.788L944.048 656.239L921.171 615.397L941.58 603.97C997.821 572.445 1030.76 524.063 1030.76 472.692ZM803.217 472.692C803.217 401.843 745.783 344.409 674.934 344.409C604.089 344.411 546.65 401.844 546.65 472.692C546.651 543.54 604.089 600.974 674.934 600.976C745.782 600.976 803.217 543.541 803.217 472.692ZM850.024 472.692C850.023 569.391 771.633 647.782 674.934 647.782C578.239 647.78 499.844 569.39 499.844 472.692C499.844 375.994 578.238 297.604 674.934 297.602C771.633 297.602 850.024 375.993 850.024 472.692Z" fill="#F1F1F1"></path>
</g>
<defs>
<clipPath id="clip0_57_119">
<rect width="1451" height="1451" fill="white"></rect>
</clipPath>
</defs>
</svg>