<svg width="1451" height="1451" viewBox="0 0 1451 1451" fill="none" xmlns="http://www.w3.org/2000/svg">
<g clip-path="url(#clip0_185_71)">
<path d="M1451 0H0V1451H1451V0Z" fill="#270065"></path>
<path d="M1059.36 878.552V795.069C1059.36 733.848 1009.28 683.759 948.071 683.759C886.864 683.759 836.786 733.848 836.786 795.069V878.552C806.182 878.552 781.143 903.597 781.143 934.207V1073.34C781.143 1103.96 806.182 1129 836.786 1129H1059.36C1089.96 1129 1115 1103.96 1115 1073.34V934.207C1115 903.597 1089.96 878.552 1059.36 878.552ZM892.429 795.069C892.429 764.459 917.468 739.414 948.071 739.414C978.675 739.414 1003.71 764.459 1003.71 795.069V878.552H892.429V795.069ZM836.786 1073.34V934.207H1059.36V1073.34H836.786Z" fill="#F1F1F1"></path>
<path d="M669.857 711.586H502.929V767.241H669.857V711.586Z" fill="#F1F1F1"></path>
<path d="M836.786 544.621H502.929V600.276H836.786V544.621Z" fill="#F1F1F1"></path>
<path d="M1003.71 377.655C1003.71 347.045 978.675 322 948.071 322H391.643C361.039 322 336 347.045 336 377.655V739.414C336 853.507 397.207 956.469 497.364 1009.34L642.036 1087.26V1023.26L525.186 959.252C441.721 917.51 391.643 831.245 391.643 739.414V377.655H948.071V600.276H1003.71V377.655Z" fill="#F1F1F1"></path>
</g>
<defs>
<clipPath id="clip0_185_71">
<rect width="1451" height="1451" fill="white"></rect>
</clipPath>
</defs>
</svg>