<svg width="1455" height="1456" viewBox="0 0 1455 1456" fill="none" xmlns="http://www.w3.org/2000/svg">
<g clip-path="url(#clip0_206_70)">
<path d="M1455 0H0V1456H1455V0Z" fill="#270065"></path>
<path d="M1058.75 342.125H728C713.384 342.14 699.372 347.952 689.037 358.287C678.702 368.622 672.89 382.634 672.875 397.25V672.875H397.25C382.634 672.89 368.622 678.702 358.287 689.037C347.952 699.372 342.14 713.384 342.125 728V1113.88H1113.88V397.25C1113.86 382.635 1108.05 368.624 1097.71 358.289C1087.38 347.955 1073.36 342.142 1058.75 342.125ZM535.062 1058.75V865.812H645.312V1058.75H535.062ZM1058.75 1058.75H700.438V838.25C700.438 830.94 697.534 823.929 692.365 818.76C687.196 813.591 680.185 810.688 672.875 810.688H507.5C500.19 810.688 493.179 813.591 488.01 818.76C482.841 823.929 479.938 830.94 479.938 838.25V1058.75H397.25V728H728V397.25H1058.75V1058.75Z" fill="#F1F1F1"></path>
<path d="M838.25 507.5H783.125V562.625H838.25V507.5Z" fill="#F1F1F1"></path>
<path d="M1003.62 507.5H948.5V562.625H1003.62V507.5Z" fill="#F1F1F1"></path>
<path d="M838.25 672.875H783.125V728H838.25V672.875Z" fill="#F1F1F1"></path>
<path d="M1003.62 672.875H948.5V728H1003.62V672.875Z" fill="#F1F1F1"></path>
<path d="M838.25 838.239H783.125V893.364H838.25V838.239Z" fill="#F1F1F1"></path>
<path d="M1003.62 838.239H948.5V893.364H1003.62V838.239Z" fill="#F1F1F1"></path>
<path d="M438.594 617.75C413.009 617.75 388.471 607.586 370.38 589.495C352.289 571.404 342.125 546.866 342.125 521.281C342.125 495.696 352.289 471.159 370.38 453.068C388.471 434.976 413.009 424.812 438.594 424.812H455.875C462.012 401.161 475.821 380.213 495.138 365.25C514.456 350.287 538.19 342.154 562.625 342.125H617.75V397.25H562.625C548.01 397.267 533.999 403.08 523.664 413.414C513.33 423.749 507.517 437.76 507.5 452.375V479.938H438.594C427.629 479.938 417.113 484.293 409.359 492.047C401.606 499.8 397.25 510.316 397.25 521.281C397.25 532.246 401.606 542.762 409.359 550.516C417.113 558.269 427.629 562.625 438.594 562.625H617.75V617.75H438.594Z" fill="#F1F1F1"></path>
</g>
<defs>
<clipPath id="clip0_206_70">
<rect width="1455" height="1456" fill="white"></rect>
</clipPath>
</defs>
</svg>