<svg width="2136" height="2132" viewBox="0 0 2136 2132" fill="none" xmlns="http://www.w3.org/2000/svg">
<g clip-path="url(#clip0_214_589)">
<path d="M2136 0H0V2132H2136V0Z" fill="#270065"></path>
<path d="M1244.08 934.068C1244.08 992.161 1267.16 1047.88 1308.33 1088.98C1349.5 1130.08 1405.34 1153.12 1463.54 1153.12C1521.74 1153.12 1577.57 1130.08 1618.74 1088.98C1659.92 1047.88 1683.01 992.161 1683.01 934.068C1683.01 927.27 1681.42 920.556 1678.35 914.473L1502.78 563.991C1498.04 554.552 1490.14 547.131 1480.31 543.103C1470.56 539.062 1459.68 538.684 1449.67 542.024L1171.74 634.465C1156.38 614.923 1135.84 600.089 1112.4 591.654V452.151H1024.61V591.654C999.433 600.536 977.564 616.868 961.912 638.469C946.269 660.066 937.59 685.914 937.017 712.56L659.581 804.871C648.535 808.549 639.417 816.454 634.209 826.838L458.638 1177.3C455.583 1183.44 454.004 1190.1 454.004 1196.93C454.004 1255.02 477.126 1310.75 518.279 1351.85C559.441 1392.94 615.266 1415.99 673.467 1415.99C731.668 1415.99 787.493 1392.94 828.654 1351.85C869.808 1310.75 892.934 1255.02 892.934 1196.93C892.934 1190.1 891.351 1183.44 888.295 1177.3L735.358 872.033L965.224 795.558C980.611 815.095 1001.19 829.922 1024.61 838.36V1591.23H629.575V1678.85H1507.43V1591.23H1112.4V838.376C1137.59 829.49 1159.45 813.159 1175.08 791.562C1190.7 769.961 1199.39 744.113 1200.01 717.459L1376.89 658.597L1248.73 914.486C1245.65 920.564 1244.08 927.27 1244.08 934.068ZM673.467 1328.36C646.333 1328.28 619.884 1319.78 597.763 1304.09C575.638 1288.41 558.916 1266.33 549.9 1240.74H797.017C788.001 1266.33 771.287 1288.41 749.167 1304.09C727.042 1319.78 700.604 1328.28 673.467 1328.36ZM778.029 1153.12H568.904L673.467 944.423L778.029 1153.12ZM1068.5 758.825C1059.82 758.825 1051.33 756.258 1044.12 751.441C1036.9 746.627 1031.27 739.784 1027.96 731.776C1024.63 723.777 1023.76 714.961 1025.46 706.469C1027.15 697.974 1031.33 690.166 1037.46 684.03C1043.61 677.907 1051.43 673.736 1059.94 672.044C1068.45 670.355 1077.28 671.222 1085.27 674.542C1093.35 677.854 1100.19 683.469 1105.02 690.675C1109.85 697.876 1112.4 706.347 1112.4 715.013C1112.4 726.634 1107.74 737.77 1099.49 745.98C1091.33 754.199 1080.18 758.817 1068.5 758.825ZM1463.54 1065.5C1436.41 1065.4 1409.99 1056.94 1387.87 1041.25C1365.75 1025.56 1348.98 1003.43 1339.94 977.88H1587.05C1578.1 1003.42 1561.33 1025.55 1539.21 1041.25C1517.09 1056.93 1490.66 1065.4 1463.54 1065.5ZM1463.54 681.552L1568.09 890.257H1358.98L1463.54 681.552Z" fill="#F1F1F1"></path>
</g>
<defs>
<clipPath id="clip0_214_589">
<rect width="2136" height="2132" fill="white"></rect>
</clipPath>
</defs>
</svg>