<svg width="2136" height="2140" viewBox="0 0 2136 2140" fill="none" xmlns="http://www.w3.org/2000/svg">
<g clip-path="url(#clip0_214_592)">
<path d="M2136 0H0V2140H2136V0Z" fill="#270065"></path>
<path d="M1635 559.323L1577.73 501.946L1039.36 1041.32C1031.99 1048.97 1027.91 1059.22 1028 1069.86C1028.09 1080.5 1032.35 1090.67 1039.86 1098.2C1047.37 1105.72 1057.52 1109.99 1068.14 1110.08C1078.76 1110.18 1088.99 1106.09 1096.63 1098.69L1265.92 929.119C1297.4 973.602 1313.05 1027.4 1310.36 1081.86C1307.67 1136.32 1286.79 1188.3 1251.08 1229.45C1215.36 1270.6 1166.89 1298.54 1113.43 1308.78C1059.97 1319.01 1004.62 1310.96 956.28 1285.91C907.935 1260.86 869.393 1220.26 846.839 1170.63C824.289 1121 819.034 1065.21 831.92 1012.24C844.805 959.254 875.084 912.146 917.894 878.472C960.707 844.803 1013.57 826.517 1068 826.55V745.401C994.659 745.299 923.45 770.094 865.981 815.748C808.513 861.397 768.178 925.206 751.555 996.771C734.931 1068.34 742.998 1143.43 774.439 1209.81C805.884 1276.19 858.848 1329.94 924.693 1362.3C990.542 1394.65 1065.39 1403.7 1137.03 1387.97C1208.66 1372.23 1272.87 1332.65 1319.17 1275.66C1365.47 1218.68 1391.13 1147.66 1391.98 1074.19C1392.82 1000.72 1368.79 929.127 1323.81 871.09L1439.1 755.583C1513.67 843.274 1554.43 954.811 1554 1070.01C1554 1166.31 1525.49 1260.45 1472.09 1340.52C1418.69 1420.59 1342.79 1483 1253.98 1519.85C1165.18 1556.71 1067.46 1566.35 973.185 1547.56C878.912 1528.77 792.314 1482.4 724.345 1414.3C656.376 1346.21 610.089 1259.45 591.338 1165C572.587 1070.55 582.211 972.644 618.996 883.673C655.777 794.702 718.072 718.657 797.992 665.157C877.913 611.653 971.876 583.095 1068 583.095V501.946C955.856 501.946 846.232 535.261 752.989 597.68C659.747 660.098 587.074 748.821 544.159 852.617C501.247 956.417 490.017 1070.64 511.895 1180.83C533.772 1291.02 587.776 1392.24 667.068 1471.69C746.365 1551.13 847.397 1605.23 957.381 1627.15C1067.37 1649.07 1181.38 1637.82 1284.98 1594.83C1388.58 1551.83 1477.14 1479.02 1539.44 1385.6C1601.74 1292.19 1635 1182.36 1635 1070.01C1635.45 933.305 1586.17 801.122 1496.39 698.186L1635 559.323Z" fill="#F1F1F1"></path>
</g>
<defs>
<clipPath id="clip0_214_592">
<rect width="2136" height="2140" fill="white"></rect>
</clipPath>
</defs>
</svg>