<svg width="2136" height="2140" viewBox="0 0 2136 2140" fill="none" xmlns="http://www.w3.org/2000/svg">
<g clip-path="url(#clip0_214_595)">
<path d="M2136 0H0V2140H2136V0Z" fill="#270065"></path>
<path d="M1215.6 600.125C1159.85 600.125 1112.36 622.679 1081.89 657.025C1051.42 691.371 1037.2 735.414 1037.2 778.858C1037.2 810.726 1047.74 841.603 1063.86 870.059L969.605 1002.27H851.224C844.608 974.458 834.001 947.543 814.113 925.128C783.642 890.778 736.153 868.224 680.401 868.224C624.653 868.224 577.164 890.778 546.689 925.128C516.214 959.474 502 1003.52 502 1046.96C502 1090.4 516.214 1134.44 546.689 1168.79C577.164 1203.14 624.653 1225.69 680.401 1225.69C736.153 1225.69 783.642 1203.14 814.113 1168.79C834.001 1146.38 844.608 1119.46 851.224 1091.64H969.605L1063.86 1223.86C1047.74 1252.32 1037.2 1283.19 1037.2 1315.06C1037.2 1358.5 1051.42 1402.54 1081.89 1436.89C1112.36 1471.24 1159.85 1493.79 1215.6 1493.79C1271.35 1493.79 1318.84 1471.24 1349.32 1436.89C1379.79 1402.54 1394 1358.5 1394 1315.06C1394 1271.62 1379.79 1227.57 1349.32 1193.23C1318.84 1158.88 1271.35 1136.33 1215.6 1136.33C1182.27 1136.33 1153.61 1146.15 1128.06 1159.98L1047.39 1046.96L1128.06 933.941C1153.61 947.763 1182.27 957.591 1215.6 957.591C1271.35 957.591 1318.84 935.037 1349.32 900.691C1379.79 866.341 1394 822.298 1394 778.858C1394 735.414 1379.79 691.371 1349.32 657.025C1318.84 622.679 1271.35 600.125 1215.6 600.125ZM1215.6 689.492C1249.05 689.492 1268.46 700.448 1282.59 716.37C1296.71 732.292 1304.8 755.273 1304.8 778.858C1304.8 802.439 1296.71 825.424 1282.59 841.346C1268.46 857.268 1249.05 868.224 1215.6 868.224C1182.15 868.224 1162.74 857.268 1148.61 841.346C1134.49 825.424 1126.4 802.439 1126.4 778.858C1126.4 755.273 1134.49 732.292 1148.61 716.37C1162.74 700.448 1182.15 689.492 1215.6 689.492ZM680.401 957.591C713.851 957.591 733.263 968.552 747.387 984.473C761.182 1000.02 768.707 1022.48 769.077 1045.47C769.045 1046.49 769.045 1047.51 769.077 1048.53C768.686 1071.49 761.161 1093.92 747.387 1109.45C733.263 1125.37 713.851 1136.33 680.401 1136.33C646.95 1136.33 627.539 1125.37 613.414 1109.45C599.29 1093.52 591.202 1070.54 591.202 1046.96C591.202 1023.38 599.29 1000.39 613.414 984.473C627.539 968.552 646.95 957.591 680.401 957.591ZM1215.6 1225.69C1249.05 1225.69 1268.46 1236.65 1282.59 1252.57C1296.71 1268.49 1304.8 1291.48 1304.8 1315.06C1304.8 1338.64 1296.71 1361.63 1282.59 1377.55C1268.46 1393.47 1249.05 1404.43 1215.6 1404.43C1182.15 1404.43 1162.74 1393.47 1148.61 1377.55C1134.49 1361.63 1126.4 1338.64 1126.4 1315.06C1126.4 1291.48 1134.49 1268.49 1148.61 1252.57C1162.74 1236.65 1182.15 1225.69 1215.6 1225.69Z" fill="#F1F1F1"></path>
</g>
<defs>
<clipPath id="clip0_214_595">
<rect width="2136" height="2140" fill="white"></rect>
</clipPath>
</defs>
</svg>