<svg width="2136" height="2132" viewBox="0 0 2136 2132" fill="none" xmlns="http://www.w3.org/2000/svg">
<g clip-path="url(#clip0_214_598)">
<path d="M2136 0H0V2132H2136V0Z" fill="#270065"></path>
<mask id="mask0_214_598" style="mask-type:luminance" maskUnits="userSpaceOnUse" x="532" y="577" width="1072" height="978">
<path d="M532.985 577.756H1603.02V1554.24H532.985V577.756Z" fill="white"></path>
</mask>
<g mask="url(#mask0_214_598)">
<path d="M1106.58 984.016V1324.69H1029.42V984.016C989.548 976.415 952.866 957.052 923.532 927.628C884.941 888.918 863.695 837.453 863.695 782.705C863.695 727.956 884.95 676.491 923.532 637.781C962.122 599.076 1013.43 577.756 1068 577.756C1122.57 577.756 1173.88 599.076 1212.47 637.781C1251.06 676.491 1272.31 727.956 1272.31 782.705C1272.31 837.453 1251.05 888.918 1212.47 927.628C1183.14 957.052 1146.45 976.415 1106.58 984.016ZM1068 655.147C997.889 655.147 940.844 712.369 940.844 782.705C940.844 853.036 997.889 910.262 1068 910.262C1138.11 910.262 1195.16 853.036 1195.16 782.705C1195.16 712.369 1138.11 655.147 1068 655.147Z" fill="#F1F1F1"></path>
<path d="M568.605 1270.38C587.646 1250.92 614.49 1233.04 648.414 1217.24C711.692 1187.77 797.913 1165.93 897.744 1154.1L906.801 1230.95C816.287 1241.69 736.063 1261.75 680.901 1287.44C628.726 1311.75 610.133 1335.32 610.133 1349.3C610.133 1359.02 618.774 1371.21 634.475 1383.63C655.664 1400.41 688.416 1416.49 729.179 1430.14C819.111 1460.27 939.443 1476.85 1068 1476.85C1196.56 1476.85 1316.89 1460.27 1406.82 1430.14C1447.59 1416.49 1480.34 1400.41 1501.53 1383.63C1517.22 1371.21 1525.87 1359.02 1525.87 1349.3C1525.87 1340.31 1518.51 1330.91 1512.34 1324.59C1500 1311.98 1480.21 1299.14 1455.1 1287.44C1399.94 1261.75 1319.72 1241.69 1229.2 1230.95L1238.26 1154.1C1338.09 1165.94 1424.31 1187.77 1487.59 1217.24C1521.51 1233.04 1548.36 1250.91 1567.4 1270.38C1596.84 1300.48 1603.02 1329.91 1603.02 1349.3C1603.02 1393.43 1573.22 1456.02 1431.26 1503.56C1333.65 1536.24 1204.65 1554.24 1068 1554.24C931.354 1554.24 802.348 1536.24 704.747 1503.56C562.787 1456.02 532.984 1393.43 532.984 1349.3C532.984 1329.91 539.165 1300.48 568.605 1270.39V1270.38Z" fill="#F1F1F1"></path>
</g>
</g>
<defs>
<clipPath id="clip0_214_598">
<rect width="2136" height="2132" fill="white"></rect>
</clipPath>
</defs>
</svg>