<svg width="2136" height="2136" viewBox="0 0 2136 2136" fill="none" xmlns="http://www.w3.org/2000/svg">
<g clip-path="url(#clip0_214_500)">
<path d="M2136 0H0V2136H2136V0Z" fill="#270065"></path>
<path d="M1046.31 983.02L1215 1148.36L1179.42 1189.04L1165.32 1205.21L1068.89 1110.7V1369.01H995.701V1112.29L918.475 1189.9L903.41 1205.08L889.072 1189.13L853 1148.88L1031.97 969.003L1046.31 983.02Z" fill="#F1F1F1"></path>
<path fill-rule="evenodd" clip-rule="evenodd" d="M1643.17 765.424L1647 774.981V1560.87C1647 1586.89 1625.91 1607.99 1599.89 1607.99H469.118C443.095 1607.99 422.004 1586.89 422.004 1560.87V774.587L426.166 764.729L535.257 505.821C542.613 488.347 559.721 476.991 578.672 476.991H1494.72C1513.91 476.991 1531.18 488.644 1538.39 506.44L1643.17 765.424ZM517.827 1506.58H1551.18V836.083H517.827V1506.58ZM543.748 734.674H1526.47L1463.26 578.453H609.581L543.748 734.674Z" fill="#F1F1F1"></path>
</g>
<defs>
<clipPath id="clip0_214_500">
<rect width="2136" height="2136" fill="white"></rect>
</clipPath>
</defs>
</svg>