<svg width="1451" height="1451" viewBox="0 0 1451 1451" fill="none" xmlns="http://www.w3.org/2000/svg">
<g clip-path="url(#clip0_57_116)">
<path d="M1451 0H0V1451H1451V0Z" fill="#270065"></path>
<path d="M604.15 604.15V580.746C591.224 580.746 580.746 591.224 580.746 604.15H604.15ZM608.18 604.15H631.583C631.583 591.224 621.105 580.746 608.18 580.746V604.15ZM846.846 604.15V580.746C833.92 580.746 823.443 591.224 823.443 604.15H846.846ZM850.427 604.15H873.83C873.83 591.224 863.352 580.746 850.427 580.746V604.15ZM608.18 607.389V630.792C621.105 630.792 631.583 620.314 631.583 607.389H608.18ZM604.15 607.389H580.746C580.746 620.314 591.224 630.792 604.15 630.792V607.389ZM850.427 607.389V630.792C863.352 630.792 873.83 620.314 873.83 607.389H850.427ZM846.846 607.389H823.443C823.443 620.314 833.92 630.792 846.846 630.792V607.389ZM605.172 836.179L592.853 816.279L553.056 840.913L565.373 860.813L585.273 848.496L605.172 836.179ZM885.623 860.813L897.94 840.913L858.143 816.279L845.825 836.179L865.723 848.496L885.623 860.813ZM1129.99 725.498H1106.59C1106.59 935.968 935.968 1106.59 725.498 1106.59V1129.99V1153.39C961.819 1153.39 1153.39 961.819 1153.39 725.498H1129.99ZM725.498 1129.99V1106.59C515.028 1106.59 344.409 935.968 344.409 725.498H321.006H297.603C297.603 961.819 489.179 1153.39 725.498 1153.39V1129.99ZM321.006 725.498H344.409C344.409 515.028 515.028 344.409 725.498 344.409V321.006V297.603C489.179 297.603 297.603 489.179 297.603 725.498H321.006ZM725.498 321.006V344.409C935.968 344.409 1106.59 515.028 1106.59 725.498H1129.99H1153.39C1153.39 489.179 961.819 297.603 725.498 297.603V321.006ZM604.15 604.15V627.553H608.18V604.15V580.746H604.15V604.15ZM846.846 604.15V627.553H850.427V604.15V580.746H846.846V604.15ZM608.18 604.15H584.776V607.389H608.18H631.583V604.15H608.18ZM608.18 607.389V583.985H604.15V607.389V630.792H608.18V607.389ZM604.15 607.389H627.553V604.15H604.15H580.746V607.389H604.15ZM850.427 604.15H827.023V607.389H850.427H873.83V604.15H850.427ZM850.427 607.389V583.985H846.846V607.389V630.792H850.427V607.389ZM846.846 607.389H870.249V604.15H846.846H823.443V607.389H846.846ZM725.498 927.741V904.338C675.19 904.338 630.689 877.401 605.172 836.179L585.273 848.496L565.373 860.813C598.839 914.877 657.9 951.145 725.498 951.145V927.741ZM865.723 848.496L845.825 836.179C820.307 877.401 775.805 904.338 725.498 904.338V927.741V951.145C793.096 951.145 852.158 914.877 885.623 860.813L865.723 848.496Z" fill="#F1F1F1"></path>
</g>
<defs>
<clipPath id="clip0_57_116">
<rect width="1451" height="1451" fill="white"></rect>
</clipPath>
</defs>
</svg>