<svg width="62" height="62" viewBox="0 0 62 62" fill="none" xmlns="http://www.w3.org/2000/svg">
<rect width="62" height="62" fill="#270065"></rect>
<rect width="42" height="42" transform="translate(10 10)" fill="white" fill-opacity="0.01"></rect>
<path d="M46.75 17.875H33.625V15.25C33.625 14.5538 33.3484 13.8861 32.8562 13.3938C32.3639 12.9016 31.6962 12.625 31 12.625H15.25C14.5538 12.625 13.8861 12.9016 13.3938 13.3938C12.9016 13.8861 12.625 14.5538 12.625 15.25V41.5C12.625 42.1962 12.9016 42.8639 13.3938 43.3562C13.8861 43.8484 14.5538 44.125 15.25 44.125H28.375V46.75C28.375 47.4462 28.6516 48.1139 29.1438 48.6062C29.6361 49.0984 30.3038 49.375 31 49.375H46.75C47.4462 49.375 48.1139 49.0984 48.6062 48.6062C49.0984 48.1139 49.375 47.4462 49.375 46.75V20.5C49.375 19.8038 49.0984 19.1361 48.6062 18.6438C48.1139 18.1516 47.4462 17.875 46.75 17.875ZM15.25 29.6875H23.3481L19.9619 33.0869L21.8125 34.9375L28.375 28.375L21.8125 21.8125L19.9619 23.6631L23.3481 27.0625H15.25V15.25H31V41.5H15.25V29.6875ZM31 46.75V44.125C31.6962 44.125 32.3639 43.8484 32.8562 43.3562C33.3484 42.8639 33.625 42.1962 33.625 41.5V20.5H46.75V32.3125H38.6519L42.0381 28.9131L40.1875 27.0625L33.625 33.625L40.1875 40.1875L42.0381 38.3369L38.6519 34.9375H46.75V46.75H31Z" fill="#F1F1F1"></path>
</svg>