<svg width="2136" height="2136" viewBox="0 0 2136 2136" fill="none" xmlns="http://www.w3.org/2000/svg">
<g clip-path="url(#clip0_214_504)">
<path d="M2136 0H0V2136H2136V0Z" fill="#270065"></path>
<path d="M717.253 540.742V716.243H541.755V540.742H717.253ZM454.004 452.995V803.994H805.004V452.995H454.004Z" fill="#F1F1F1"></path>
<path d="M1156.26 672.75V848.248H980.755V672.75H1156.26ZM893.004 585V935.999H1244V585H893.004Z" fill="#F1F1F1"></path>
<path d="M717.253 1067V1243H541.755V1067H717.253ZM454.004 979V1331H805.004V979H454.004Z" fill="#F1F1F1"></path>
<path d="M1331.8 804.002V1067.41H1068.4V1330.8H804.996V1682H1683V804.002H1331.8ZM1156.2 1155.21H1331.8V1330.8H1156.2V1155.21ZM1068.4 1594.2H892.804V1418.6H1068.4V1594.2ZM1331.8 1594.2H1156.2V1418.6H1331.8V1594.2ZM1595.2 1594.2H1419.6V1418.6H1595.2V1594.2ZM1595.2 1330.8H1419.6V1155.21H1595.2V1330.8ZM1419.6 1067.41V891.802H1595.2V1067.41H1419.6Z" fill="#F1F1F1"></path>
</g>
<defs>
<clipPath id="clip0_214_504">
<rect width="2136" height="2136" fill="white"></rect>
</clipPath>
</defs>
</svg>