<svg width="62" height="62" viewBox="0 0 62 62" fill="none" xmlns="http://www.w3.org/2000/svg">
<rect width="62" height="62" fill="#270065"></rect>
<path d="M32.2726 31.9845L28.739 38.105M38.6812 19.206C35.6882 21.0322 29.6348 25.8088 29.3649 30.3057M40.135 20.0453C40.1163 23.5887 39.1192 31.2846 35.2801 33.7208M16.125 41.4849L19.8196 39.8595C22.0772 38.8663 24.5646 38.5139 27.0092 38.841L27.1224 38.8561C29.6046 39.1882 31.9445 40.2076 33.8779 41.7993L36.8333 44.2322M23.2216 26.7588L41.3237 37.2101C42.3475 37.8012 43.6567 37.4504 44.2478 36.4266C47.5975 30.6248 45.6097 23.2061 39.8079 19.8564L39.0082 19.3947C33.2064 16.0451 25.7877 18.0329 22.438 23.8347C21.8469 24.8585 22.1977 26.1677 23.2216 26.7588Z" stroke="#F1F1F1" stroke-width="2" stroke-linecap="round" stroke-linejoin="round"></path>
</svg>