<svg width="62" height="62" viewBox="0 0 62 62" fill="none" xmlns="http://www.w3.org/2000/svg">
<rect width="62" height="62" fill="#270065"></rect>
<path d="M43.56 31.9699C43.7447 31.4494 43.4725 30.8777 42.952 30.6931C42.4315 30.5084 41.8599 30.7806 41.6752 31.3011L42.6176 31.6355L43.56 31.9699ZM39.0591 41.6641L40.0015 41.9985L40.0015 41.9985L39.0591 41.6641ZM36.6591 43.7421L36.8552 44.7227L36.8552 44.7227L36.6591 43.7421ZM15.7094 47.932L14.7253 47.7546C14.6665 48.0803 14.7728 48.414 15.009 48.6458C15.2453 48.8776 15.5809 48.9775 15.9055 48.9126L15.7094 47.932ZM19.5325 26.7312L20.5166 26.9087L20.5166 26.9087L19.5325 26.7312ZM21.7381 24.2325L22.0363 25.187L22.0363 25.187L21.7381 24.2325ZM32.3042 21.9783C32.8313 21.8135 33.1251 21.2527 32.9604 20.7255C32.7957 20.1984 32.2348 19.9046 31.7076 20.0693L32.0059 21.0238L32.3042 21.9783ZM15.3813 46.8459C14.9907 47.2365 14.9907 47.8696 15.3813 48.2601C15.7718 48.6507 16.405 48.6507 16.7955 48.2601L16.0884 47.553L15.3813 46.8459ZM25.8912 39.1644C26.2817 38.7739 26.2817 38.1407 25.8912 37.7502C25.5007 37.3597 24.8675 37.3597 24.477 37.7502L25.1841 38.4573L25.8912 39.1644ZM48.6814 24.0557L49.3886 23.3486L49.3886 23.3486L48.6814 24.0557ZM48.6814 27.0876L47.9743 26.3805L47.9743 26.3805L48.6814 27.0876ZM36.5538 14.96L35.8467 14.2529L35.8467 14.2529L36.5538 14.96ZM39.5857 14.96L38.8786 15.6671L38.8786 15.6671L39.5857 14.96ZM32.7639 21.7818L33.471 21.0747L33.471 21.0747L32.7639 21.7818ZM32.7639 18.7499L33.471 19.457L33.471 19.457L32.7639 18.7499ZM41.8596 30.8775L41.1525 31.5846L41.1525 31.5846L41.8596 30.8775ZM44.8916 30.8775L45.5987 31.5846L45.5987 31.5846L44.8916 30.8775ZM42.6176 31.6355L41.6752 31.3011L38.1166 41.3297L39.0591 41.6641L40.0015 41.9985L43.56 31.9699L42.6176 31.6355ZM36.6591 43.7421L36.4629 42.7615L15.5133 46.9514L15.7094 47.932L15.9055 48.9126L36.8552 44.7227L36.6591 43.7421ZM15.7094 47.932L16.6935 48.1095L20.5166 26.9087L19.5325 26.7312L18.5483 26.5538L14.7253 47.7546L15.7094 47.932ZM21.7381 24.2325L22.0363 25.187L32.3042 21.9783L32.0059 21.0238L31.7076 20.0693L21.4398 23.278L21.7381 24.2325ZM19.5325 26.7312L20.5166 26.9087C20.663 26.0966 21.2487 25.4331 22.0363 25.187L21.7381 24.2325L21.4398 23.278C19.9412 23.7463 18.827 25.0086 18.5483 26.5538L19.5325 26.7312ZM39.0591 41.6641L38.1166 41.3297C37.8558 42.0648 37.2278 42.6085 36.4629 42.7615L36.6591 43.7421L36.8552 44.7227C38.3103 44.4316 39.5053 43.397 40.0015 41.9985L39.0591 41.6641ZM16.0884 47.553L16.7955 48.2601L25.8912 39.1644L25.1841 38.4573L24.477 37.7502L15.3813 46.8459L16.0884 47.553ZM41.8596 30.8775L42.5667 30.1704L33.471 21.0747L32.7639 21.7818L32.0568 22.4889L41.1525 31.5846L41.8596 30.8775ZM32.7639 18.7499L33.471 19.457L37.2609 15.6671L36.5538 14.96L35.8467 14.2529L32.0568 18.0427L32.7639 18.7499ZM39.5857 14.96L38.8786 15.6671L47.9743 24.7628L48.6814 24.0557L49.3886 23.3486L40.2928 14.2529L39.5857 14.96ZM48.6814 27.0876L47.9743 26.3805L44.1844 30.1704L44.8916 30.8775L45.5987 31.5846L49.3886 27.7947L48.6814 27.0876ZM48.6814 24.0557L47.9743 24.7628C48.4211 25.2095 48.4211 25.9338 47.9743 26.3805L48.6814 27.0876L49.3886 27.7947C50.6163 26.567 50.6163 24.5764 49.3886 23.3486L48.6814 24.0557ZM36.5538 14.96L37.2609 15.6671C37.7076 15.2204 38.4319 15.2204 38.8786 15.6671L39.5857 14.96L40.2928 14.2529C39.065 13.0251 37.0744 13.0251 35.8467 14.2529L36.5538 14.96ZM32.7639 21.7818L33.471 21.0747C33.0243 20.6279 33.0243 19.9037 33.471 19.457L32.7639 18.7499L32.0568 18.0427C30.829 19.2705 30.829 21.2611 32.0568 22.4889L32.7639 21.7818ZM41.8596 30.8775L41.1525 31.5846C42.3803 32.8124 44.3709 32.8124 45.5987 31.5846L44.8916 30.8775L44.1844 30.1704C43.7377 30.6171 43.0135 30.6171 42.5667 30.1704L41.8596 30.8775ZM25.9421 31.6355L26.6492 32.3426C27.9332 31.0586 30.0149 31.0586 31.2988 32.3426L32.0059 31.6355L32.713 30.9284C30.648 28.8634 27.3 28.8634 25.235 30.9284L25.9421 31.6355ZM32.0059 31.6355L31.2988 32.3426C32.5828 33.6265 32.5828 35.7083 31.2988 36.9922L32.0059 37.6993L32.713 38.4064C34.778 36.3414 34.778 32.9934 32.713 30.9284L32.0059 31.6355ZM32.0059 37.6993L31.2988 36.9922C30.0149 38.2762 27.9332 38.2762 26.6492 36.9922L25.9421 37.6993L25.235 38.4064C27.3 40.4714 30.648 40.4714 32.713 38.4064L32.0059 37.6993ZM25.9421 37.6993L26.6492 36.9922C25.3652 35.7083 25.3652 33.6265 26.6492 32.3426L25.9421 31.6355L25.235 30.9284C23.17 32.9934 23.17 36.3414 25.235 38.4064L25.9421 37.6993Z" fill="#F1F1F1"></path>
</svg>