<svg width="62" height="62" viewBox="0 0 62 62" fill="none" xmlns="http://www.w3.org/2000/svg">
<rect width="62" height="62" fill="#270065"></rect>
<path d="M13.7163 48.2837L13.717 41.8016C13.7174 38.2223 16.6191 35.3209 20.1984 35.3209H32.0802M39.6418 36.7098L43.9628 32.0802M43.9628 32.0802L48.2837 36.7098M43.9628 32.0802V43.9628M40.7221 13.7163C43.3439 15.1859 45.043 17.5419 45.043 20.1977C45.043 22.8535 43.3439 25.2095 40.7221 26.6791M35.3209 20.1977C35.3209 23.7773 32.4191 26.6791 28.8395 26.6791C25.26 26.6791 22.3582 23.7773 22.3582 20.1977C22.3582 16.6181 25.26 13.7163 28.8395 13.7163C32.4191 13.7163 35.3209 16.6181 35.3209 20.1977Z" stroke="#F1F1F1" stroke-width="2" stroke-linecap="square" stroke-linejoin="round"></path>
</svg>