<svg width="62" height="62" viewBox="0 0 62 62" fill="none" xmlns="http://www.w3.org/2000/svg">
<rect width="62" height="62" fill="#270065"></rect>
<path d="M25.8148 25.8148V24.8148C25.2625 24.8148 24.8148 25.2625 24.8148 25.8148H25.8148ZM25.987 25.8148H26.987C26.987 25.2625 26.5393 24.8148 25.987 24.8148V25.8148ZM36.185 25.8148V24.8148C35.6327 24.8148 35.185 25.2625 35.185 25.8148H36.185ZM36.338 25.8148H37.338C37.338 25.2625 36.8903 24.8148 36.338 24.8148V25.8148ZM25.987 25.9532V26.9532C26.5393 26.9532 26.987 26.5055 26.987 25.9532H25.987ZM25.8148 25.9532H24.8148C24.8148 26.5055 25.2625 26.9532 25.8148 26.9532V25.9532ZM36.338 25.9532V26.9532C36.8903 26.9532 37.338 26.5055 37.338 25.9532H36.338ZM36.185 25.9532H35.185C35.185 26.5055 35.6327 26.9532 36.185 26.9532V25.9532ZM25.8585 35.7292L25.3321 34.8789L23.6316 35.9315L24.1579 36.7818L25.0082 36.2555L25.8585 35.7292ZM37.8419 36.7818L38.3682 35.9315L36.6677 34.8789L36.1414 35.7292L36.9916 36.2555L37.8419 36.7818ZM48.2835 30.9999H47.2835C47.2835 39.9931 39.9931 47.2835 30.9999 47.2835V48.2835V49.2835C41.0977 49.2835 49.2835 41.0977 49.2835 30.9999H48.2835ZM30.9999 48.2835V47.2835C22.0067 47.2835 14.7163 39.9931 14.7163 30.9999H13.7163H12.7163C12.7163 41.0977 20.9022 49.2835 30.9999 49.2835V48.2835ZM13.7163 30.9999H14.7163C14.7163 22.0067 22.0067 14.7163 30.9999 14.7163V13.7163V12.7163C20.9022 12.7163 12.7163 20.9022 12.7163 30.9999H13.7163ZM30.9999 13.7163V14.7163C39.9931 14.7163 47.2835 22.0067 47.2835 30.9999H48.2835H49.2835C49.2835 20.9022 41.0977 12.7163 30.9999 12.7163V13.7163ZM25.8148 25.8148V26.8148H25.987V25.8148V24.8148H25.8148V25.8148ZM36.185 25.8148V26.8148H36.338V25.8148V24.8148H36.185V25.8148ZM25.987 25.8148H24.987V25.9532H25.987H26.987V25.8148H25.987ZM25.987 25.9532V24.9532H25.8148V25.9532V26.9532H25.987V25.9532ZM25.8148 25.9532H26.8148V25.8148H25.8148H24.8148V25.9532H25.8148ZM36.338 25.8148H35.338V25.9532H36.338H37.338V25.8148H36.338ZM36.338 25.9532V24.9532H36.185V25.9532V26.9532H36.338V25.9532ZM36.185 25.9532H37.185V25.8148H36.185H35.185V25.9532H36.185ZM30.9999 39.6416V38.6416C28.8503 38.6416 26.9488 37.4906 25.8585 35.7292L25.0082 36.2555L24.1579 36.7818C25.5879 39.0919 28.1115 40.6416 30.9999 40.6416V39.6416ZM36.9916 36.2555L36.1414 35.7292C35.051 37.4906 33.1495 38.6416 30.9999 38.6416V39.6416V40.6416C33.8883 40.6416 36.412 39.0919 37.8419 36.7818L36.9916 36.2555Z" fill="#F1F1F1"></path>
</svg>