<svg width="62" height="62" viewBox="0 0 62 62" fill="none" xmlns="http://www.w3.org/2000/svg">
<rect width="62" height="62" fill="#270065"></rect>
<path d="M41.8024 48.2841L41.1463 49.0387C41.5225 49.3659 42.0824 49.3659 42.4586 49.0387L41.8024 48.2841ZM40.8024 37.9138C40.8024 38.4661 41.2502 38.9138 41.8024 38.9138C42.3547 38.9138 42.8024 38.4661 42.8024 37.9138H41.8024H40.8024ZM42.8024 37.7838C42.8024 37.2315 42.3547 36.7838 41.8024 36.7838C41.2502 36.7838 40.8024 37.2315 40.8024 37.7838H41.8024H42.8024ZM30.5679 48.2841V47.2841C21.5745 47.2841 14.284 39.9936 14.284 31.0002H13.284H12.284C12.284 41.0981 20.47 49.2841 30.5679 49.2841V48.2841ZM13.284 31.0002H14.284C14.284 22.0069 21.5745 14.7163 30.5679 14.7163V13.7163V12.7163C20.47 12.7163 12.284 20.9023 12.284 31.0002H13.284ZM30.5679 13.7163V14.7163C37.4002 14.7163 43.2521 18.9244 45.6685 24.894L46.5954 24.5187L47.5224 24.1435C44.8108 17.4447 38.2427 12.7163 30.5679 12.7163V13.7163ZM15.4445 37.4817V38.4817H20.4856V37.4817V36.4817H15.4445V37.4817ZM24.0864 33.8809H25.0864V29.1998H24.0864H23.0864V33.8809H24.0864ZM27.6873 25.599V26.599H31.2881V25.599V24.599H27.6873V25.599ZM34.8889 21.9982H35.8889V15.8768H34.8889H33.8889V21.9982H34.8889ZM31.2881 25.599V26.599C33.829 26.599 35.8889 24.5391 35.8889 21.9982H34.8889H33.8889C33.8889 23.4346 32.7245 24.599 31.2881 24.599V25.599ZM24.0864 29.1998H25.0864C25.0864 27.7634 26.2509 26.599 27.6873 26.599V25.599V24.599C25.1463 24.599 23.0864 26.6588 23.0864 29.1998H24.0864ZM20.4856 37.4817V38.4817C23.0266 38.4817 25.0864 36.4218 25.0864 33.8809H24.0864H23.0864C23.0864 35.3173 21.922 36.4817 20.4856 36.4817V37.4817ZM48.716 37.7635H47.716C47.716 38.6527 47.3686 39.7022 46.7563 40.8335C46.1513 41.9516 45.3319 43.069 44.4921 44.0731C43.6552 45.0738 42.8153 45.9413 42.1834 46.5595C41.8681 46.868 41.606 47.1129 41.424 47.2796C41.333 47.363 41.2621 47.4267 41.2147 47.469C41.191 47.4901 41.1732 47.5059 41.1616 47.516C41.1558 47.5211 41.1516 47.5248 41.1491 47.5271C41.1478 47.5282 41.1469 47.529 41.1464 47.5294C41.1462 47.5296 41.1461 47.5297 41.146 47.5297C41.146 47.5297 41.1461 47.5297 41.1461 47.5297C41.1462 47.5296 41.1463 47.5295 41.8024 48.2841C42.4586 49.0387 42.4588 49.0386 42.459 49.0384C42.4591 49.0383 42.4593 49.0381 42.4595 49.038C42.4599 49.0376 42.4604 49.0372 42.461 49.0367C42.4622 49.0356 42.4638 49.0342 42.4658 49.0324C42.4699 49.0289 42.4756 49.0238 42.4829 49.0174C42.4976 49.0046 42.5185 48.986 42.5455 48.962C42.5993 48.914 42.677 48.8442 42.775 48.7543C42.9711 48.5747 43.2492 48.3147 43.582 47.9892C44.2464 47.3392 45.1349 46.422 46.0263 45.3562C46.9149 44.2937 47.824 43.0628 48.5152 41.7854C49.1992 40.5215 49.716 39.1287 49.716 37.7635H48.716ZM41.8024 48.2841C42.4586 47.5295 42.4587 47.5296 42.4588 47.5297C42.4588 47.5297 42.4589 47.5297 42.4589 47.5297C42.4588 47.5297 42.4587 47.5296 42.4585 47.5294C42.458 47.529 42.4571 47.5282 42.4558 47.5271C42.4533 47.5248 42.4491 47.5211 42.4433 47.516C42.4317 47.5059 42.4139 47.4901 42.3902 47.469C42.3427 47.4267 42.2719 47.363 42.1809 47.2796C41.9989 47.1129 41.7368 46.868 41.4215 46.5595C40.7896 45.9413 39.9497 45.0738 39.1127 44.0731C38.273 43.069 37.4536 41.9516 36.8486 40.8335C36.2363 39.7022 35.8889 38.6527 35.8889 37.7635H34.8889H33.8889C33.8889 39.1287 34.4056 40.5215 35.0897 41.7854C35.7809 43.0628 36.69 44.2937 37.5786 45.3562C38.47 46.422 39.3585 47.3392 40.0229 47.9892C40.3557 48.3147 40.6338 48.5747 40.8299 48.7543C40.9279 48.8442 41.0056 48.914 41.0594 48.962C41.0864 48.986 41.1073 49.0046 41.1219 49.0174C41.1293 49.0238 41.135 49.0289 41.139 49.0324C41.1411 49.0342 41.1427 49.0356 41.1439 49.0367C41.1445 49.0372 41.145 49.0376 41.1454 49.038C41.1456 49.0381 41.1458 49.0383 41.1459 49.0384C41.1461 49.0386 41.1463 49.0387 41.8024 48.2841ZM34.8889 37.7635H35.8889C35.8889 34.6011 38.5156 32.0002 41.8024 32.0002V31.0002V30.0002C37.4527 30.0002 33.8889 33.4553 33.8889 37.7635H34.8889ZM41.8024 31.0002V32.0002C45.0892 32.0002 47.716 34.6011 47.716 37.7635H48.716H49.716C49.716 33.4553 46.1521 30.0002 41.8024 30.0002V31.0002ZM41.8024 37.9138H42.8024V37.7838H41.8024H40.8024V37.9138H41.8024Z" fill="#F1F1F1"></path>
</svg>