<svg width="1451" height="1451" viewBox="0 0 1451 1451" fill="none" xmlns="http://www.w3.org/2000/svg">
<rect width="1451" height="1451" fill="#270065"></rect>
<path d="M887.619 1053.45L803.643 967.526L757.924 1014.3L887.619 1147.01L1147.01 881.593L1101.3 834.816L887.619 1053.45Z" fill="#F1F1F1"></path>
<path d="M693.072 768.463C728.89 768.463 757.918 738.755 757.918 702.105C757.918 665.461 728.89 635.753 693.072 635.753C657.258 635.753 628.225 665.461 628.225 702.105C628.225 738.755 657.258 768.463 693.072 768.463Z" fill="#F1F1F1"></path>
<path d="M693.069 901.171C654.592 901.171 616.979 889.499 584.986 867.625C552.994 845.75 528.058 814.662 513.334 778.287C498.61 741.918 494.757 701.891 502.264 663.277C509.77 624.663 528.299 589.194 555.506 561.355C582.713 533.516 617.378 514.557 655.115 506.876C692.853 499.195 731.969 503.138 767.52 518.204C803.064 533.27 833.453 558.785 854.826 591.52C876.206 624.256 887.61 662.742 887.61 702.11C887.555 754.888 867.04 805.489 830.569 842.805C794.098 880.127 744.65 901.116 693.069 901.171ZM693.069 569.405C667.417 569.405 642.342 577.188 621.014 591.771C599.685 606.352 583.062 627.078 573.246 651.327C563.43 675.576 560.861 702.261 565.865 728.001C570.87 753.741 583.222 777.394 601.36 795.952C619.499 814.511 642.608 827.151 667.767 832.273C692.925 837.388 718.999 834.765 742.7 824.72C766.401 814.675 786.655 797.662 800.909 775.842C815.155 754.016 822.762 728.358 822.762 702.11C822.728 666.928 809.051 633.197 784.733 608.318C760.421 583.439 727.451 569.444 693.069 569.405Z" fill="#F1F1F1"></path>
<path d="M1082.17 702.108C1082.17 623.368 1059.35 546.396 1016.6 480.925C973.843 415.454 913.074 364.426 841.978 334.294C770.883 304.16 692.65 296.276 617.174 311.638C541.699 326.999 472.37 364.917 417.955 420.595C363.54 476.273 326.484 547.212 311.471 624.439C296.457 701.668 304.163 781.717 333.612 854.467C363.06 927.21 412.931 989.387 476.916 1033.14C540.901 1076.88 616.127 1100.23 693.081 1100.23V1033.88C628.953 1033.88 566.265 1014.42 512.943 977.962C459.623 941.512 418.064 889.695 393.523 829.07C368.982 768.452 362.561 701.744 375.072 637.385C387.583 573.028 418.464 513.913 463.809 467.514C509.155 421.116 566.929 389.518 629.825 376.717C692.722 363.915 757.913 370.485 817.165 395.596C876.411 420.707 927.046 463.23 962.679 517.789C998.306 572.348 1017.32 636.492 1017.32 702.108H1082.17Z" fill="#F1F1F1"></path>
</svg>