<svg width="1451" height="1451" viewBox="0 0 1451 1451" fill="none" xmlns="http://www.w3.org/2000/svg">
<rect width="1451" height="1451" fill="#270065"></rect>
<path d="M887.619 1053.45L803.643 967.526L757.924 1014.3L887.619 1147.01L1147.01 881.593L1101.3 834.816L887.619 1053.45Z" fill="#F1F1F1"></path>
<path d="M693.072 768.464C728.89 768.464 757.918 738.756 757.918 702.106C757.918 665.462 728.89 635.754 693.072 635.754C657.258 635.754 628.225 665.462 628.225 702.106C628.225 738.756 657.258 768.464 693.072 768.464Z" fill="#F1F1F1"></path>
<path d="M693.069 901.17C654.592 901.17 616.979 889.499 584.986 867.624C552.994 845.75 528.058 814.661 513.334 778.286C498.61 741.918 494.757 701.89 502.264 663.277C509.77 624.663 528.299 589.193 555.506 561.355C582.713 533.516 617.378 514.556 655.115 506.876C692.853 499.195 731.969 503.137 767.52 518.204C803.064 533.27 833.453 558.784 854.826 591.52C876.206 624.255 887.61 662.741 887.61 702.11C887.555 754.887 867.04 805.488 830.569 842.804C794.098 880.127 744.65 901.116 693.069 901.17ZM693.069 569.405C667.417 569.405 642.342 577.188 621.014 591.77C599.685 606.352 583.062 627.078 573.246 651.327C563.43 675.576 560.861 702.261 565.865 728.001C570.87 753.741 583.222 777.394 601.36 795.952C619.499 814.51 642.608 827.15 667.767 832.272C692.925 837.387 718.999 834.764 742.7 824.72C766.401 814.675 786.655 797.661 800.909 775.842C815.155 754.015 822.762 728.358 822.762 702.11C822.728 666.927 809.051 633.196 784.733 608.317C760.421 583.438 727.451 569.444 693.069 569.405Z" fill="#F1F1F1"></path>
<path d="M1082.17 702.108C1082.17 623.369 1059.35 546.396 1016.6 480.925C973.843 415.455 913.074 364.427 841.979 334.294C770.883 304.161 692.65 296.277 617.174 311.638C541.699 327 472.37 364.918 417.956 420.595C363.541 476.274 326.484 547.213 311.471 624.44C296.458 701.669 304.163 781.717 333.612 854.467C363.061 927.211 412.931 989.387 476.917 1033.14C540.901 1076.88 616.127 1100.23 693.081 1100.23V1033.88C628.953 1033.88 566.265 1014.42 512.943 977.963C459.623 941.512 418.064 889.696 393.524 829.071C368.982 768.452 362.562 701.744 375.072 637.385C387.583 573.029 418.464 513.913 463.81 467.515C509.156 421.116 566.929 389.519 629.826 376.717C692.722 363.916 757.914 370.486 817.166 395.596C876.411 420.707 927.046 463.231 962.68 517.79C998.306 572.348 1017.32 636.492 1017.32 702.108H1082.17Z" fill="#F1F1F1"></path>
</svg>