<svg width="2136" height="2135" viewBox="0 0 2136 2135" fill="none" xmlns="http://www.w3.org/2000/svg">
<g clip-path="url(#clip0_214_510)">
<mask id="mask0_214_510" style="mask-type:luminance" maskUnits="userSpaceOnUse" x="0" y="0" width="2136" height="2135">
<path d="M2136 0H0V2135H2136V0Z" fill="white"></path>
</mask>
<g mask="url(#mask0_214_510)">
<mask id="mask1_214_510" style="mask-type:luminance" maskUnits="userSpaceOnUse" x="0" y="0" width="2136" height="2135">
<path d="M2136 0H0V2135H2136V0Z" fill="white"></path>
</mask>
<g mask="url(#mask1_214_510)">
<path d="M2136 0H0V2135H2136V0Z" fill="#270065"></path>
</g>
<path d="M1578.49 1664.38H556.874C534.301 1664.35 512.661 1655.38 496.699 1639.44C480.739 1623.48 471.762 1601.85 471.738 1579.3V558.381C471.762 535.825 480.739 514.199 496.699 498.249C512.661 482.299 534.301 473.328 556.874 473.305H1578.49C1601.06 473.328 1622.7 482.299 1638.66 498.249C1654.63 514.199 1663.61 535.825 1663.62 558.381V1579.3C1663.61 1601.85 1654.63 1623.48 1638.66 1639.44C1622.7 1655.38 1601.06 1664.35 1578.49 1664.38ZM556.874 558.381V1579.3H1578.49V558.381H556.874Z" fill="#F1F1F1"></path>
<path d="M1447.18 1163.39H1384.29V1226.43H1447.18V1415.54H692.474V1226.43H755.367V1163.39H692.474C675.8 1163.42 659.816 1170.06 648.025 1181.88C636.235 1193.7 629.603 1209.72 629.582 1226.43V1415.54C629.603 1432.25 636.235 1448.27 648.025 1460.09C659.816 1471.9 675.8 1478.56 692.474 1478.57H1447.18C1463.86 1478.56 1479.85 1471.9 1491.63 1460.09C1503.42 1448.27 1510.06 1432.25 1510.07 1415.54V1226.43C1510.06 1209.72 1503.42 1193.7 1491.63 1181.88C1479.85 1170.06 1463.86 1163.42 1447.18 1163.39Z" fill="#F1F1F1"></path>
<path d="M786.812 1352.5C804.18 1352.5 818.259 1338.39 818.259 1320.98C818.259 1303.58 804.18 1289.47 786.812 1289.47C769.446 1289.47 755.367 1303.58 755.367 1320.98C755.367 1338.39 769.446 1352.5 786.812 1352.5Z" fill="#F1F1F1"></path>
<path d="M1038.38 659.108H975.488V911.251H1038.38V659.108Z" fill="#F1F1F1"></path>
<path d="M912.595 659.108H849.703V911.251H912.595V659.108Z" fill="#F1F1F1"></path>
<path d="M1227.06 911.251H1164.17C1147.49 911.233 1131.5 904.586 1119.71 892.77C1107.92 880.952 1101.29 864.929 1101.27 848.216V722.144C1101.29 705.431 1107.92 689.409 1119.71 677.591C1131.5 665.773 1147.49 659.126 1164.17 659.108H1227.06C1243.73 659.126 1259.72 665.773 1271.51 677.591C1283.3 689.409 1289.93 705.431 1289.95 722.144V848.216C1289.93 864.929 1283.3 880.952 1271.51 892.77C1259.72 904.586 1243.73 911.233 1227.06 911.251ZM1164.17 722.144V848.216H1227.06V722.144H1164.17Z" fill="#F1F1F1"></path>
<path d="M1289.95 974.287H1227.06V1226.43H1289.95V974.287Z" fill="#F1F1F1"></path>
<path d="M912.595 974.287H849.703V1226.43H912.595V974.287Z" fill="#F1F1F1"></path>
<path d="M1101.27 1226.43H1038.38C1021.71 1226.41 1005.72 1219.77 993.928 1207.95C982.138 1196.13 975.506 1180.11 975.488 1163.39V1037.32C975.506 1020.61 982.138 1004.59 993.928 992.769C1005.72 980.951 1021.71 974.304 1038.38 974.287H1101.27C1117.95 974.304 1133.93 980.951 1145.73 992.769C1157.52 1004.59 1164.15 1020.61 1164.17 1037.32V1163.39C1164.15 1180.11 1157.52 1196.13 1145.73 1207.95C1133.93 1219.77 1117.95 1226.41 1101.27 1226.43ZM1038.38 1037.32V1163.39H1101.27V1037.32H1038.38Z" fill="#F1F1F1"></path>
</g>
</g>
<defs>
<clipPath id="clip0_214_510">
<rect width="2136" height="2135" fill="white"></rect>
</clipPath>
</defs>
</svg>