<svg width="2136" height="2136" viewBox="0 0 2136 2136" fill="none" xmlns="http://www.w3.org/2000/svg">
<g clip-path="url(#clip0_214_529)">
<mask id="mask0_214_529" style="mask-type:luminance" maskUnits="userSpaceOnUse" x="0" y="0" width="2136" height="2136">
<path d="M2136 0H0V2136H2136V0Z" fill="white"></path>
</mask>
<g mask="url(#mask0_214_529)">
<path d="M2136 0H0V2136H2136V0Z" fill="#270065"></path>
<path fill-rule="evenodd" clip-rule="evenodd" d="M1202.41 1000.87C1291.46 1000.87 1376.89 1036.85 1439.86 1100.91C1502.83 1164.96 1538.2 1251.85 1538.2 1342.44C1538.2 1410 1518.51 1476.03 1481.62 1532.2C1444.72 1588.37 1392.27 1632.17 1330.91 1658.03C1269.55 1683.88 1202.02 1690.63 1136.89 1677.45C1071.75 1664.27 1011.91 1631.75 964.948 1583.98C917.993 1536.21 886.022 1475.35 873.064 1409.09C860.105 1342.83 866.737 1274.14 892.157 1211.73C917.57 1149.31 960.631 1095.97 1015.85 1058.43C1071.07 1020.91 1135.99 1000.87 1202.41 1000.87ZM1164.06 1081.58C1103.34 1090.05 1047.37 1120.2 1006.28 1166.84C962.446 1216.61 938.812 1281.48 940.195 1348.3C941.574 1415.11 967.877 1478.91 1013.74 1526.76C1059.6 1574.6 1121.61 1602.94 1187.24 1606.05L1187.44 1606.07C1254.24 1610.38 1320.1 1588.22 1371.21 1544.24C1419.11 1503.02 1450.57 1445.62 1460.01 1382.81H1229.45C1212.12 1382.81 1195.49 1375.79 1183.22 1363.33C1170.97 1350.85 1164.07 1333.95 1164.06 1316.32V1081.58ZM1240.74 1303.45H1460.01C1451.76 1247.55 1426.07 1195.68 1386.51 1155.67C1346.93 1115.63 1295.77 1089.75 1240.74 1081.69V1303.45Z" fill="#F1F1F1"></path>
<path fill-rule="evenodd" clip-rule="evenodd" d="M1110.41 455.68C1123.32 455.68 1131.92 460.062 1140.53 468.797L1441.76 775.214C1450.36 783.973 1454.68 792.741 1454.68 805.87V988.134H1368.61V893.414H1110.41C1063.07 893.414 1024.35 854.018 1024.35 805.87V543.228H680.078V1593.79H911.47V1681.33H680.078C632.74 1681.33 594.012 1641.94 594.012 1593.79V543.228C594.012 495.072 632.74 455.68 680.078 455.68H1110.41ZM1110.41 805.87H1351.4L1110.41 560.743V805.87Z" fill="#F1F1F1"></path>
</g>
</g>
<defs>
<clipPath id="clip0_214_529">
<rect width="2136" height="2136" fill="white"></rect>
</clipPath>
</defs>
</svg>