<svg width="1451" height="1451" viewBox="0 0 1451 1451" fill="none" xmlns="http://www.w3.org/2000/svg">
<g clip-path="url(#clip0_185_80)">
<path d="M1451 0H0V1451H1451V0Z" fill="#270065"></path>
<path d="M1038.5 444.75H976V413.5C975.981 396.93 969.39 381.044 957.673 369.327C945.956 357.61 930.07 351.019 913.5 351H538.5C521.93 351.019 506.044 357.61 494.327 369.327C482.61 381.044 476.019 396.93 476 413.5V444.75H413.5C396.93 444.769 381.044 451.36 369.327 463.077C357.61 474.794 351.019 490.68 351 507.25V601C351.037 634.141 364.219 665.913 387.653 689.347C411.087 712.781 442.859 725.963 476 726H486.062C499.084 773.836 525.752 816.844 562.811 849.775C599.87 882.706 645.715 904.133 694.75 911.441V1038.5H538.5V1101H913.5V1038.5H757.25V911.347C806.921 905.206 853.588 884.235 891.161 851.172C928.733 818.108 955.468 774.487 967.875 726H976C1009.14 725.963 1040.91 712.781 1064.35 689.347C1087.78 665.913 1100.96 634.141 1101 601V507.25C1100.98 490.68 1094.39 474.794 1082.67 463.077C1070.96 451.36 1055.07 444.769 1038.5 444.75V444.75ZM476 663.5C459.43 663.481 443.544 656.89 431.827 645.173C420.11 633.456 413.519 617.57 413.5 601V507.25H476V663.5ZM913.5 663.5C913.5 688.611 908.456 713.466 898.667 736.59C888.879 759.714 874.545 780.637 856.517 798.116C838.488 815.595 817.132 829.275 793.717 838.344C770.301 847.413 745.302 851.686 720.203 850.909C670.438 847.823 623.779 825.667 589.935 789.052C556.091 752.437 537.668 704.182 538.5 654.328V413.5H913.5V663.5ZM1038.5 601C1038.48 617.57 1031.89 633.456 1020.17 645.173C1008.46 656.89 992.57 663.481 976 663.5V507.25H1038.5V601Z" fill="#F1F1F1"></path>
</g>
<defs>
<clipPath id="clip0_185_80">
<rect width="1451" height="1451" fill="white"></rect>
</clipPath>
</defs>
</svg>