<svg width="62" height="62" viewBox="0 0 62 62" fill="none" xmlns="http://www.w3.org/2000/svg">
<rect width="62" height="62" fill="#270065"></rect>
<rect width="42" height="42" transform="translate(10 10)" fill="white" fill-opacity="0.01"></rect>
<path d="M45.4375 48.0625H27.0625C25.6187 48.0625 24.4375 46.8813 24.4375 45.4375V40.1875H27.0625V45.4375H45.4375V27.0625H40.1875V24.4375H45.4375C46.8813 24.4375 48.0625 25.6187 48.0625 27.0625V45.4375C48.0625 46.8813 46.8813 48.0625 45.4375 48.0625Z" fill="#F1F1F1"></path>
<path d="M34.9375 29.6875V34.9375H29.6875V37.5625H37.5625V29.6875H34.9375Z" fill="#F1F1F1"></path>
<path d="M32.3125 24.4375H24.4375V32.3125H27.0625V27.0625H32.3125V24.4375Z" fill="#F1F1F1"></path>
<path d="M16.5625 13.9375H34.9375C36.3813 13.9375 37.5625 15.1187 37.5625 16.5625V21.8125H34.9375V16.5625H16.5625V34.9375H21.8125V37.5625H16.5625C15.1187 37.5625 13.9375 36.3813 13.9375 34.9375V16.5625C13.9375 15.1187 15.1187 13.9375 16.5625 13.9375Z" fill="#F1F1F1"></path>
</svg>