<svg width="62" height="62" viewBox="0 0 62 62" fill="none" xmlns="http://www.w3.org/2000/svg">
<rect width="62" height="62" fill="#270065"></rect>
<rect width="42" height="42" transform="translate(10 10)" fill="white" fill-opacity="0.01"></rect>
<path d="M31 12.625C27.3658 12.625 23.8132 13.7027 20.7914 15.7217C17.7697 17.7408 15.4145 20.6106 14.0237 23.9682C12.633 27.3258 12.2691 31.0204 12.9781 34.5848C13.6871 38.1492 15.4371 41.4233 18.0069 43.9931C20.5767 46.5629 23.8508 48.3129 27.4152 49.0219C30.9796 49.7309 34.6742 49.367 38.0318 47.9763C41.3894 46.5855 44.2592 44.2304 46.2783 41.2086C48.2973 38.1868 49.375 34.6342 49.375 31C49.375 26.1266 47.4391 21.4529 43.9931 18.0069C40.5471 14.5609 35.8734 12.625 31 12.625ZM40.8438 21.8125C41.7523 21.8125 42.6405 22.0819 43.3959 22.5867C44.1513 23.0915 44.7401 23.8089 45.0878 24.6483C45.4355 25.4877 45.5265 26.4113 45.3492 27.3024C45.172 28.1935 44.7345 29.0121 44.092 29.6545C43.4496 30.297 42.6311 30.7345 41.74 30.9117C40.8489 31.089 39.9252 30.998 39.0858 30.6503C38.2464 30.3026 37.529 29.7138 37.0242 28.9584C36.5194 28.203 36.25 27.3148 36.25 26.4062C36.2514 25.1883 36.7359 24.0207 37.5971 23.1596C38.4582 22.2984 39.6259 21.8139 40.8438 21.8125ZM41.4144 19.2164C41.2257 19.2015 41.0363 19.1875 40.8438 19.1875C39.8161 19.1873 38.8003 19.4073 37.8648 19.8325C36.9293 20.2578 36.0957 20.8785 35.4201 21.6529C34.7712 20.1283 33.7711 18.7787 32.5015 17.7141C31.2318 16.6495 29.7286 15.9 28.1142 15.5268C30.4656 15.0772 32.889 15.1763 35.1958 15.8162C37.5026 16.4561 39.6307 17.6197 41.4144 19.2164ZM31 46.75C29.9617 46.75 28.9466 46.4421 28.0833 45.8652C27.2199 45.2883 26.547 44.4684 26.1496 43.5091C25.7523 42.5498 25.6483 41.4942 25.8509 40.4758C26.0535 39.4574 26.5535 38.5219 27.2877 37.7877C28.0219 37.0535 28.9574 36.5534 29.9758 36.3509C30.9942 36.1483 32.0498 36.2523 33.0091 36.6496C33.9684 37.047 34.7883 37.7199 35.3652 38.5833C35.9421 39.4466 36.25 40.4616 36.25 41.5C36.2484 42.8919 35.6948 44.2264 34.7106 45.2106C33.7264 46.1948 32.3919 46.7484 31 46.75ZM25.75 33.625C24.1925 33.625 22.6699 33.1631 21.3749 32.2978C20.0799 31.4325 19.0705 30.2026 18.4745 28.7636C17.8784 27.3247 17.7225 25.7413 18.0263 24.2137C18.3302 22.6861 19.0802 21.2829 20.1815 20.1815C21.2829 19.0802 22.6861 18.3302 24.2137 18.0263C25.7413 17.7225 27.3247 17.8784 28.7636 18.4744C30.2026 19.0705 31.4325 20.0798 32.2978 21.3749C33.1631 22.6699 33.625 24.1925 33.625 25.75C33.6227 27.8379 32.7922 29.8396 31.3159 31.3159C29.8396 32.7922 27.8379 33.6227 25.75 33.625ZM15.25 31C15.2533 30.0316 15.3461 29.0655 15.5272 28.1142C16.0399 30.3271 17.2571 32.3138 18.9957 33.7757C20.7344 35.2375 22.9006 36.0954 25.1687 36.2205C24.0905 37.4018 23.4005 38.8852 23.1917 40.4709C22.9828 42.0565 23.2651 43.6681 24.0006 45.0882C21.3762 43.7859 19.1671 41.7776 17.6213 39.2889C16.0755 36.8002 15.2543 33.9297 15.25 31ZM37.9989 45.0882C38.559 44.004 38.8588 42.8042 38.8744 41.584C38.89 40.3637 38.621 39.1566 38.0887 38.0585C37.5565 36.9603 36.7756 36.0013 35.8081 35.2576C34.8406 34.5138 33.7131 34.0057 32.515 33.7737C33.5424 32.9078 34.3945 31.8531 35.0253 30.6668C35.6993 31.5908 36.5837 32.341 37.6052 32.8554C38.6267 33.3698 39.7561 33.6335 40.8998 33.6248C42.0435 33.6161 43.1686 33.3352 44.1822 32.8053C45.1958 32.2754 46.0686 31.5118 46.7285 30.5776C46.7324 30.7193 46.75 30.8577 46.75 31C46.7457 33.9298 45.9244 36.8003 44.3785 39.289C42.8326 41.7777 40.6233 43.786 37.9989 45.0882Z" fill="#F1F1F1"></path>
</svg>