<svg width="62" height="62" viewBox="0 0 62 62" fill="none" xmlns="http://www.w3.org/2000/svg">
<rect width="62" height="62" fill="#270065"></rect>
<rect width="42" height="42" transform="translate(10 10)" fill="white" fill-opacity="0.01"></rect>
<path d="M38.2187 33.625C36.6437 33.625 35.3312 32.8375 34.5437 31.525L29.5562 23.125C28.6375 21.55 26.9312 20.5 24.9625 20.5H21.6812V17.875H24.9625C27.7187 17.875 30.3437 19.3188 31.7875 21.8125L36.775 30.2125C37.1687 30.8687 37.825 31 38.0875 31C38.35 31 39.0062 31 39.4 30.2125L44.2562 21.8125L46.4875 23.125L41.6312 31.525C40.8437 32.8375 39.5312 33.625 37.9562 33.625H38.2187ZM23.9125 45.4375L22.3375 42.55C21.55 41.2375 21.55 39.7938 22.3375 38.4813L27.85 28.7688C28.5062 27.5875 28.5062 26.1437 27.85 24.9625C27.1937 23.7812 25.8812 23.125 24.5687 23.125H15.25V25.75H24.5687C25.225 25.75 25.4875 26.1437 25.6187 26.275C25.75 26.4062 25.8812 26.9313 25.6187 27.4563L20.1062 37.1688C18.925 39.2688 18.925 41.7625 20.1062 43.8625L21.6812 46.75L23.9125 45.4375ZM31.7875 48.0625L27.9812 41.5C27.7187 40.975 27.7187 40.3188 27.9812 39.7938C28.2437 39.2688 28.7687 38.875 29.425 38.875H39.0062C41.7625 38.875 44.3875 37.3 45.8312 34.9375L47.275 32.3125L45.0437 31L43.6 33.625C42.6812 35.3312 40.975 36.25 39.1375 36.25H29.5562C27.9812 36.25 26.5375 37.0375 25.75 38.4813C24.9625 39.7938 24.9625 41.5 25.75 42.8125L29.5562 49.375L31.7875 48.0625ZM50.0312 38.2188L50.425 37.5625L48.1937 36.25L47.8 36.9062C46.0937 39.7938 43.075 41.5 39.7937 41.5H33.625V44.125H39.7937C43.9937 44.125 47.9312 41.8937 50.0312 38.2188ZM38.875 23.125L36.25 18.5312C34.15 14.8563 30.2125 12.625 26.0125 12.625H24.5687V15.25H26.0125C29.2937 15.25 32.3125 16.9562 34.0187 19.8438L36.6437 24.4375L38.875 23.125ZM18.1375 45.4375L17.875 44.9125C16.1687 42.025 16.1687 38.4813 17.875 35.725L20.6312 31L18.4 29.6875L15.6437 34.4125C13.5437 38.0875 13.5437 42.55 15.6437 46.225L15.9062 46.75L18.1375 45.4375Z" fill="#F1F1F1"></path>
</svg>