<svg width="62" height="62" viewBox="0 0 62 62" fill="none" xmlns="http://www.w3.org/2000/svg">
<rect width="62" height="62" fill="#270065"></rect>
<rect width="42" height="42" transform="translate(10 10)" fill="white" fill-opacity="0.01"></rect>
<path d="M49.373 45.4375H12.625V48.0625H49.373V45.4375Z" fill="#F1F1F1"></path>
<path d="M31 36.25C32.3919 36.2516 33.7264 36.8052 34.7106 37.7894C35.6948 38.7736 36.2484 40.1081 36.25 41.5H38.875C38.875 39.4114 38.0453 37.4084 36.5685 35.9315C35.0916 34.4547 33.0886 33.625 31 33.625C28.9114 33.625 26.9084 34.4547 25.4315 35.9315C23.9547 37.4084 23.125 39.4114 23.125 41.5H25.75C25.7516 40.1081 26.3052 38.7736 27.2894 37.7894C28.2736 36.8052 29.6081 36.2516 31 36.25Z" fill="#F1F1F1"></path>
<path d="M49.375 38.875H42.8125V41.5H49.375V38.875Z" fill="#F1F1F1"></path>
<path d="M43.065 27.579L38.4636 32.1804L40.3195 34.0364L44.9209 29.435L43.065 27.579Z" fill="#F1F1F1"></path>
<path d="M31 15.25L24.4375 21.8125L26.2881 23.6631L29.6875 20.2769V29.6875H32.3125V20.2769L35.7119 23.6631L37.5625 21.8125L31 15.25Z" fill="#F1F1F1"></path>
<path d="M18.935 27.5791L17.079 29.4351L21.6804 34.0365L23.5364 32.1805L18.935 27.5791Z" fill="#F1F1F1"></path>
<path d="M19.1875 38.875H12.625V41.5H19.1875V38.875Z" fill="#F1F1F1"></path>
</svg>