<svg width="1455" height="1456" viewBox="0 0 1455 1456" fill="none" xmlns="http://www.w3.org/2000/svg">
<g clip-path="url(#clip0_205_60)">
<path d="M1455 0H0V1456H1455V0Z" fill="#270065"></path>
<path d="M643.843 709.086H750.022V648.362H689.348V618H628.674V649.904C610.267 653.675 593.918 664.15 582.786 679.296C571.657 694.446 566.539 713.187 568.428 731.896C570.316 750.604 579.074 767.943 593.007 780.558C606.941 793.17 625.056 800.161 643.843 800.169H674.179C678.202 800.169 682.059 801.77 684.905 804.618C687.749 807.463 689.348 811.326 689.348 815.352C689.348 819.378 687.749 823.24 684.905 826.086C682.059 828.934 678.202 830.532 674.179 830.532H568V891.256H628.674V921.618H689.348V889.713C707.752 885.943 724.104 875.467 735.236 860.321C746.365 845.172 751.483 826.43 749.595 807.722C747.706 789.013 738.946 771.675 725.015 759.06C711.081 746.448 692.966 739.459 674.179 739.448H643.843C639.82 739.448 635.96 737.848 633.117 735C630.273 732.154 628.674 728.292 628.674 724.266C628.674 720.24 630.273 716.38 633.117 713.532C635.96 710.684 639.82 709.086 643.843 709.086Z" fill="#F1F1F1"></path>
<path d="M1028.32 418.233C966.82 356.678 883.485 321.987 796.507 321.734C731.59 321.734 668.134 341.001 614.157 377.101C576.974 401.964 545.439 434.055 521.301 471.222C547.499 459.16 575.169 450.588 603.6 445.764C655.697 396.521 724.654 368.871 796.507 368.663C852.15 368.663 906.546 385.176 952.817 416.119C999.08 447.064 1035.15 491.039 1056.44 542.485C1077.72 593.929 1083.31 650.551 1072.44 705.168C1061.59 759.785 1034.8 809.964 995.448 849.334C987.578 857.22 979.257 864.592 970.571 871.433C961.744 898.541 949.374 924.518 933.688 948.665C988.689 923.34 1035.7 883.253 1069.43 832.732C1105.49 778.71 1124.75 715.204 1124.75 650.232C1124.49 563.183 1089.83 479.78 1028.33 418.222L1028.32 418.233Z" fill="#F1F1F1"></path>
<path d="M658.507 488.057C714.147 488.057 768.543 504.57 814.817 535.513C861.077 566.456 897.146 610.433 918.435 661.877C939.733 713.334 945.303 769.943 934.438 824.563C923.586 879.179 896.796 929.356 857.445 968.729C818.096 1008.11 767.971 1034.92 713.397 1045.79C658.826 1056.65 602.251 1051.07 550.848 1029.77C499.434 1008.46 455.493 972.363 424.585 926.063C393.669 879.763 377.17 825.321 377.17 769.624C377.389 695.015 407.097 623.521 459.808 570.766C512.521 518.008 583.955 488.266 658.507 488.057ZM658.507 441.129C593.587 441.129 530.131 460.396 476.154 496.496C422.175 532.593 380.108 583.895 355.264 643.921C330.41 703.948 323.907 769.999 336.574 833.726C349.244 897.454 380.505 955.983 426.404 1001.92C472.3 1047.87 530.792 1079.15 594.467 1091.82C658.143 1104.5 724.14 1097.99 784.117 1073.13C844.094 1048.26 895.353 1006.15 931.422 952.138C967.492 898.116 986.743 834.607 986.743 769.635C986.49 682.589 951.831 599.185 890.324 537.628C828.828 476.081 745.482 441.382 658.507 441.129Z" fill="#F1F1F1"></path>
</g>
<defs>
<clipPath id="clip0_205_60">
<rect width="1455" height="1456" fill="white"></rect>
</clipPath>
</defs>
</svg>