<svg width="524" height="524" viewBox="0 0 524 524" fill="none" xmlns="http://www.w3.org/2000/svg">
<rect width="524" height="524" fill="#270065"></rect>
<path d="M267.585 240.023H305.824V218.169H283.973V207.242H262.122V218.724C255.493 220.081 249.605 223.851 245.596 229.302C241.588 234.754 239.745 241.499 240.425 248.232C241.105 254.965 244.259 261.205 249.277 265.745C254.295 270.284 260.819 272.8 267.585 272.803H278.51C279.959 272.803 281.348 273.379 282.373 274.404C283.397 275.428 283.973 276.818 283.973 278.267C283.973 279.716 283.397 281.106 282.373 282.13C281.348 283.155 279.959 283.73 278.51 283.73H240.271V305.584H262.122V316.511H283.973V305.029C290.601 303.672 296.49 299.902 300.499 294.451C304.507 288.999 306.35 282.254 305.67 275.521C304.99 268.788 301.835 262.548 296.818 258.008C291.8 253.469 285.276 250.954 278.51 250.95H267.585C266.136 250.95 264.746 250.374 263.722 249.349C262.698 248.325 262.122 246.935 262.122 245.486C262.122 244.037 262.698 242.648 263.722 241.623C264.746 240.598 266.136 240.023 267.585 240.023Z" fill="#F1F1F1"></path>
<path d="M404.153 229.096H382.083C381.768 220.464 379.686 211.988 375.965 204.193C372.245 196.398 366.964 189.449 360.451 183.777V141.681C360.451 139.652 359.886 137.662 358.819 135.936C357.752 134.21 356.226 132.815 354.411 131.907C352.597 131 350.565 130.616 348.544 130.798C346.523 130.98 344.593 131.722 342.97 132.939L302.18 163.535H251.197C191.003 163.535 147.805 198.951 142.505 250.95H141.942C139.045 250.947 136.268 249.795 134.22 247.746C132.171 245.698 131.019 242.92 131.017 240.023V218.169H109.166V240.023C109.176 248.714 112.632 257.046 118.777 263.192C124.921 269.337 133.252 272.794 141.942 272.803H142.707C144.292 287.131 148.949 300.947 156.358 313.311C163.768 325.675 173.757 336.295 185.644 344.447V382.072C185.644 384.97 186.795 387.75 188.844 389.799C190.893 391.848 193.672 392.999 196.569 392.999H240.271C243.169 392.999 245.948 391.848 247.997 389.799C250.046 387.75 251.197 384.97 251.197 382.072V360.219H283.973V382.072C283.973 384.97 285.124 387.75 287.173 389.799C289.222 391.848 292.001 392.999 294.898 392.999H338.6C341.498 392.999 344.277 391.848 346.325 389.799C348.374 387.75 349.525 384.97 349.525 382.072V345.327C357.417 341.585 364.318 336.037 369.668 329.133C375.018 322.229 378.668 314.161 380.322 305.584H404.153C407.05 305.584 409.829 304.433 411.878 302.384C413.927 300.335 415.078 297.555 415.078 294.657V240.023C415.078 237.125 413.927 234.346 411.878 232.296C409.829 230.247 407.05 229.096 404.153 229.096ZM393.227 283.73H361.806C358.471 313.811 352.809 321.815 327.675 330.884V371.145H305.824V338.365H229.346V371.145H207.495V331.567C194.34 325.308 183.241 315.427 175.501 303.084C167.761 290.741 163.7 276.446 163.793 261.877C163.793 209.041 207.693 185.388 251.197 185.388H309.467L338.6 163.535V193.872C365.02 214.188 359.496 228.685 360.651 250.95H393.227V283.73Z" fill="#F1F1F1"></path>
</svg>