<svg width="2136" height="2137" viewBox="0 0 2136 2137" fill="none" xmlns="http://www.w3.org/2000/svg">
<g clip-path="url(#clip0_214_664)">
<mask id="mask0_214_664" style="mask-type:luminance" maskUnits="userSpaceOnUse" x="0" y="0" width="2136" height="2137">
<path d="M2136 0H0V2137H2136V0Z" fill="white"></path>
</mask>
<g mask="url(#mask0_214_664)">
<path d="M2136 0H0V2137H2136V0Z" fill="#270065"></path>
<path d="M1090.76 978.872H1246.64V889.747H1157.57V845.184H1068.49V892.01C1041.47 897.543 1017.47 912.919 1001.13 935.149C984.789 957.383 977.277 984.891 980.049 1012.35C982.82 1039.81 995.678 1065.26 1016.13 1083.77C1036.59 1102.28 1063.18 1112.54 1090.76 1112.56H1135.3C1141.2 1112.56 1146.87 1114.91 1151.04 1119.09C1155.22 1123.26 1157.57 1128.93 1157.57 1134.84C1157.57 1140.75 1155.22 1146.42 1151.04 1150.59C1146.87 1154.77 1141.2 1157.12 1135.3 1157.12H979.422V1246.25H1068.49V1290.81H1157.57V1243.98C1184.58 1238.45 1208.59 1223.07 1224.93 1200.84C1241.27 1178.61 1248.78 1151.1 1246.01 1123.64C1243.24 1096.18 1230.38 1070.73 1209.93 1052.22C1189.47 1033.71 1162.88 1023.45 1135.3 1023.44H1090.76C1084.86 1023.44 1079.19 1021.09 1075.01 1016.91C1070.84 1012.73 1068.49 1007.06 1068.49 1001.15C1068.49 995.242 1070.84 989.578 1075.01 985.398C1079.19 981.216 1084.86 978.872 1090.76 978.872Z" fill="#F1F1F1"></path>
<path d="M1647.47 934.309H1557.51C1556.21 899.106 1547.73 864.538 1532.56 832.749C1517.4 800.959 1495.88 772.619 1469.32 749.488V577.81C1469.32 569.535 1467.02 561.419 1462.67 554.38C1458.32 547.342 1452.1 541.652 1444.7 537.949C1437.31 534.25 1429.02 532.684 1420.78 533.426C1412.55 534.169 1404.68 537.194 1398.06 542.158L1231.79 666.936H1023.97C778.595 666.936 602.506 811.372 580.901 1023.44H578.606C566.798 1023.42 555.477 1018.73 547.129 1010.37C538.776 1002.02 534.081 990.687 534.072 978.872V889.746H445V978.872C445.041 1014.32 459.128 1048.3 484.178 1073.36C509.222 1098.42 543.183 1112.52 578.606 1112.56H581.725C588.185 1170.99 607.169 1227.34 637.371 1277.76C667.576 1328.18 708.295 1371.49 756.75 1404.74V1558.19C756.75 1570.01 761.442 1581.34 769.794 1589.7C778.147 1598.05 789.474 1602.75 801.285 1602.75H979.429C991.242 1602.75 1002.57 1598.05 1010.92 1589.7C1019.27 1581.34 1023.97 1570.01 1023.97 1558.19V1469.06H1157.57V1558.19C1157.57 1570.01 1162.26 1581.34 1170.62 1589.7C1178.97 1598.05 1190.3 1602.75 1202.11 1602.75H1380.25C1392.06 1602.75 1403.39 1598.05 1411.74 1589.7C1420.09 1581.34 1424.78 1570.01 1424.78 1558.19V1408.33C1456.95 1393.07 1485.09 1370.44 1506.89 1342.29C1528.7 1314.13 1543.57 1281.23 1550.33 1246.25H1647.47C1659.27 1246.25 1670.6 1241.55 1678.96 1233.2C1687.31 1224.84 1691.99 1213.5 1691.99 1201.68V978.872C1691.99 967.054 1687.31 955.72 1678.96 947.36C1670.6 939.003 1659.27 934.309 1647.47 934.309ZM1602.93 1157.12H1474.84C1461.25 1279.8 1438.17 1312.44 1335.72 1349.43V1513.62H1246.64V1379.94H934.894V1513.62H845.822V1352.21C792.198 1326.69 746.954 1286.39 715.404 1236.05C683.853 1185.71 667.3 1127.41 667.678 1068C667.678 852.521 846.63 756.058 1023.97 756.058H1261.49L1380.25 666.936V790.658C1487.95 873.51 1465.43 932.633 1470.14 1023.44H1602.93V1157.12Z" fill="#F1F1F1"></path>
</g>
</g>
<defs>
<clipPath id="clip0_214_664">
<rect width="2136" height="2137" fill="white"></rect>
</clipPath>
</defs>
</svg>