<svg width="62" height="62" viewBox="0 0 62 62" fill="none" xmlns="http://www.w3.org/2000/svg">
<rect width="62" height="62" fill="#270065"></rect>
<path d="M20.6299 30.9998C20.6299 32.9089 19.0823 34.4565 17.1732 34.4565C15.2641 34.4565 13.7165 32.9089 13.7165 30.9998C13.7165 29.0907 15.2641 27.5431 17.1732 27.5431C19.0823 27.5431 20.6299 29.0907 20.6299 30.9998ZM20.6299 30.9998H41.3701M41.3701 30.9998C41.3701 32.9089 42.9177 34.4565 44.8268 34.4565C46.7359 34.4565 48.2835 32.9089 48.2835 30.9998C48.2835 29.0907 46.7359 27.5431 44.8268 27.5431C42.9177 27.5431 41.3701 29.0907 41.3701 30.9998ZM41.3701 17.173C41.3701 19.0821 42.9177 20.6297 44.8268 20.6297C46.7359 20.6297 48.2835 19.0821 48.2835 17.173C48.2835 15.2639 46.7359 13.7163 44.8268 13.7163C42.9177 13.7163 41.3701 15.2639 41.3701 17.173ZM41.3701 17.173H31.4321C30.4775 17.173 29.7037 17.9468 29.7037 18.9013V43.0982C29.7037 44.0527 30.4775 44.8266 31.4321 44.8266H41.3701M41.3701 44.8266C41.3701 46.7356 42.9177 48.2832 44.8268 48.2832C46.7359 48.2832 48.2835 46.7356 48.2835 44.8266C48.2835 42.9175 46.7359 41.3699 44.8268 41.3699C42.9177 41.3699 41.3701 42.9175 41.3701 44.8266Z" stroke="#EFE5FF" stroke-width="2" stroke-linecap="round"></path>
</svg>