<svg width="62" height="62" viewBox="0 0 62 62" fill="none" xmlns="http://www.w3.org/2000/svg">
<rect width="62" height="62" fill="#270065"></rect>
<path d="M24.9953 36.9437L24.4946 37.8093L26.2258 38.8107L26.7265 37.9451L25.8609 37.4444L24.9953 36.9437ZM35.2237 38.216L35.7244 39.0816L37.4556 38.0801L36.9549 37.2145L36.0893 37.7152L35.2237 38.216ZM15.1855 20.1817L14.5428 19.4156C14.3457 19.581 14.2199 19.816 14.1916 20.0717L15.1855 20.1817ZM20.0056 17.4434L20.7717 16.8007L19.4863 15.2684L18.7202 15.9111L19.3629 16.6772L20.0056 17.4434ZM47.779 37.8895L47.8896 38.8833L49.8774 38.6621L49.7668 37.6682L48.7729 37.7788L47.779 37.8895ZM46.8145 20.1817L47.8084 20.0711C47.7799 19.8156 47.6542 19.5808 47.4572 19.4156L46.8145 20.1817ZM43.2798 15.9111L42.5137 15.2684L41.2283 16.8007L41.9944 17.4434L42.6371 16.6772L43.2798 15.9111ZM25.629 39.0562H24.629C24.629 41.9646 22.2713 44.3224 19.3629 44.3224V45.3224V46.3224C23.3759 46.3224 26.629 43.0692 26.629 39.0562H25.629ZM19.3629 45.3224V44.3224C16.4545 44.3224 14.0968 41.9646 14.0968 39.0562H13.0968H12.0968C12.0968 43.0692 15.35 46.3224 19.3629 46.3224V45.3224ZM13.0968 39.0562H14.0968C14.0968 36.1478 16.4545 33.7901 19.3629 33.7901V32.7901V31.7901C15.35 31.7901 12.0968 35.0433 12.0968 39.0562H13.0968ZM19.3629 32.7901V33.7901C22.2713 33.7901 24.629 36.1478 24.629 39.0562H25.629H26.629C26.629 35.0433 23.3759 31.7901 19.3629 31.7901V32.7901ZM25.8609 37.4444L26.7265 37.9451C27.6219 36.3972 29.0187 35.5804 31 35.5804V34.5804V33.5804C28.3426 33.5804 26.2668 34.7457 24.9953 36.9437L25.8609 37.4444ZM31 34.5804V35.5804C32.8855 35.5804 34.2768 36.579 35.2237 38.216L36.0893 37.7152L36.9549 37.2145C35.7349 35.1055 33.7533 33.5804 31 33.5804V34.5804ZM48.9032 39.0562H47.9032C47.9032 41.9646 45.5455 44.3224 42.6371 44.3224V45.3224V46.3224C46.65 46.3224 49.9032 43.0692 49.9032 39.0562H48.9032ZM42.6371 45.3224V44.3224C39.7287 44.3224 37.371 41.9646 37.371 39.0562H36.371H35.371C35.371 43.0692 38.6241 46.3224 42.6371 46.3224V45.3224ZM36.371 39.0562H37.371C37.371 36.1478 39.7287 33.7901 42.6371 33.7901V32.7901V31.7901C38.6241 31.7901 35.371 35.0433 35.371 39.0562H36.371ZM42.6371 32.7901V33.7901C45.5455 33.7901 47.9032 36.1478 47.9032 39.0562H48.9032H49.9032C49.9032 35.0433 46.65 31.7901 42.6371 31.7901V32.7901ZM13.0968 39.0562L14.0907 39.1662L16.1794 20.2917L15.1855 20.1817L14.1916 20.0717L12.1029 38.9463L13.0968 39.0562ZM15.1855 20.1817L15.8282 20.9478L20.0056 17.4434L19.3629 16.6772L18.7202 15.9111L14.5428 19.4156L15.1855 20.1817ZM48.7729 37.7788L49.7668 37.6682L47.8084 20.0711L46.8145 20.1817L45.8206 20.2923L47.779 37.8895L48.7729 37.7788ZM46.8145 20.1817L47.4572 19.4156L43.2798 15.9111L42.6371 16.6772L41.9944 17.4434L46.1718 20.9478L46.8145 20.1817Z" fill="#F1F1F1"></path>
</svg>