<svg width="62" height="62" viewBox="0 0 62 62" fill="none" xmlns="http://www.w3.org/2000/svg">
<rect width="62" height="62" fill="#270065"></rect>
<path d="M14.6381 35.2395H35.1229M14.6381 35.2395L35.0177 35.2376C35.053 35.2375 35.0881 35.2382 35.1229 35.2395M14.6381 35.2395L14.6381 42.2343C14.6381 43.1889 15.6054 43.9627 16.7986 43.9627H35.0185C36.2116 43.9627 37.1789 43.1889 37.1789 42.2343V36.9659C37.1789 36.0394 36.2675 35.2831 35.1229 35.2395M14.6381 35.2395L14.6381 26.5138M35.1229 35.2395H45.2014C46.3946 35.2395 47.3619 34.4657 47.3619 33.5112V28.2422C47.3619 27.2876 46.3946 26.5138 45.2014 26.5138M14.6381 26.5138H45.2014M14.6381 26.5138L14.6381 19.7656C14.6381 18.811 15.6054 18.0372 16.7986 18.0372L25.4404 18.0372C26.6336 18.0372 27.6009 18.811 27.6009 19.7656V24.7855C27.6009 25.74 26.6336 26.5138 25.4404 26.5138L45.2014 26.5138M14.6381 48.2836V13.7163" stroke="#EFE5FF" stroke-width="2" stroke-linecap="square"></path>
</svg>