<svg width="1451" height="1451" viewBox="0 0 1451 1451" fill="none" xmlns="http://www.w3.org/2000/svg">
<rect width="1451" height="1451" fill="#270065"></rect>
<path d="M1146.76 635.732C1146.76 592.264 1138.2 549.225 1121.56 509.068C1104.93 468.911 1080.55 432.421 1049.82 401.685C1019.08 370.952 982.59 346.57 942.432 329.938C902.275 313.303 859.236 304.742 815.769 304.742H575.05C503.229 304.742 434.347 333.274 383.561 384.06C332.774 434.847 304.242 503.729 304.242 575.55V665.821C304.242 705.723 320.094 743.988 348.308 772.205C376.523 800.419 414.79 816.268 454.692 816.268H487.792C494.727 850.253 513.192 880.793 540.059 902.727C566.926 924.661 600.547 936.635 635.232 936.629H676.753L797.114 1147.26L849.169 1117.17L728.811 909.85C723.968 900.092 716.57 891.831 707.402 885.95C698.233 880.067 687.641 876.785 676.753 876.45H635.232C611.29 876.45 588.329 866.938 571.399 850.009C554.472 833.082 544.961 810.121 544.961 786.179C544.961 762.24 554.472 739.279 571.399 722.349C588.329 705.419 611.29 695.911 635.232 695.911H665.321V635.732H635.232C600.547 635.723 566.926 647.7 540.059 669.634C513.192 691.565 494.727 722.108 487.792 756.089H454.692C430.75 756.089 407.789 746.581 390.862 729.651C373.933 712.721 364.421 689.76 364.421 665.821V605.639H424.603C448.542 605.639 471.503 596.131 488.433 579.201C505.36 562.271 514.871 539.313 514.871 515.371V485.282H454.692V515.371C454.692 523.351 451.521 531.004 445.879 536.647C440.236 542.292 432.583 545.46 424.603 545.46H366.83C374.058 495.375 399.081 449.564 437.314 416.411C475.551 383.258 524.445 364.98 575.05 364.921H755.59V425.103C755.59 433.082 752.421 440.736 746.776 446.378C741.134 452.021 733.48 455.192 725.5 455.192H665.321V515.371H725.5C749.442 515.371 772.4 505.859 789.33 488.932C806.26 472.003 815.769 449.042 815.769 425.103V364.921C866.141 364.989 915.498 379.107 958.287 405.685C1001.08 432.263 1035.61 470.247 1057.99 515.371H1026.4C1002.46 515.371 979.498 524.883 962.568 541.81C945.641 558.739 936.129 581.7 936.129 605.639V635.732H996.308V605.639C996.308 597.66 999.48 590.006 1005.12 584.364C1010.76 578.721 1018.42 575.55 1026.4 575.55H1079.66C1084.27 595.277 1086.59 615.472 1086.58 635.732V665.821C1086.58 705.723 1070.73 743.988 1042.51 772.205C1014.3 800.419 976.031 816.268 936.129 816.268H845.861V876.45H936.129C967.365 876.408 998.198 869.418 1026.4 855.989V876.45C1026.4 900.39 1016.89 923.35 999.959 940.28C983.029 957.21 960.071 966.718 936.129 966.718H906.04V1026.9H936.129C976.031 1026.9 1014.3 1011.05 1042.51 982.834C1070.73 954.62 1086.58 916.352 1086.58 876.45V812.961C1125.09 773.657 1146.69 720.846 1146.76 665.821V635.732Z" fill="#F1F1F1"></path>
</svg>