<svg width="524" height="525" viewBox="0 0 524 525" fill="none" xmlns="http://www.w3.org/2000/svg">
<rect width="524" height="525" fill="#270065"></rect>
<path d="M254 206.074H233.5V267.63H254V206.074Z" fill="#F1F1F1"></path>
<path d="M202.75 226.593H182.25V267.63H202.75V226.593Z" fill="#F1F1F1"></path>
<path d="M151.5 165.037H131V267.63H151.5V165.037Z" fill="#F1F1F1"></path>
<path d="M418 386.492L340.59 309.012C356.906 289.436 366.75 264.278 366.75 236.852C366.75 174.625 316.17 124 254 124C229.373 124 205.976 131.804 186.337 146.572L198.649 162.978C214.71 150.901 233.851 144.519 254 144.519C304.867 144.519 346.25 185.936 346.25 236.852C346.25 287.768 304.867 329.185 254 329.185C224.712 329.185 197.811 315.725 180.193 292.251L163.802 304.579C185.328 333.253 218.205 349.704 254 349.704C281.401 349.704 306.536 339.851 326.095 323.52L403.505 401L418 386.492Z" fill="#F1F1F1"></path>
</svg>