<svg width="2136" height="2132" viewBox="0 0 2136 2132" fill="none" xmlns="http://www.w3.org/2000/svg">
<g clip-path="url(#clip0_214_186)">
<path d="M2136 0H0V2132H2136V0Z" fill="#270065"></path>
<path d="M694.92 1620.67L443.475 1396.39L502.538 1330.15L752.853 1553.43L1094.1 1223.06C1110 1207.68 1131.23 1199.05 1153.35 1198.98C1175.47 1198.91 1196.75 1207.41 1212.74 1222.69L1373.53 1376.42L1621.09 1111.35L1685.91 1171.95L1438.26 1437.12C1430.26 1445.68 1420.64 1452.57 1409.96 1457.39C1399.28 1462.21 1387.75 1464.86 1376.04 1465.19C1364.33 1465.52 1352.67 1463.52 1341.73 1459.31C1330.79 1455.11 1320.8 1448.77 1312.33 1440.67L1153.64 1288.95L813.475 1618.24C797.672 1633.54 776.666 1642.29 754.676 1642.74C732.685 1643.19 711.341 1635.31 694.92 1620.67Z" fill="#F1F1F1"></path>
<path d="M1685.91 888.377H1508.42L1597.17 755.253L1685.91 888.377Z" fill="#F1F1F1"></path>
<path d="M1330.93 577.756H1153.44V666.506H1330.93V755.253H1197.81V844.003H1330.93V932.75H1153.44V1021.5H1330.93C1354.46 1021.47 1377.01 1012.11 1393.65 995.469C1410.28 978.832 1419.65 956.279 1419.68 932.75V666.506C1419.65 642.977 1410.29 620.416 1393.65 603.779C1377.02 587.142 1354.46 577.784 1330.93 577.756Z" fill="#F1F1F1"></path>
<path d="M1064.7 1021.5H798.457V844.003C798.481 820.47 807.839 797.913 824.476 781.272C841.112 764.635 863.672 755.277 887.201 755.253H975.948V666.506H798.457V577.756H975.948C999.477 577.784 1022.03 587.142 1038.67 603.779C1055.31 620.416 1064.67 642.977 1064.7 666.506V755.253C1064.67 778.782 1055.31 801.339 1038.67 817.976C1022.03 834.617 999.477 843.975 975.948 844.003H887.201V932.75H1064.7V1021.5Z" fill="#F1F1F1"></path>
<path d="M620.966 932.75V577.756H532.218V622.129H443.475V710.88H532.218V932.75H443.475V1021.5H709.714V932.75H620.966Z" fill="#F1F1F1"></path>
</g>
<defs>
<clipPath id="clip0_214_186">
<rect width="2136" height="2132" fill="white"></rect>
</clipPath>
</defs>
</svg>