<svg width="2136" height="2137" viewBox="0 0 2136 2137" fill="none" xmlns="http://www.w3.org/2000/svg">
<g clip-path="url(#clip0_214_672)">
<mask id="mask0_214_672" style="mask-type:luminance" maskUnits="userSpaceOnUse" x="0" y="0" width="2136" height="2137">
<path d="M2136 0H0V2137H2136V0Z" fill="white"></path>
</mask>
<g mask="url(#mask0_214_672)">
<path d="M2136 0H0V2137H2136V0Z" fill="#270065"></path>
<path d="M1389.43 1229.4V1309.75H1493.28L1349.29 1453.81L1257.26 1361.69C1249.73 1354.15 1239.51 1349.92 1228.87 1349.92C1218.22 1349.92 1208 1354.15 1200.47 1361.69L987.875 1574.34L1044.67 1631.15L1228.85 1446.91L1320.88 1539.02C1328.41 1546.57 1338.62 1550.81 1349.28 1550.81C1359.93 1550.81 1370.14 1546.57 1377.67 1539.02L1550.06 1366.56V1470.45H1630.38V1229.4H1389.43Z" fill="#F1F1F1"></path>
<path d="M586.312 1631.15H506V1430.27C506 1275.2 632.093 1149.04 787.092 1149.04H1028.03C1107.88 1149.04 1184.24 1183.2 1237.53 1242.76L1177.69 1296.36C1139.62 1253.81 1085.07 1229.4 1028.03 1229.4H787.092C676.378 1229.4 586.312 1319.51 586.312 1430.27V1631.15Z" fill="#F1F1F1"></path>
<path d="M907.565 1068.7C1062.81 1068.7 1188.66 942.785 1188.66 787.47C1188.66 632.153 1062.81 506.246 907.565 506.246C752.318 506.246 626.469 632.153 626.469 787.47C626.469 942.785 752.318 1068.7 907.565 1068.7ZM907.565 586.595C1018.45 586.595 1108.34 676.529 1108.34 787.47C1108.34 898.413 1018.45 988.348 907.565 988.348C796.672 988.348 706.781 898.413 706.781 787.47C706.912 676.582 796.729 586.722 907.565 586.595Z" fill="#F1F1F1"></path>
<path d="M1475.15 640.052H1631.03V550.926H1541.96V506.363H1452.88V553.189C1425.86 558.724 1401.86 574.099 1385.52 596.329C1369.18 618.565 1361.67 646.071 1364.44 673.531C1367.21 700.989 1380.07 726.438 1400.52 744.953C1420.98 763.464 1447.57 773.725 1475.15 773.736H1519.69C1525.59 773.736 1531.26 776.086 1535.44 780.266C1539.61 784.442 1541.96 790.112 1541.96 796.021C1541.96 801.93 1539.61 807.598 1535.44 811.775C1531.26 815.955 1525.59 818.301 1519.69 818.301H1363.81V907.426H1452.88V951.989H1541.96V905.162C1568.97 899.629 1592.97 884.253 1609.33 862.023C1625.67 839.788 1633.17 812.28 1630.39 784.822C1627.63 757.362 1614.77 731.915 1594.32 713.4C1573.86 694.889 1547.27 684.631 1519.69 684.615H1475.15C1469.25 684.615 1463.58 682.267 1459.41 678.086C1455.23 673.909 1452.88 668.241 1452.88 662.332C1452.88 656.423 1455.23 650.758 1459.41 646.578C1463.58 642.397 1469.25 640.052 1475.15 640.052Z" fill="#F1F1F1"></path>
</g>
</g>
<defs>
<clipPath id="clip0_214_672">
<rect width="2136" height="2137" fill="white"></rect>
</clipPath>
</defs>
</svg>