<svg width="524" height="524" viewBox="0 0 524 524" fill="none" xmlns="http://www.w3.org/2000/svg">
<rect width="524" height="524" fill="#270065"></rect>
<path d="M340.854 301.452V321.154H366.328L331.005 356.479L308.43 333.891C306.582 332.043 304.076 331.004 301.465 331.004C298.853 331.004 296.344 332.043 294.497 333.891L242.344 386.032L256.276 399.963L301.46 354.787L324.036 377.375C325.883 379.222 328.389 380.262 331.003 380.262C333.615 380.262 336.121 379.222 337.968 377.375L380.259 335.085V360.558H399.961V301.452H340.854Z" fill="#F1F1F1"></path>
<path d="M143.833 399.963H124.131V350.707C124.131 312.683 155.064 281.75 193.088 281.75H252.195C271.784 281.75 290.516 290.125 303.588 304.73L288.908 317.872C279.569 307.438 266.187 301.453 252.195 301.453H193.088C165.928 301.453 143.833 323.549 143.833 350.708V399.963Z" fill="#F1F1F1"></path>
<path d="M222.642 262.048C260.726 262.048 291.599 231.174 291.599 193.09C291.599 155.006 260.726 124.133 222.642 124.133C184.557 124.133 153.684 155.006 153.684 193.09C153.684 231.174 184.557 262.048 222.642 262.048ZM222.642 143.835C249.845 143.835 271.897 165.887 271.897 193.09C271.897 220.294 249.845 242.346 222.642 242.346C195.438 242.346 173.386 220.294 173.386 193.09C173.418 165.9 195.452 143.866 222.642 143.835Z" fill="#F1F1F1"></path>
<path d="M349.475 165.969H381.712V184.647H343.632V197.046H381.759V215.92H348.868C353.983 224.422 361.35 229.445 371.376 231.189C381.393 232.929 390.349 229.792 399.411 225.807C402.594 231.439 405.786 237.084 408.946 242.683C408.835 242.891 408.803 243.071 408.696 243.125C388.875 253.346 366.043 254.156 346.714 242.065C337.141 236.074 331.132 227.601 327.162 217.885C326.555 216.4 325.804 215.878 324.043 215.92C319.197 216.037 314.346 215.962 309.319 215.962V197.121H321.982V184.726H309.102V165.969C312.428 165.969 315.713 165.978 318.998 165.969C321.231 165.961 323.946 166.624 325.563 165.719C327.12 164.843 327.542 162.332 328.473 160.542C336.345 145.343 348.961 135.377 367.553 132.331C381.838 129.995 395.26 132.648 407.885 138.91C408.08 139.006 408.219 139.19 408.483 139.415C405.3 145.139 402.108 150.88 398.897 156.654C388.889 151.468 378.696 148.585 367.41 152.177C359.7 154.634 353.835 159.073 349.48 165.965L349.475 165.969Z" fill="#F1F1F1"></path>
</svg>