<svg width="2136" height="2136" viewBox="0 0 2136 2136" fill="none" xmlns="http://www.w3.org/2000/svg">
<g clip-path="url(#clip0_214_209)">
<path d="M2136 0H0V2136H2136V0Z" fill="#270065"></path>
<path d="M1276.04 1520.17L1153.73 1395.02L1087.14 1463.15L1276.04 1656.44L1653.84 1269.86L1587.26 1201.73L1276.04 1520.17Z" fill="#F1F1F1"></path>
<path d="M992.692 1105.09C1044.86 1105.09 1087.14 1061.82 1087.14 1008.44C1087.14 955.068 1044.86 911.799 992.692 911.799C940.529 911.799 898.242 955.068 898.242 1008.44C898.242 1061.82 940.529 1105.09 992.692 1105.09Z" fill="#F1F1F1"></path>
<path d="M992.692 1298.37C936.651 1298.37 881.868 1281.37 835.271 1249.51C788.674 1217.65 752.356 1172.37 730.91 1119.39C709.464 1066.42 703.853 1008.12 714.786 951.88C725.719 895.639 752.706 843.978 792.333 803.431C831.96 762.884 882.449 735.27 937.413 724.083C992.378 712.896 1049.35 718.638 1101.13 740.582C1152.9 762.526 1197.16 799.687 1228.29 847.366C1259.43 895.045 1276.04 951.1 1276.04 1008.44C1275.96 1085.31 1246.08 1159.01 1192.96 1213.36C1139.84 1267.72 1067.82 1298.29 992.692 1298.37ZM992.692 815.156C955.331 815.156 918.809 826.492 887.745 847.731C856.68 868.969 832.468 899.156 818.171 934.475C803.874 969.793 800.133 1008.66 807.421 1046.15C814.71 1083.64 832.701 1118.09 859.119 1145.12C885.538 1172.15 919.197 1190.56 955.84 1198.02C992.483 1205.47 1030.46 1201.65 1064.98 1187.02C1099.5 1172.39 1129 1147.61 1149.76 1115.83C1170.51 1084.04 1181.59 1046.67 1181.59 1008.44C1181.54 957.197 1161.62 908.068 1126.2 871.832C1090.79 835.596 1042.77 815.213 992.692 815.156Z" fill="#F1F1F1"></path>
<path d="M1559.39 1008.44C1559.39 893.757 1526.16 781.647 1463.89 686.289C1401.62 590.932 1313.11 516.61 1209.56 472.722C1106.01 428.833 992.064 417.35 882.134 439.724C772.205 462.098 671.228 517.325 591.974 598.419C512.719 679.514 458.746 782.836 436.88 895.317C415.013 1007.8 426.236 1124.39 469.128 1230.35C512.02 1336.3 584.656 1426.86 677.85 1490.58C771.043 1554.29 880.609 1588.3 992.692 1588.3V1491.66C899.29 1491.66 807.985 1463.32 730.323 1410.22C652.662 1357.13 592.132 1281.66 556.389 1193.36C520.645 1105.07 511.293 1007.91 529.515 914.172C547.737 820.437 592.715 734.336 658.76 666.757C724.806 599.178 808.953 553.156 900.561 534.511C992.169 515.866 1087.12 525.435 1173.42 562.008C1259.71 598.582 1333.46 660.517 1385.36 739.982C1437.25 819.446 1464.94 912.871 1464.94 1008.44H1559.39Z" fill="#F1F1F1"></path>
</g>
<defs>
<clipPath id="clip0_214_209">
<rect width="2136" height="2136" fill="white"></rect>
</clipPath>
</defs>
</svg>