<svg width="2136" height="2136" viewBox="0 0 2136 2136" fill="none" xmlns="http://www.w3.org/2000/svg">
<g clip-path="url(#clip0_214_537)">
<path d="M2136 0H0V2136H2136V0Z" fill="#270065"></path>
<path d="M1328.17 773.81C1322.42 768.065 1315.18 764.033 1307.27 762.17C1299.36 760.298 1291.07 760.676 1283.36 763.248L889.289 894.386C882.844 896.534 876.989 900.155 872.184 904.952C867.379 909.745 863.758 915.591 861.602 922.028L730.248 1315.45C727.673 1323.15 727.298 1331.42 729.166 1339.32C731.033 1347.23 735.069 1354.45 740.822 1360.19C746.571 1365.94 753.813 1369.97 761.731 1371.83C769.648 1373.69 777.924 1373.32 785.642 1370.75L1179.71 1239.61C1186.15 1237.46 1192.01 1233.84 1196.82 1229.05C1201.62 1224.25 1205.25 1218.4 1207.39 1211.97L1338.76 818.54C1341.32 810.842 1341.69 802.575 1339.83 794.677C1337.96 786.776 1333.92 779.551 1328.17 773.81ZM841.015 1260.16L937.757 970.411L1131.27 1163.6L841.015 1260.16Z" fill="#F1F1F1"></path>
<path d="M1034.5 1680C913.366 1680 794.938 1644.07 694.217 1576.77C593.495 1509.47 514.984 1413.81 468.627 1301.89C422.269 1189.97 410.141 1066.82 433.771 948.006C457.406 829.191 515.741 720.052 601.405 634.392C687.06 548.736 796.196 490.401 915.01 466.767C1033.82 443.132 1156.98 455.261 1268.9 501.622C1380.82 547.98 1476.48 626.487 1543.78 727.212C1611.09 827.934 1647 946.354 1647 1067.5C1646.82 1229.88 1582.23 1385.57 1467.4 1500.4C1352.58 1615.23 1196.89 1679.82 1034.5 1680ZM1034.5 542.495C930.666 542.495 829.163 573.286 742.828 630.978C656.493 688.663 589.203 770.657 549.465 866.589C509.732 962.518 499.332 1068.08 519.594 1169.92C539.851 1271.76 589.854 1365.3 663.271 1438.73C736.693 1512.15 830.241 1562.15 932.082 1582.41C1033.92 1602.66 1139.48 1592.27 1235.41 1552.53C1331.34 1512.8 1413.34 1445.51 1471.03 1359.17C1528.71 1272.84 1559.5 1171.33 1559.5 1067.5C1559.35 928.306 1503.98 794.865 1405.56 696.442C1307.14 598.019 1173.69 542.658 1034.5 542.495Z" fill="#F1F1F1"></path>
</g>
<defs>
<clipPath id="clip0_214_537">
<rect width="2136" height="2136" fill="white"></rect>
</clipPath>
</defs>
</svg>