<svg width="2136" height="2136" viewBox="0 0 2136 2136" fill="none" xmlns="http://www.w3.org/2000/svg">
<g clip-path="url(#clip0_214_541)">
<path d="M2136 0H0V2136H2136V0Z" fill="#270065"></path>
<path d="M1399.07 1398.06V1645.99H1647V1398.06H1399.07ZM1564.36 1563.35H1481.71V1480.71H1564.36V1563.35Z" fill="#F1F1F1"></path>
<path d="M490.004 1645.99H737.93V1398.06H490.004V1645.99ZM572.645 1480.71H655.286V1563.35H572.645V1480.71Z" fill="#F1F1F1"></path>
<path d="M1481.71 1026.19H1109.82V771.519C1169.35 753.601 1213.12 698.911 1213.12 633.635C1213.12 553.891 1148.24 489.006 1068.5 489.006C988.766 489.006 923.876 553.891 923.876 633.635C923.876 698.911 967.65 753.601 1027.18 771.519V1026.19H655.285C609.73 1026.19 572.645 1063.26 572.645 1108.83V1315.43H655.285V1108.83H1027.18V1398.07H944.536V1646.01H1192.46V1398.07H1109.82V1108.83H1481.71V1315.43H1564.36V1108.83C1564.36 1063.26 1527.27 1026.19 1481.71 1026.19ZM1006.52 633.635C1006.52 599.451 1034.33 571.646 1068.5 571.646C1102.68 571.646 1130.48 599.451 1130.48 633.635C1130.48 667.811 1102.68 695.616 1068.5 695.616C1034.33 695.616 1006.52 667.811 1006.52 633.635ZM1109.82 1563.36H1027.18V1480.72H1109.82V1563.36Z" fill="#F1F1F1"></path>
<path d="M1502.37 778.257C1582.11 778.257 1647 713.371 1647 633.635C1647 553.891 1582.11 489.006 1502.37 489.006C1422.64 489.006 1357.75 553.891 1357.75 633.635C1357.75 713.371 1422.64 778.257 1502.37 778.257ZM1502.37 571.646C1536.55 571.646 1564.35 599.451 1564.35 633.635C1564.35 667.811 1536.55 695.616 1502.37 695.616C1468.2 695.616 1440.39 667.811 1440.39 633.635C1440.39 599.451 1468.2 571.646 1502.37 571.646Z" fill="#F1F1F1"></path>
<path d="M634.625 778.257C714.365 778.257 779.251 713.371 779.251 633.635C779.251 553.891 714.365 489.006 634.625 489.006C554.889 489.006 490.004 553.891 490.004 633.635C490.004 713.371 554.889 778.257 634.625 778.257ZM634.625 571.646C668.801 571.646 696.61 599.451 696.61 633.635C696.61 667.811 668.801 695.616 634.625 695.616C600.449 695.616 572.645 667.811 572.645 633.635C572.645 599.451 600.449 571.646 634.625 571.646Z" fill="#F1F1F1"></path>
</g>
<defs>
<clipPath id="clip0_214_541">
<rect width="2136" height="2136" fill="white"></rect>
</clipPath>
</defs>
</svg>