<svg width="2136" height="2136" viewBox="0 0 2136 2136" fill="none" xmlns="http://www.w3.org/2000/svg">
<g clip-path="url(#clip0_214_682)">
<path d="M2136 0H0V2136H2136V0Z" fill="#270065"></path>
<path d="M1510.46 1549.65V1067.5H1189.03V1549.65H1028.32V906.789H706.894V1549.65H586.357V505.005H506V1549.65C506 1570.96 514.467 1591.4 529.537 1606.47C544.607 1621.54 565.046 1630 586.357 1630H1631V1549.65H1510.46ZM947.964 1549.65H787.251V987.146H947.964V1549.65ZM1430.11 1549.65H1269.39V1147.86H1430.11V1549.65Z" fill="#F1F1F1"></path>
<path d="M1341.14 987.146C1324.1 987.154 1307.5 981.712 1293.78 971.619L875.808 665.197L756.791 826.432L692.328 778.478L812.107 617.765C824.564 600.991 843.071 589.736 863.693 586.389C884.319 583.043 905.435 587.869 922.56 599.845L1341.27 906.81L1486.1 711.488L1550.65 759.36L1405.82 954.67C1398.33 964.763 1388.57 972.956 1377.34 978.598C1366.11 984.24 1353.71 987.166 1341.14 987.146Z" fill="#F1F1F1"></path>
</g>
<defs>
<clipPath id="clip0_214_682">
<rect width="2136" height="2136" fill="white"></rect>
</clipPath>
</defs>
</svg>