<svg width="524" height="524" viewBox="0 0 524 524" fill="none" xmlns="http://www.w3.org/2000/svg">
<rect width="524" height="524" fill="#270065"></rect>
<path d="M370.544 380.157V261.878H291.692V380.157H252.266V222.452H173.414V380.157H143.844V123.887H124.131V380.157C124.131 385.385 126.208 390.399 129.905 394.096C133.602 397.793 138.616 399.87 143.844 399.87H400.114V380.157H370.544ZM232.553 380.157H193.127V242.165H232.553V380.157ZM350.831 380.157H311.405V281.591H350.831V380.157Z" fill="#F1F1F1"></path>
<path d="M329.005 242.165C324.825 242.167 320.754 240.832 317.387 238.356L214.851 163.185L185.654 202.739L169.84 190.975L199.224 151.549C202.28 147.434 206.82 144.673 211.879 143.852C216.939 143.031 222.119 144.215 226.32 147.153L329.038 222.457L364.566 174.541L380.401 186.285L344.873 234.198C343.035 236.674 340.642 238.684 337.886 240.068C335.13 241.452 332.089 242.17 329.005 242.165Z" fill="#F1F1F1"></path>
</svg>