<svg width="1451" height="1451" viewBox="0 0 1451 1451" fill="none" xmlns="http://www.w3.org/2000/svg">
<g clip-path="url(#clip0_57_113)">
<path d="M1451 0H0V1451H1451V0Z" fill="#270065"></path>
<path d="M978.311 1130L962.956 1147.66C971.761 1155.32 984.864 1155.32 993.668 1147.66L978.311 1130ZM954.908 887.305C954.908 900.231 965.388 910.708 978.311 910.708C991.237 910.708 1001.71 900.231 1001.71 887.305H978.311H954.908ZM1001.71 884.263C1001.71 871.337 991.237 860.86 978.311 860.86C965.388 860.86 954.908 871.337 954.908 884.263H978.311H1001.71ZM715.388 1130V1106.6C504.913 1106.6 334.292 935.979 334.292 725.505H310.889H287.485C287.485 961.828 479.064 1153.41 715.388 1153.41V1130ZM310.889 725.505H334.292C334.292 515.033 504.913 344.409 715.388 344.409V321.006V297.603C479.064 297.603 287.485 489.181 287.485 725.505H310.889ZM715.388 321.006V344.409C875.285 344.409 1012.24 442.892 1068.79 582.6L1090.48 573.817L1112.18 565.036C1048.72 408.262 895.003 297.603 715.388 297.603V321.006ZM361.451 877.193V900.596H479.429V877.193V853.79H361.451V877.193ZM563.7 792.922H587.103V683.37H563.7H540.296V792.922H563.7ZM647.972 599.099V622.503H732.243V599.099V575.696H647.972V599.099ZM816.513 514.829H839.916V371.568H816.513H793.11V514.829H816.513ZM732.243 599.099V622.503C791.708 622.503 839.916 574.294 839.916 514.829H816.513H793.11C793.11 548.445 765.859 575.696 732.243 575.696V599.099ZM563.7 683.37H587.103C587.103 649.753 614.356 622.503 647.972 622.503V599.099V575.696C588.505 575.696 540.296 623.902 540.296 683.37H563.7ZM479.429 877.193V900.596C538.897 900.596 587.103 852.388 587.103 792.922H563.7H540.296C540.296 826.539 513.046 853.79 479.429 853.79V877.193ZM1140.11 883.788H1116.71C1116.71 904.598 1108.58 929.16 1094.25 955.636C1080.09 981.803 1060.91 1007.95 1041.26 1031.45C1021.67 1054.87 1002.02 1075.17 987.228 1089.64C979.849 1096.86 973.715 1102.59 969.455 1106.5C967.326 1108.45 965.666 1109.94 964.557 1110.93C964.002 1111.42 963.586 1111.79 963.314 1112.03C963.179 1112.15 963.08 1112.23 963.022 1112.29C962.991 1112.31 962.97 1112.33 962.959 1112.34C962.954 1112.35 962.961 1112.34 962.959 1112.34C962.961 1112.34 962.956 1112.34 978.311 1130C993.668 1147.66 993.664 1147.67 993.668 1147.66C993.671 1147.66 993.685 1147.65 993.689 1147.65C993.699 1147.64 993.71 1147.63 993.724 1147.62C993.753 1147.59 993.79 1147.56 993.837 1147.52C993.933 1147.43 994.066 1147.32 994.237 1147.17C994.581 1146.87 995.07 1146.43 995.702 1145.87C996.961 1144.75 998.78 1143.11 1001.07 1141.01C1005.66 1136.8 1012.17 1130.72 1019.96 1123.1C1035.51 1107.89 1056.3 1086.42 1077.16 1061.48C1097.96 1036.62 1119.24 1007.81 1135.41 977.913C1151.42 948.334 1163.51 915.738 1163.51 883.788H1140.11ZM978.311 1130C993.668 1112.34 993.671 1112.35 993.673 1112.35C993.671 1112.35 993.678 1112.35 993.673 1112.35C993.661 1112.34 993.633 1112.31 993.603 1112.29C993.544 1112.23 993.446 1112.15 993.31 1112.03C993.039 1111.79 992.622 1111.42 992.068 1110.93C990.956 1109.94 989.299 1108.45 987.169 1106.5C982.91 1102.59 976.776 1096.86 969.397 1089.64C954.608 1075.17 934.952 1054.87 915.364 1031.45C895.712 1007.95 876.535 981.803 862.376 955.636C848.046 929.16 839.916 904.598 839.916 883.788H816.513H793.11C793.11 915.738 805.202 948.334 821.212 977.913C837.389 1007.81 858.665 1036.62 879.461 1061.48C900.322 1086.42 921.116 1107.89 936.665 1123.1C944.454 1130.72 950.962 1136.8 955.552 1141.01C957.845 1143.11 959.663 1144.75 960.923 1145.87C961.554 1146.43 962.044 1146.87 962.385 1147.17C962.558 1147.32 962.692 1147.43 962.785 1147.52C962.835 1147.56 962.872 1147.59 962.9 1147.62C962.914 1147.63 962.926 1147.64 962.935 1147.65C962.94 1147.65 962.954 1147.66 962.956 1147.66C962.961 1147.67 962.956 1147.66 978.311 1130ZM816.513 883.788H839.916C839.916 809.777 901.389 748.908 978.311 748.908V725.505V702.102C876.514 702.102 793.11 782.962 793.11 883.788H816.513ZM978.311 725.505V748.908C1055.23 748.908 1116.71 809.777 1116.71 883.788H1140.11H1163.51C1163.51 782.962 1080.11 702.102 978.311 702.102V725.505ZM978.311 887.305H1001.71V884.263H978.311H954.908V887.305H978.311Z" fill="#F1F1F1"></path>
</g>
<defs>
<clipPath id="clip0_57_113">
<rect width="1451" height="1451" fill="white"></rect>
</clipPath>
</defs>
</svg>