<svg width="2136" height="2140" viewBox="0 0 2136 2140" fill="none" xmlns="http://www.w3.org/2000/svg">
<g clip-path="url(#clip0_214_686)">
<path d="M2136 0H0V2140H2136V0Z" fill="#270065"></path>
<path d="M1572.58 1308.6C1572.58 1289.74 1570.27 1271.36 1566.15 1253.64L1654.99 1219.52L1625.49 1142.56L1534.51 1177.5C1515.88 1147.83 1491.24 1122.29 1462.15 1102.92L1502.12 1013.15L1426.8 979.639L1386.83 1069.46C1367.13 1064.44 1346.61 1061.41 1325.35 1061.41C1304.09 1061.41 1283.57 1064.44 1263.88 1069.46L1223.91 979.639L1148.59 1013.15L1188.55 1102.92C1159.47 1122.29 1134.82 1147.83 1116.2 1177.5L1025.24 1142.56L995.719 1219.52L1084.55 1253.64C1080.43 1271.36 1078.13 1289.74 1078.13 1308.6C1078.13 1326.73 1080.18 1344.37 1083.89 1361.35L995.719 1400.65L1029.24 1475.97L1114.96 1437.73C1133.18 1467.32 1157.24 1492.86 1185.75 1512.48L1148.59 1609.39L1225.55 1638.89L1260.83 1547C1281.43 1552.61 1303.02 1555.83 1325.35 1555.83C1347.69 1555.83 1369.28 1552.61 1389.88 1547L1425.15 1638.89L1502.12 1609.39L1464.95 1512.48C1493.47 1492.86 1517.53 1467.32 1535.74 1437.73L1621.45 1475.97L1654.99 1400.65L1566.81 1361.35C1570.52 1344.37 1572.58 1326.73 1572.58 1308.6ZM1325.35 1473.42C1234.46 1473.42 1160.54 1399.5 1160.54 1308.6C1160.54 1217.71 1234.46 1143.79 1325.35 1143.79C1416.25 1143.79 1490.17 1217.71 1490.17 1308.6C1490.17 1399.5 1416.25 1473.42 1325.35 1473.42Z" fill="#F1F1F1"></path>
<path d="M973.929 1016.1L1034.86 1077.04L1093.13 1018.76L1032.2 957.836C1053.4 928.079 1068.09 893.493 1074.42 856.02H1160.54V773.616H1074.42C1068.09 736.144 1053.4 701.561 1032.2 671.805L1093.13 610.87L1034.86 552.601L973.929 613.532C944.171 592.332 909.584 577.645 872.114 571.323V485.193H789.703V571.323C752.233 577.645 717.645 592.332 687.888 613.532L626.955 552.601L568.684 610.87L629.617 671.805C608.412 701.561 593.725 736.144 587.406 773.616H501.273V856.02H587.406C593.725 893.493 608.412 928.079 629.617 957.836L568.684 1018.76L626.955 1077.04L687.888 1016.1C717.645 1037.3 752.233 1051.99 789.703 1058.31V1144.44H872.114V1058.31C909.584 1051.99 944.171 1037.31 973.929 1016.1ZM666.092 814.81C666.092 723.94 740.012 650.006 830.91 650.006C921.813 650.006 995.729 723.94 995.729 814.81C995.729 905.689 921.813 979.623 830.91 979.623C740.012 979.623 666.092 905.689 666.092 814.81Z" fill="#F1F1F1"></path>
</g>
<defs>
<clipPath id="clip0_214_686">
<rect width="2136" height="2140" fill="white"></rect>
</clipPath>
</defs>
</svg>