<svg width="524" height="525" viewBox="0 0 524 525" fill="none" xmlns="http://www.w3.org/2000/svg">
<rect width="524" height="525" fill="#270065"></rect>
<path d="M385.783 321.036C385.783 316.407 385.217 311.898 384.206 307.552L405.999 299.182L398.762 280.3L376.443 288.872C371.874 281.594 365.829 275.327 358.693 270.576L368.498 248.554L350.02 240.332L340.215 262.368C335.383 261.135 330.349 260.393 325.133 260.393C319.918 260.393 314.884 261.135 310.052 262.368L300.247 240.332L281.769 248.554L291.574 270.576C284.438 275.327 278.393 281.594 273.824 288.872L251.511 280.3L244.268 299.182L266.061 307.552C265.05 311.898 264.484 316.407 264.484 321.036C264.484 325.484 264.989 329.81 265.899 333.975L244.268 343.618L252.492 362.096L273.521 352.715C277.989 359.973 283.892 366.24 290.887 371.052L281.769 394.826L300.651 402.064L309.304 379.522C314.358 380.897 319.655 381.686 325.133 381.686C330.612 381.686 335.909 380.897 340.963 379.522L349.616 402.064L368.498 394.826L359.38 371.052C366.375 366.24 372.278 359.973 376.746 352.715L397.771 362.096L405.999 343.618L384.368 333.975C385.277 329.81 385.783 325.484 385.783 321.036ZM325.133 361.469C302.835 361.469 284.701 343.335 284.701 321.036C284.701 298.737 302.835 280.603 325.133 280.603C347.432 280.603 365.566 298.737 365.566 321.036C365.566 343.335 347.432 361.469 325.133 361.469Z" fill="#F1F1F1"></path>
<path d="M238.922 249.276L253.87 264.226L268.165 249.929L253.217 234.983C258.419 227.683 262.022 219.198 263.574 210.005H284.702V189.789H263.574C262.022 180.596 258.419 172.112 253.217 164.812L268.165 149.863L253.87 135.568L238.922 150.516C231.622 145.315 223.137 141.712 213.945 140.161V119.031H193.728V140.161C184.536 141.712 176.051 145.315 168.751 150.516L153.803 135.568L139.508 149.863L154.456 164.812C149.254 172.112 145.651 180.596 144.101 189.789H122.971V210.005H144.101C145.651 219.198 149.254 227.683 154.456 234.983L139.508 249.929L153.803 264.226L168.751 249.276C176.051 254.477 184.536 258.082 193.728 259.633V280.763H213.945V259.633C223.137 258.082 231.622 254.48 238.922 249.276ZM163.404 199.895C163.404 177.602 181.538 159.464 203.837 159.464C226.137 159.464 244.27 177.602 244.27 199.895C244.27 222.19 226.137 240.328 203.837 240.328C181.538 240.328 163.404 222.19 163.404 199.895Z" fill="#F1F1F1"></path>
</svg>