<svg width="2136" height="2136" viewBox="0 0 2136 2136" fill="none" xmlns="http://www.w3.org/2000/svg">
<g clip-path="url(#clip0_214_548)">
<path d="M2136 0H0V2136H2136V0Z" fill="#270065"></path>
<path d="M1309.27 1465.4C1353.63 1465.4 1389.6 1429.43 1389.6 1385.07C1389.6 1340.7 1353.63 1304.74 1309.27 1304.74C1264.9 1304.74 1228.94 1340.7 1228.94 1385.07C1228.94 1429.43 1264.9 1465.4 1309.27 1465.4Z" fill="#F1F1F1"></path>
<path d="M1621.62 1368.66C1596.8 1305.44 1553.98 1250.89 1498.45 1211.79C1442.93 1172.67 1377.16 1150.71 1309.28 1148.62C1241.39 1150.71 1175.61 1172.67 1120.09 1211.79C1064.57 1250.89 1021.75 1305.44 996.924 1368.66L987.965 1389.6L996.924 1410.55C1021.75 1473.77 1064.57 1528.31 1120.09 1567.43C1175.61 1606.54 1241.39 1628.5 1309.28 1630.59C1377.16 1628.5 1442.93 1606.54 1498.45 1567.43C1553.98 1528.31 1596.8 1473.77 1621.62 1410.55L1630.58 1389.6L1621.62 1368.66ZM1309.28 1550.26C1277.5 1550.26 1246.44 1540.83 1220.02 1523.18C1193.6 1505.53 1173.01 1480.44 1160.85 1451.08C1148.69 1421.73 1145.51 1389.43 1151.7 1358.26C1157.9 1327.1 1173.2 1298.47 1195.67 1276.01C1218.14 1253.54 1246.77 1238.24 1277.93 1232.04C1309.09 1225.84 1341.4 1229.02 1370.76 1241.18C1400.11 1253.34 1425.2 1273.93 1442.86 1300.35C1460.51 1326.77 1469.93 1357.83 1469.93 1389.6C1469.88 1432.2 1452.94 1473.03 1422.82 1503.15C1392.7 1533.27 1351.87 1550.22 1309.28 1550.26Z" fill="#F1F1F1"></path>
<path d="M1429.76 827.303H586.326C565.027 827.283 544.607 818.812 529.549 803.75C514.491 788.693 506.021 768.277 505.996 746.978V586.322C506.021 565.027 514.491 544.607 529.549 529.549C544.607 514.491 565.027 506.021 586.326 505.996H1429.76C1451.06 506.021 1471.48 514.491 1486.53 529.549C1501.6 544.607 1510.07 565.027 1510.09 586.322V746.978C1510.07 768.277 1501.6 788.693 1486.53 803.75C1471.48 818.812 1451.06 827.283 1429.76 827.303ZM586.326 586.322V746.978H1429.76V586.322H586.326Z" fill="#F1F1F1"></path>
<path d="M907.633 1550.25H586.326V1389.6H907.633V1309.27H586.326C565.027 1309.29 544.611 1317.77 529.553 1332.82C514.491 1347.89 506.021 1368.3 505.996 1389.6V1550.25C506.021 1571.55 514.491 1591.97 529.553 1607.02C544.611 1622.08 565.027 1630.55 586.326 1630.58H907.633V1550.25Z" fill="#F1F1F1"></path>
<path d="M1550.25 907.641H706.818C685.519 907.666 665.103 916.136 650.045 931.194C634.988 946.256 626.517 966.672 626.488 987.967V1148.63C626.517 1169.92 634.988 1190.34 650.045 1205.4C665.103 1220.45 685.519 1228.92 706.818 1228.95H907.639V1148.63H706.818V987.967H1550.25L1550.28 1068.3H1630.58V987.967C1630.56 966.672 1622.09 946.256 1607.02 931.194C1591.97 916.136 1571.55 907.666 1550.25 907.641Z" fill="#F1F1F1"></path>
</g>
<defs>
<clipPath id="clip0_214_548">
<rect width="2136" height="2136" fill="white"></rect>
</clipPath>
</defs>
</svg>