<svg width="2136" height="2140" viewBox="0 0 2136 2140" fill="none" xmlns="http://www.w3.org/2000/svg">
<g clip-path="url(#clip0_214_690)">
<mask id="mask0_214_690" style="mask-type:luminance" maskUnits="userSpaceOnUse" x="0" y="0" width="2136" height="2140">
<path d="M2136 0H0V2140H2136V0Z" fill="white"></path>
</mask>
<g mask="url(#mask0_214_690)">
<path d="M2136 0H0V2140H2136V0Z" fill="#270065"></path>
<path d="M1234.55 1755.71H1110.56C1088.64 1755.7 1067.62 1746.98 1052.13 1731.49C1036.63 1715.99 1027.91 1694.99 1027.89 1673.07V1466.49H1110.56V1673.07H1234.55V1466.49H1317.22V1348.18C1317.21 1337.23 1312.85 1326.73 1305.1 1318.98C1297.35 1311.23 1286.84 1306.87 1275.89 1306.86H915.429L832.765 1058.95H573.221C562.259 1058.96 551.756 1063.32 544.006 1071.07C536.256 1078.81 531.899 1089.32 531.887 1100.27V1348.18H614.555V1673.07H779.888V1430.82H862.555V1673.07C862.531 1694.99 853.815 1715.99 838.317 1731.49C822.819 1746.98 801.806 1755.7 779.888 1755.71H614.555C592.636 1755.7 571.623 1746.98 556.124 1731.49C540.626 1715.99 531.912 1694.99 531.887 1673.07V1430.82C509.968 1430.79 488.954 1422.08 473.456 1406.59C457.958 1391.1 449.244 1370.09 449.219 1348.18V1100.27C449.255 1067.41 462.333 1035.9 485.579 1012.66C508.827 989.42 540.346 976.352 573.221 976.315H832.765C850.119 976.299 867.035 981.754 881.115 991.894C895.195 1002.04 905.719 1016.35 911.194 1032.81L975.009 1224.23H1275.89C1308.76 1224.26 1340.28 1237.33 1363.53 1260.57C1386.78 1283.81 1399.85 1315.32 1399.89 1348.18V1466.49C1399.86 1488.4 1391.15 1509.4 1375.65 1524.89C1360.15 1540.39 1339.14 1549.11 1317.22 1549.12V1673.07C1317.2 1694.99 1308.48 1715.99 1292.98 1731.49C1277.48 1746.98 1256.47 1755.7 1234.55 1755.71Z" fill="#F1F1F1"></path>
<path d="M1565.23 1759.12H1482.56V1348.18H1606.55V1100.27C1606.55 1089.32 1602.19 1078.81 1594.44 1071.07C1586.69 1063.32 1576.18 1058.96 1565.23 1058.95H1399.89V976.315H1565.23C1598.1 976.352 1629.62 989.42 1652.87 1012.66C1676.11 1035.9 1689.19 1067.41 1689.22 1100.27V1348.18C1689.2 1370.09 1680.48 1391.1 1664.98 1406.59C1649.49 1422.08 1628.47 1430.79 1606.55 1430.82H1565.23V1759.12Z" fill="#F1F1F1"></path>
<path d="M697.223 934.995C664.523 934.995 632.56 925.302 605.372 907.143C578.182 888.982 556.989 863.169 544.474 832.968C531.965 802.767 528.687 769.538 535.067 737.48C541.446 705.416 557.193 675.968 580.318 652.853C603.438 629.741 632.899 613.999 664.971 607.623C697.039 601.245 730.283 604.518 760.497 617.027C790.706 629.537 816.526 650.721 834.693 677.901C852.861 705.077 862.559 737.035 862.559 769.722C862.511 813.541 845.072 855.549 814.08 886.532C783.082 917.515 741.06 934.945 697.223 934.995ZM697.223 687.085C680.873 687.085 664.893 691.932 651.299 701.009C637.705 710.091 627.106 722.996 620.849 738.099C614.592 753.196 612.957 769.811 616.146 785.842C619.337 801.875 627.209 816.598 638.768 828.154C650.333 839.709 665.061 847.581 681.098 850.769C697.133 853.96 713.753 852.322 728.86 846.069C743.966 839.812 756.876 829.222 765.958 815.632C775.045 802.042 779.891 786.063 779.891 769.722C779.867 747.813 771.152 726.807 755.654 711.314C740.155 695.82 719.142 687.106 697.223 687.085Z" fill="#F1F1F1"></path>
<path d="M1441.22 934.995C1408.52 934.995 1376.56 925.302 1349.37 907.143C1322.18 888.982 1300.99 863.169 1288.48 832.968C1275.96 802.767 1272.69 769.538 1279.07 737.48C1285.45 705.416 1301.19 675.968 1324.31 652.853C1347.44 629.741 1376.9 613.999 1408.97 607.623C1441.04 601.245 1474.28 604.518 1504.5 617.027C1534.71 629.537 1560.53 650.721 1578.69 677.901C1596.87 705.077 1606.55 737.035 1606.55 769.722C1606.51 813.541 1589.07 855.549 1558.08 886.532C1527.09 917.515 1485.06 934.945 1441.22 934.995ZM1441.22 687.085C1424.87 687.085 1408.89 691.932 1395.3 701.009C1381.7 710.091 1371.11 722.996 1364.85 738.099C1358.59 753.196 1356.96 769.811 1360.15 785.842C1363.34 801.875 1371.21 816.598 1382.77 828.154C1394.33 839.709 1409.06 847.581 1425.1 850.769C1441.13 853.96 1457.75 852.322 1472.86 846.069C1487.97 839.812 1500.87 829.222 1509.96 815.632C1519.04 802.042 1523.89 786.063 1523.89 769.722C1523.87 747.813 1515.15 726.807 1499.65 711.314C1484.15 695.82 1463.14 687.106 1441.22 687.085Z" fill="#F1F1F1"></path>
<path d="M1172.55 1182.91C1143.94 1182.91 1115.97 1174.43 1092.18 1158.53C1068.39 1142.64 1049.84 1120.06 1038.9 1093.63C1027.95 1067.21 1025.08 1038.13 1030.66 1010.08C1036.25 982.027 1050.02 956.26 1070.25 936.034C1090.49 915.808 1116.26 902.035 1144.33 896.455C1172.39 890.874 1201.48 893.741 1227.91 904.684C1254.35 915.629 1276.94 934.167 1292.84 957.948C1308.73 981.729 1317.22 1009.69 1317.22 1038.29C1317.17 1076.63 1301.92 1113.39 1274.8 1140.5C1247.68 1167.61 1210.9 1182.86 1172.55 1182.91ZM1172.55 976.316C1160.29 976.316 1148.3 979.947 1138.1 986.759C1127.91 993.571 1119.97 1003.25 1115.27 1014.57C1110.58 1025.9 1109.35 1038.36 1111.74 1050.38C1114.14 1062.4 1120.04 1073.45 1128.71 1082.12C1137.38 1090.78 1148.43 1096.69 1160.46 1099.08C1172.48 1101.47 1184.95 1100.24 1196.28 1095.55C1207.61 1090.86 1217.29 1082.92 1224.1 1072.73C1230.92 1062.53 1234.55 1050.55 1234.55 1038.29C1234.53 1021.86 1228 1006.11 1216.37 994.488C1204.75 982.871 1188.99 976.332 1172.55 976.316Z" fill="#F1F1F1"></path>
<path d="M1047.71 515.311H1203.58V426.183H1114.51V381.619H1025.44V428.446C998.417 433.981 974.416 449.356 958.074 471.587C941.736 493.823 934.222 521.331 936.995 548.791C939.767 576.25 952.624 601.7 973.079 620.215C993.534 638.727 1020.13 648.988 1047.71 649H1092.24C1098.15 649 1103.81 651.35 1107.99 655.53C1112.16 659.706 1114.51 665.376 1114.51 671.285C1114.51 677.194 1112.16 682.863 1107.99 687.04C1103.81 691.22 1098.15 693.565 1092.24 693.565H936.367V782.694H1025.44V827.258H1114.51V780.429C1141.53 774.896 1165.53 759.519 1181.88 737.289C1198.21 715.054 1205.73 687.545 1202.96 660.086C1200.18 632.625 1187.32 607.177 1166.87 588.661C1146.42 570.15 1119.82 559.892 1092.24 559.876H1047.71C1041.8 559.876 1036.14 557.527 1031.96 553.347C1027.79 549.17 1025.44 543.501 1025.44 537.592C1025.44 531.683 1027.79 526.017 1031.96 521.837C1036.14 517.657 1041.8 515.311 1047.71 515.311Z" fill="#F1F1F1"></path>
</g>
</g>
<defs>
<clipPath id="clip0_214_690">
<rect width="2136" height="2140" fill="white"></rect>
</clipPath>
</defs>
</svg>