<svg width="524" height="525" viewBox="0 0 524 525" fill="none" xmlns="http://www.w3.org/2000/svg">
<rect width="524" height="525" fill="#270065"></rect>
<path d="M302.559 409.48H272.14C266.763 409.475 261.608 407.337 257.806 403.536C254.004 399.735 251.866 394.582 251.86 389.207V338.524H272.14V389.207H302.559V338.524H322.839V297.978C322.836 295.29 321.766 292.714 319.866 290.814C317.965 288.913 315.387 287.844 312.699 287.841H224.272L203.993 227.022H140.322C137.633 227.025 135.056 228.094 133.155 229.994C131.254 231.894 130.185 234.471 130.182 237.158V297.978H150.462V389.207H191.021V318.251H211.301V389.207C211.295 394.582 209.157 399.735 205.355 403.536C201.553 407.337 196.398 409.475 191.021 409.48H150.462C145.085 409.475 139.93 407.337 136.128 403.536C132.326 399.735 130.188 394.582 130.182 389.207V318.251C124.805 318.245 119.65 316.108 115.848 312.307C112.046 308.506 109.908 303.353 109.902 297.978V237.158C109.911 229.096 113.119 221.366 118.822 215.665C124.525 209.964 132.257 206.758 140.322 206.749H203.993C208.25 206.745 212.4 208.083 215.854 210.571C219.308 213.059 221.89 216.571 223.233 220.609L238.888 267.568H312.699C320.764 267.577 328.496 270.784 334.199 276.485C339.902 282.186 343.109 289.915 343.118 297.978V338.524C343.113 343.899 340.974 349.053 337.172 352.853C333.37 356.654 328.215 358.792 322.839 358.797V389.207C322.833 394.582 320.695 399.735 316.893 403.536C313.091 407.337 307.936 409.475 302.559 409.48Z" fill="#F1F1F1"></path>
<path d="M383.678 409.48H363.398V297.978H393.817V237.158C393.815 234.471 392.745 231.894 390.844 229.994C388.943 228.094 386.366 227.025 383.678 227.022H343.118V206.749H383.678C391.743 206.758 399.475 209.964 405.178 215.665C410.881 221.366 414.088 229.096 414.097 237.158V297.978C414.091 303.353 411.953 308.506 408.151 312.307C404.349 316.108 399.194 318.245 393.817 318.251H383.678V409.48Z" fill="#F1F1F1"></path>
<path d="M170.741 196.612C162.719 196.612 154.878 194.234 148.208 189.779C141.538 185.324 136.339 178.991 133.269 171.582C130.2 164.173 129.396 156.021 130.961 148.156C132.526 140.29 136.389 133.066 142.062 127.395C147.734 121.725 154.961 117.863 162.829 116.299C170.696 114.734 178.851 115.537 186.263 118.606C193.674 121.675 200.008 126.872 204.465 133.54C208.922 140.207 211.301 148.047 211.301 156.066C211.289 166.816 207.011 177.122 199.408 184.723C191.804 192.324 181.495 196.6 170.741 196.612ZM170.741 135.793C166.73 135.793 162.809 136.982 159.475 139.209C156.14 141.437 153.54 144.603 152.005 148.308C150.47 152.012 150.069 156.088 150.851 160.021C151.634 163.954 153.565 167.566 156.401 170.401C159.238 173.236 162.851 175.167 166.785 175.949C170.719 176.732 174.796 176.33 178.502 174.796C182.208 173.261 185.375 170.663 187.603 167.329C189.832 163.995 191.021 160.075 191.021 156.066C191.015 150.691 188.877 145.538 185.075 141.737C181.273 137.936 176.118 135.798 170.741 135.793Z" fill="#F1F1F1"></path>
<path d="M353.258 196.612C345.236 196.612 337.395 194.234 330.725 189.779C324.055 185.324 318.856 178.991 315.786 171.582C312.716 164.173 311.913 156.021 313.478 148.156C315.043 140.29 318.906 133.066 324.578 127.395C330.251 121.725 337.478 117.863 345.345 116.299C353.213 114.734 361.368 115.537 368.78 118.606C376.191 121.675 382.525 126.872 386.982 133.54C391.439 140.207 393.817 148.047 393.817 156.066C393.805 166.816 389.528 177.122 381.925 184.723C374.321 192.324 364.011 196.6 353.258 196.612ZM353.258 135.793C349.247 135.793 345.326 136.982 341.991 139.209C338.656 141.437 336.057 144.603 334.522 148.308C332.987 152.012 332.586 156.088 333.368 160.021C334.151 163.954 336.082 167.566 338.918 170.401C341.754 173.236 345.368 175.167 349.302 175.949C353.236 176.732 357.313 176.33 361.019 174.796C364.724 173.261 367.892 170.663 370.12 167.329C372.348 163.995 373.538 160.075 373.538 156.066C373.532 150.691 371.394 145.538 367.592 141.737C363.79 137.936 358.635 135.798 353.258 135.793Z" fill="#F1F1F1"></path>
<path d="M287.349 257.432C280.33 257.432 273.469 255.351 267.632 251.452C261.796 247.554 257.247 242.013 254.561 235.53C251.875 229.048 251.172 221.914 252.542 215.032C253.911 208.15 257.291 201.829 262.255 196.867C267.218 191.905 273.541 188.526 280.426 187.157C287.31 185.788 294.446 186.491 300.93 189.176C307.415 191.861 312.958 196.409 316.858 202.243C320.757 208.077 322.839 214.937 322.839 221.954C322.828 231.36 319.085 240.377 312.432 247.028C305.779 253.679 296.758 257.421 287.349 257.432ZM287.349 206.749C284.341 206.749 281.4 207.64 278.899 209.311C276.398 210.982 274.449 213.357 273.297 216.135C272.146 218.913 271.845 221.97 272.432 224.92C273.019 227.869 274.467 230.579 276.594 232.705C278.722 234.831 281.432 236.28 284.382 236.866C287.332 237.453 290.391 237.152 293.17 236.001C295.949 234.85 298.324 232.901 299.996 230.401C301.667 227.901 302.559 224.961 302.559 221.954C302.554 217.922 300.951 214.058 298.099 211.207C295.248 208.357 291.382 206.753 287.349 206.749Z" fill="#F1F1F1"></path>
</svg>