<svg width="2136" height="2136" viewBox="0 0 2136 2136" fill="none" xmlns="http://www.w3.org/2000/svg">
<g clip-path="url(#clip0_214_555)">
<path d="M2136 0H0V2136H2136V0Z" fill="#270065"></path>
<path d="M1440.93 1116.2L1531.84 1288.44L1726.2 1316.17L1583.57 1441.89L1620.18 1628L1440.93 1523.31L1261.68 1628L1298.29 1441.89L1155.66 1316.17L1355.35 1288.44L1440.93 1116.2Z" fill="#F1F1F1"></path>
<path d="M888.162 1077.55H600.566V1154.86H888.162V1077.55Z" fill="#F1F1F1"></path>
<path d="M1058.24 887.364H600.566V980.135H1058.24V887.364Z" fill="#F1F1F1"></path>
<path d="M1058.24 697.186H600.566V789.962H1058.24V697.186Z" fill="#F1F1F1"></path>
<path d="M1068.3 1534.58H504.371V600.415H1632.22V1067.5H1726.21V600.415C1726.21 575.642 1716.34 551.877 1698.67 534.358C1681.09 516.843 1657.12 506.997 1632.22 506.997H504.371C479.447 506.997 455.536 516.843 437.911 534.358C420.29 551.877 410.383 575.642 410.383 600.415V1534.58C410.383 1559.34 420.29 1583.16 437.911 1600.63C455.536 1618.19 479.447 1628 504.371 1628H1068.3V1534.58Z" fill="#F1F1F1"></path>
</g>
<defs>
<clipPath id="clip0_214_555">
<rect width="2136" height="2136" fill="white"></rect>
</clipPath>
</defs>
</svg>