<svg width="1457" height="1457" viewBox="0 0 1457 1457" fill="none" xmlns="http://www.w3.org/2000/svg">
<g clip-path="url(#clip0_206_80)">
<path d="M1457 0H0V1457H1457V0Z" fill="#270065"></path>
<path d="M1051.62 728.5V705H1004.62V728.5H1028.12H1051.62ZM988.563 557.852C997.74 548.673 997.74 533.795 988.563 524.616C979.386 515.44 964.506 515.44 955.329 524.616L971.946 541.233L988.563 557.852ZM709.773 803.406L693.156 820.023C702.333 829.2 717.213 829.2 726.39 820.023L709.773 803.406ZM651.483 711.883L634.867 695.266L601.633 728.5L618.25 745.117L634.867 728.5L651.483 711.883ZM849.292 480.121L870.417 490.417L891.005 448.166L869.881 437.871L859.585 458.995L849.292 480.121ZM728.5 428.875V405.375C550.043 405.375 405.375 550.043 405.375 728.5H428.875H452.375C452.375 576.001 576.001 452.375 728.5 452.375V428.875ZM728.5 1028.12V1051.62C906.957 1051.62 1051.62 906.957 1051.62 728.5H1028.12H1004.62C1004.62 880.999 880.999 1004.62 728.5 1004.62V1028.12ZM428.875 728.5H405.375C405.375 906.957 550.043 1051.62 728.5 1051.62V1028.12V1004.62C576.001 1004.62 452.375 880.999 452.375 728.5H428.875ZM709.773 803.406L726.39 820.023L988.563 557.852L971.946 541.233L955.329 524.616L693.156 786.789L709.773 803.406ZM634.867 728.5L618.25 745.117L693.156 820.023L709.773 803.406L726.39 786.789L651.483 711.883L634.867 728.5ZM859.585 458.995L869.881 437.871C827.148 417.047 779.154 405.375 728.5 405.375V428.875V452.375C771.865 452.375 812.832 462.355 849.292 480.121L859.585 458.995Z" fill="#F1F1F1"></path>
</g>
<defs>
<clipPath id="clip0_206_80">
<rect width="1457" height="1457" fill="white"></rect>
</clipPath>
</defs>
</svg>