<svg width="1451" height="1451" viewBox="0 0 1451 1451" fill="none" xmlns="http://www.w3.org/2000/svg">
<g clip-path="url(#clip0_185_74)">
<path d="M1451 0H0V1451H1451V0Z" fill="#270065"></path>
<path d="M850.5 668.369L769.562 587.437L725.5 631.5L850.5 756.5L1038 569L993.938 524.937L850.5 668.369Z" fill="#F1F1F1"></path>
<path d="M538 756.5H475.5V819H538V756.5Z" fill="#F1F1F1"></path>
<path d="M600.5 475.25H444.25V537.75H569.25V600.25H475.5V694H538V662.75H600.5C617.756 662.75 631.75 648.756 631.75 631.5V506.5C631.75 489.244 617.756 475.25 600.5 475.25Z" fill="#F1F1F1"></path>
<path d="M779.744 1131.5L725.5 1100.25L850.5 881.5H1038C1072.6 881.5 1100.5 853.606 1100.5 819V444C1100.5 409.394 1072.6 381.5 1038 381.5H413C378.403 381.5 350.5 409.394 350.5 444V819C350.5 853.606 378.403 881.5 413 881.5H694.25V944H413C343.959 944 288 888.063 288 819V444C288 374.909 343.959 319 413 319H1038C1107.04 319 1163 374.909 1163 444V819C1163 888.063 1107.04 944 1038 944H886.894L779.744 1131.5Z" fill="#F1F1F1"></path>
</g>
<defs>
<clipPath id="clip0_185_74">
<rect width="1451" height="1451" fill="white"></rect>
</clipPath>
</defs>
</svg>