<svg width="2136" height="2136" viewBox="0 0 2136 2136" fill="none" xmlns="http://www.w3.org/2000/svg">
<g clip-path="url(#clip0_214_223)">
<path d="M2136 0H0V2136H2136V0Z" fill="#270065"></path>
<path d="M777.65 961.252C777.65 851.714 704.847 814.342 607.776 814.342H454.506V1320.15H527.309V1114.61H603.944L711.872 1320.15H793.616L677.386 1104.3C737.417 1084.97 777.65 1037.93 777.65 960.608V961.252ZM527.309 876.843H598.835C667.807 876.843 705.486 898.751 705.486 961.252C705.486 1023.75 667.807 1052.75 598.835 1052.75H527.309V876.843Z" fill="#F1F1F1"></path>
<path d="M1038.85 805.32C930.28 805.32 854.922 900.039 854.922 1065.63C854.922 1231.23 930.28 1330.46 1038.85 1330.46C1147.41 1330.46 1222.77 1233.81 1222.77 1065.63C1222.77 897.461 1147.41 805.32 1038.85 805.32ZM1038.85 1262.16C973.067 1262.16 929.641 1189.99 929.641 1065.63C929.641 941.277 973.067 873.621 1038.85 873.621C1104.62 873.621 1148.05 943.854 1148.05 1065.63C1148.05 1187.42 1104.62 1262.16 1038.85 1262.16Z" fill="#F1F1F1"></path>
<path d="M1624.47 880.065V814.342H1320.48V880.065H1436.07V1255.07H1320.48V1320.8H1624.47V1255.07H1508.88V880.065H1624.47Z" fill="#F1F1F1"></path>
</g>
<defs>
<clipPath id="clip0_214_223">
<rect width="2136" height="2136" fill="white"></rect>
</clipPath>
</defs>
</svg>