<svg width="2136" height="2136" viewBox="0 0 2136 2136" fill="none" xmlns="http://www.w3.org/2000/svg">
<g clip-path="url(#clip0_214_578)">
<path d="M2136 0H0V2136H2136V0Z" fill="#270065"></path>
<path d="M1557.43 741.339V618.842C1557.43 608.012 1553.14 597.625 1545.48 589.963C1537.84 582.31 1527.46 578.006 1516.65 578.006H1271.93C1261.11 578.006 1250.74 582.31 1243.09 589.963C1235.44 597.625 1231.15 608.012 1231.15 618.842V741.339C1209.51 741.339 1188.76 749.944 1173.47 765.258C1158.17 780.572 1149.57 801.346 1149.57 823.007V904.676H986.429V823.007C986.429 801.346 977.84 780.572 962.538 765.258C947.24 749.944 926.491 741.339 904.858 741.339V618.842C904.858 608.012 900.566 597.625 892.913 589.963C885.26 582.31 874.893 578.006 864.075 578.006H619.358C608.54 578.006 598.165 582.31 590.52 589.963C582.867 597.625 578.571 608.012 578.571 618.842V741.339C556.934 741.339 536.188 749.944 520.891 765.258C505.597 780.572 497 801.346 497 823.007V1313.01C497.085 1327.26 500.898 1341.24 508.05 1353.56C515.207 1365.88 525.46 1376.12 537.783 1383.24V1517.17C537.783 1528.01 542.084 1538.39 549.733 1546.05C557.378 1553.71 567.752 1558.01 578.571 1558.01H904.858C915.672 1558.01 926.047 1553.71 933.7 1546.05C941.349 1538.39 945.641 1528.01 945.641 1517.17V1383.24C957.969 1376.12 968.222 1365.88 975.379 1353.56C982.535 1341.24 986.343 1327.26 986.429 1313.01V1231.34H1149.57V1313.01C1149.66 1327.26 1153.47 1341.24 1160.63 1353.56C1167.78 1365.88 1178.03 1376.12 1190.36 1383.24V1517.17C1190.36 1528.01 1194.65 1538.39 1202.3 1546.05C1209.96 1553.71 1220.33 1558.01 1231.15 1558.01H1557.43C1568.25 1558.01 1578.63 1553.71 1586.27 1546.05C1593.92 1538.39 1598.22 1528.01 1598.22 1517.17V1383.24C1610.55 1376.12 1620.8 1365.88 1627.95 1353.56C1635.11 1341.24 1638.91 1327.26 1639 1313.01V823.007C1639 801.346 1630.41 780.572 1615.11 765.258C1599.81 749.944 1579.07 741.339 1557.43 741.339ZM864.075 1476.34H619.358V1394.68H864.075V1476.34ZM904.858 1313.01H578.571V823.007H660.142V659.674H823.287V823.007H904.858V1313.01ZM986.429 1149.67V986.344H1149.57V1149.67H986.429ZM1516.65 1476.34H1271.93V1394.68H1516.65V1476.34ZM1557.43 1313.01H1231.15V823.007H1312.72V659.674H1475.86V823.007H1557.43V1313.01Z" fill="#F1F1F1"></path>
</g>
<defs>
<clipPath id="clip0_214_578">
<rect width="2136" height="2136" fill="white"></rect>
</clipPath>
</defs>
</svg>