<svg width="62" height="62" viewBox="0 0 62 62" fill="none" xmlns="http://www.w3.org/2000/svg">
<rect width="62" height="62" fill="#270065"></rect>
<path d="M44.75 31V30H42.75V31H43.75H44.75ZM42.0665 23.7384C42.457 23.3478 42.457 22.7147 42.0665 22.3241C41.676 21.9336 41.0428 21.9336 40.6523 22.3241L41.3594 23.0312L42.0665 23.7384ZM30.2031 34.1875L29.496 34.8946C29.8865 35.2851 30.5197 35.2851 30.9102 34.8946L30.2031 34.1875ZM27.7227 30.2929L27.0156 29.5858L25.6014 31L26.3085 31.7071L27.0156 31L27.7227 30.2929ZM36.1401 20.4307L37.039 20.8688L37.9151 19.0709L37.0162 18.6328L36.5781 19.5317L36.1401 20.4307ZM31 18.25V17.25C23.4061 17.25 17.25 23.4061 17.25 31H18.25H19.25C19.25 24.5107 24.5107 19.25 31 19.25V18.25ZM31 43.75V44.75C38.5939 44.75 44.75 38.5939 44.75 31H43.75H42.75C42.75 37.4893 37.4893 42.75 31 42.75V43.75ZM18.25 31H17.25C17.25 38.5939 23.4061 44.75 31 44.75V43.75V42.75C24.5107 42.75 19.25 37.4893 19.25 31H18.25ZM30.2031 34.1875L30.9102 34.8946L42.0665 23.7384L41.3594 23.0312L40.6523 22.3241L29.496 33.4804L30.2031 34.1875ZM27.0156 31L26.3085 31.7071L29.496 34.8946L30.2031 34.1875L30.9102 33.4804L27.7227 30.2929L27.0156 31ZM36.5781 19.5317L37.0162 18.6328C35.1978 17.7467 33.1555 17.25 31 17.25V18.25V19.25C32.8453 19.25 34.5886 19.6747 36.1401 20.4307L36.5781 19.5317Z" fill="#F1F1F1"></path>
</svg>