<svg width="62" height="62" viewBox="0 0 62 62" fill="none" xmlns="http://www.w3.org/2000/svg">
<rect width="62" height="62" fill="#270065"></rect>
<rect width="42" height="42" transform="translate(10 10)" fill="white" fill-opacity="0.01"></rect>
<path d="M23.125 31.0001C23.1228 32.4456 23.5191 33.8637 24.2703 35.0986C25.0216 36.3336 26.0987 37.3375 27.3834 38.0002C28.6681 38.6628 30.1106 38.9585 31.5523 38.8548C32.9941 38.751 34.3794 38.2518 35.5559 37.412L42.269 44.1251L44.125 42.269L37.4116 35.556C38.1293 34.5462 38.5985 33.3813 38.7811 32.156C38.9637 30.9307 38.8545 29.6795 38.4624 28.5044C38.0702 27.3292 37.4062 26.2632 36.5244 25.3931C35.6425 24.5229 34.5678 23.8733 33.3875 23.4969C32.2072 23.1205 30.9547 23.028 29.7319 23.227C28.5091 23.4259 27.3506 23.9107 26.3505 24.6419C25.3504 25.3731 24.5371 26.33 23.9766 27.4348C23.4161 28.5397 23.1243 29.7612 23.125 31.0001ZM25.75 31.0001C25.75 29.9617 26.0579 28.9467 26.6348 28.0833C27.2117 27.22 28.0316 26.547 28.9909 26.1497C29.9502 25.7523 31.0058 25.6484 32.0242 25.8509C33.0426 26.0535 33.9781 26.5535 34.7123 27.2877C35.4465 28.022 35.9465 28.9574 36.1491 29.9758C36.3517 30.9942 36.2477 32.0498 35.8504 33.0091C35.453 33.9685 34.7801 34.7884 33.9167 35.3653C33.0534 35.9421 32.0383 36.2501 31 36.2501C29.6081 36.2485 28.2736 35.6949 27.2894 34.7106C26.3052 33.7264 25.7516 32.392 25.75 31.0001Z" fill="#F1F1F1"></path>
<path d="M48.0625 19.1875H39.5838L37.3394 15.8406C37.2209 15.6596 37.0594 15.5109 36.8692 15.4078C36.6791 15.3047 36.4663 15.2505 36.25 15.25H25.75C25.5337 15.2505 25.3209 15.3047 25.1308 15.4078C24.9406 15.5109 24.7791 15.6596 24.6606 15.8406L22.4163 19.1875H13.9375C13.5897 19.1886 13.2565 19.3272 13.0106 19.5731C12.7647 19.819 12.6261 20.1522 12.625 20.5V42.8125C12.6261 43.1603 12.7647 43.4935 13.0106 43.7394C13.2565 43.9853 13.5897 44.1239 13.9375 44.125H25.75V41.5H15.25V21.8125H23.125C23.3413 21.812 23.5541 21.7578 23.7442 21.6547C23.9344 21.5516 24.0959 21.4029 24.2144 21.2219L26.4587 17.875H35.5412L37.7856 21.2219C37.9041 21.4029 38.0656 21.5516 38.2558 21.6547C38.4459 21.7578 38.6587 21.812 38.875 21.8125H46.75V37.5625H49.375V20.5C49.3739 20.1522 49.2353 19.819 48.9894 19.5731C48.7435 19.3272 48.4103 19.1886 48.0625 19.1875Z" fill="#F1F1F1"></path>
</svg>