<svg width="1451" height="1452" viewBox="0 0 1451 1452" fill="none" xmlns="http://www.w3.org/2000/svg">
<rect width="1451" height="1452" fill="#270065"></rect>
<path d="M745.855 311.383C740.099 306.891 733.007 304.452 725.706 304.452C718.405 304.452 711.314 306.891 705.558 311.383L239.597 674.745L279.894 725.711L336.877 681.279V1082.69C336.912 1099.88 343.756 1116.36 355.911 1128.51C368.066 1140.67 384.542 1147.51 401.731 1147.55H1050.27C1067.46 1147.52 1083.94 1140.67 1096.09 1128.52C1108.25 1116.36 1115.09 1099.89 1115.12 1082.69V681.574L1172.11 725.999L1212.4 675.031L745.855 311.383ZM790.853 1082.69H661.146V823.28H790.853V1082.69ZM855.707 1082.69V823.28C855.687 806.086 848.848 789.601 836.69 777.443C824.532 765.285 808.048 758.446 790.853 758.426H661.146C643.951 758.443 627.465 765.281 615.306 777.44C603.148 789.599 596.309 806.085 596.292 823.28V1082.69H401.731V630.713L726 378.107L1050.27 631.053V1082.69H855.707Z" fill="#F1F1F1"></path>
</svg>