<svg width="2136" height="2132" viewBox="0 0 2136 2132" fill="none" xmlns="http://www.w3.org/2000/svg">
<g clip-path="url(#clip0_214_228)">
<path d="M2136 0H0V2132H2136V0Z" fill="#270065"></path>
<path d="M1639.64 975.183C1639.64 912.838 1627.36 851.107 1603.5 793.511C1579.64 735.914 1544.67 683.579 1500.6 639.494C1456.51 595.414 1404.18 560.443 1346.58 536.589C1288.99 512.73 1227.26 500.45 1164.92 500.45H819.672C716.664 500.45 617.87 541.373 545.031 614.215C472.191 687.057 431.27 785.854 431.27 888.865V1018.34C431.27 1075.57 454.005 1130.45 494.471 1170.92C534.937 1211.39 589.822 1234.12 647.05 1234.12H694.522C704.47 1282.87 730.952 1326.67 769.486 1358.13C808.019 1389.59 856.24 1406.76 905.986 1406.75H965.538L1138.16 1708.85L1212.82 1665.7L1040.2 1368.35C1033.26 1354.35 1022.64 1342.5 1009.49 1334.07C996.345 1325.63 981.153 1320.92 965.538 1320.44H905.986C871.648 1320.44 838.717 1306.8 814.435 1282.52C790.158 1258.24 776.516 1225.31 776.516 1190.97C776.516 1156.63 790.158 1123.7 814.435 1099.42C838.717 1075.13 871.648 1061.5 905.986 1061.5H949.142V975.183H905.986C856.24 975.17 808.019 992.348 769.486 1023.81C730.952 1055.26 704.47 1099.07 694.522 1147.81H647.05C612.712 1147.81 579.781 1134.17 555.503 1109.89C531.222 1085.61 517.58 1052.68 517.58 1018.34V932.022H603.895C638.23 932.022 671.161 918.383 695.442 894.101C719.719 869.819 733.361 836.891 733.361 802.552V759.395H647.05V802.552C647.05 813.997 642.502 824.974 634.409 833.067C626.317 841.164 615.34 845.708 603.895 845.708H521.034C531.401 773.871 567.29 708.166 622.126 660.615C676.967 613.064 747.092 586.849 819.672 586.764H1078.61V673.081C1078.61 684.527 1074.06 695.504 1065.97 703.597C1057.87 711.689 1046.9 716.238 1035.45 716.238H949.142V802.552H1035.45C1069.79 802.552 1102.72 788.909 1127 764.631C1151.28 740.349 1164.92 707.417 1164.92 673.081V586.764C1237.16 586.862 1307.95 607.111 1369.32 645.231C1430.69 683.351 1480.22 737.831 1512.33 802.552H1467.01C1432.68 802.552 1399.74 816.194 1375.46 840.472C1351.19 864.754 1337.54 897.686 1337.54 932.022V975.183H1423.85V932.022C1423.85 920.576 1428.4 909.599 1436.5 901.506C1444.59 893.414 1455.57 888.865 1467.01 888.865H1543.4C1550.01 917.159 1553.34 946.124 1553.32 975.183V1018.34C1553.32 1075.57 1530.59 1130.45 1490.12 1170.92C1449.66 1211.39 1394.77 1234.12 1337.54 1234.12H1208.08V1320.44H1337.54C1382.34 1320.38 1426.56 1310.35 1467.01 1291.09V1320.44C1467.01 1354.78 1453.37 1387.71 1429.09 1411.99C1404.81 1436.27 1371.88 1449.91 1337.54 1449.91H1294.39V1536.22H1337.54C1394.77 1536.22 1449.66 1513.49 1490.12 1473.02C1530.59 1432.56 1553.32 1377.67 1553.32 1320.44V1229.38C1608.56 1173.01 1639.53 1097.26 1639.64 1018.34V975.183Z" fill="#F1F1F1"></path>
</g>
<defs>
<clipPath id="clip0_214_228">
<rect width="2136" height="2132" fill="white"></rect>
</clipPath>
</defs>
</svg>