<svg width="1451" height="1451" viewBox="0 0 1451 1451" fill="none" xmlns="http://www.w3.org/2000/svg">
<rect width="1451" height="1451" fill="#270065"></rect>
<path d="M1018.54 637.738C1049.56 637.703 1079.31 625.363 1101.24 603.426C1123.18 581.489 1135.52 551.746 1135.56 520.722V432.96H1047.79C1017.84 433.009 989.062 444.601 967.439 465.326C952.285 437.825 930.036 414.89 903.008 398.907C875.98 382.925 845.162 374.48 813.762 374.452H726V462.214C726.051 508.75 744.56 553.366 777.466 586.272C810.372 619.178 854.988 637.687 901.524 637.738H930.778V1018.04H579.73V871.77H608.984C640.008 871.735 669.751 859.396 691.688 837.459C713.625 815.521 725.965 785.778 726 754.754V666.992H638.238C608.286 667.041 579.506 678.633 557.883 699.359C542.729 671.858 520.479 648.922 493.451 632.94C466.423 616.957 435.605 608.512 404.205 608.484H316.443V696.246C316.494 742.782 335.004 787.398 367.91 820.304C400.816 853.21 445.431 871.719 491.968 871.77H521.222V1018.04H316.443V1076.55H1135.56V1018.04H989.286V637.738H1018.54ZM989.286 549.976C989.302 534.463 995.471 519.591 1006.44 508.622C1017.41 497.652 1032.28 491.483 1047.79 491.468H1077.05V520.722C1077.03 536.234 1070.86 551.107 1059.89 562.076C1048.93 573.045 1034.05 579.214 1018.54 579.23H989.286V549.976ZM579.73 784.008C579.745 768.496 585.914 753.623 596.883 742.654C607.852 731.685 622.725 725.516 638.238 725.5H667.492V754.754C667.476 770.267 661.307 785.139 650.338 796.108C639.369 807.078 624.496 813.247 608.984 813.262H579.73V784.008ZM521.222 813.262H491.968C460.944 813.227 431.2 800.888 409.263 778.95C387.326 757.013 374.986 727.27 374.951 696.246V666.992H404.205C435.229 667.027 464.973 679.366 486.91 701.304C508.847 723.241 521.187 752.984 521.222 784.008V813.262ZM930.778 579.23H901.524C870.5 579.195 840.757 566.855 818.82 544.918C796.882 522.981 784.543 493.238 784.508 462.214V432.96H813.762C844.786 432.995 874.529 445.334 896.466 467.271C918.404 489.209 930.743 518.952 930.778 549.976V579.23Z" fill="#F1F1F1"></path>
</svg>