<svg width="1451" height="1451" viewBox="0 0 1451 1451" fill="none" xmlns="http://www.w3.org/2000/svg">
<g clip-path="url(#clip0_185_41)">
<path d="M1451 0H0V1451H1451V0Z" fill="#270065"></path>
<path d="M1063.44 1124.76H633.291C599.59 1124.76 571.975 1097.14 571.975 1063.44V940.575H633.291V1063.44H1063.44V633.291H940.575V571.975H1063.44C1097.14 571.975 1124.76 599.59 1124.76 633.291V1063.44C1124.76 1097.14 1097.14 1124.76 1063.44 1124.76Z" fill="#F1F1F1"></path>
<path d="M817.709 694.841V817.708H694.842V879.025H879.259V694.607H817.943L817.709 694.841Z" fill="#F1F1F1"></path>
<path d="M756.159 571.975H571.741V756.392H633.058V633.525H755.925V572.209L756.159 571.975Z" fill="#F1F1F1"></path>
<path d="M387.558 326.241H817.709C851.41 326.241 879.025 353.857 879.025 387.558V510.425H817.709V387.558H387.558V817.709H510.425V879.025H387.558C353.857 879.025 326.241 851.41 326.241 817.709V387.558C326.241 353.857 353.857 326.241 387.558 326.241Z" fill="#F1F1F1"></path>
</g>
<defs>
<clipPath id="clip0_185_41">
<rect width="1451" height="1451" fill="white"></rect>
</clipPath>
</defs>
</svg>