<svg width="524" height="524" viewBox="0 0 524 524" fill="none" xmlns="http://www.w3.org/2000/svg">
<rect width="524" height="524" fill="#270065"></rect>
<path d="M216.67 252.978H244.251V270.727H211.671V282.51H244.291V300.446H216.15C220.527 308.525 226.829 313.299 235.407 314.956C243.978 316.609 251.64 313.628 259.394 309.842C262.117 315.194 264.848 320.558 267.552 325.878C267.456 326.076 267.429 326.247 267.338 326.298C250.379 336.012 230.845 336.781 214.307 325.291C206.117 319.598 200.976 311.546 197.579 302.313C197.06 300.902 196.417 300.406 194.911 300.446C190.765 300.557 186.614 300.485 182.313 300.485V282.581H193.147V270.803H182.115V252.978C184.961 252.978 187.772 252.986 190.582 252.978C192.493 252.97 194.816 253.601 196.199 252.74C197.531 251.908 197.892 249.521 198.689 247.82C205.424 233.382 216.222 223.91 232.125 221.016C244.346 218.796 255.83 221.317 266.632 227.268C266.798 227.359 266.917 227.534 267.143 227.748C264.42 233.187 261.689 238.642 258.942 244.129C250.379 239.201 241.659 236.462 232.002 239.875C225.406 242.211 220.388 246.429 216.662 252.978H216.67Z" fill="#F1F1F1"></path>
<path d="M370.335 150.518C348.188 128.365 318.176 115.88 286.852 115.789C263.473 115.789 240.62 122.723 221.181 135.715C207.79 144.663 196.433 156.212 187.74 169.588C197.175 165.247 207.14 162.162 217.379 160.426C236.141 142.704 260.975 132.753 286.852 132.678C306.891 132.678 326.481 138.621 343.145 149.757C359.806 160.894 372.796 176.72 380.463 195.235C388.129 213.749 390.139 234.127 386.226 253.783C382.318 273.439 372.669 291.498 358.498 305.667C355.664 308.505 352.667 311.158 349.539 313.62C346.36 323.376 341.905 332.725 336.256 341.415C356.064 332.301 372.994 317.874 385.14 299.692C398.13 280.25 405.063 257.395 405.063 234.012C404.972 202.684 392.489 172.668 370.339 150.514L370.335 150.518Z" fill="#F1F1F1"></path>
<path d="M237.153 175.647C257.191 175.647 276.781 181.59 293.446 192.726C310.106 203.862 323.096 219.689 330.763 238.203C338.433 256.722 340.439 277.095 336.526 296.752C332.618 316.408 322.97 334.466 308.798 348.636C294.627 362.809 276.575 372.459 256.921 376.368C237.268 380.277 216.893 378.271 198.381 370.603C179.865 362.936 164.04 349.944 152.909 333.281C141.775 316.618 135.833 297.025 135.833 276.98C135.912 250.129 146.611 224.399 165.594 205.413C184.578 186.426 210.304 175.722 237.153 175.647ZM237.153 158.758C213.773 158.758 190.92 165.692 171.481 178.684C152.041 191.675 136.891 210.138 127.944 231.741C118.993 253.344 116.651 277.115 121.213 300.05C125.776 322.985 137.034 344.049 153.564 360.581C170.093 377.117 191.158 388.376 214.09 392.935C237.022 397.499 260.79 395.156 282.39 386.208C303.99 377.26 322.45 362.103 335.44 342.665C348.43 323.223 355.363 300.367 355.363 276.984C355.272 245.657 342.79 215.641 320.639 193.487C298.492 171.337 268.476 158.849 237.153 158.758Z" fill="#F1F1F1"></path>
</svg>