<svg width="2136" height="2137" viewBox="0 0 2136 2137" fill="none" xmlns="http://www.w3.org/2000/svg">
<g clip-path="url(#clip0_214_702)">
<mask id="mask0_214_702" style="mask-type:luminance" maskUnits="userSpaceOnUse" x="0" y="0" width="2136" height="2137">
<path d="M2136 0H0V2137H2136V0Z" fill="white"></path>
</mask>
<g mask="url(#mask0_214_702)">
<path d="M2136 0H0V2137H2136V0Z" fill="#270065"></path>
<path d="M945.184 1040.74H1101.06V951.614H1011.99V907.051H922.916V953.877C895.893 959.412 871.892 974.786 855.55 997.016C839.212 1019.25 831.699 1046.76 834.472 1074.22C837.244 1101.68 850.101 1127.13 870.555 1145.64C891.011 1164.15 917.604 1174.41 945.184 1174.42H989.719C995.625 1174.42 1001.29 1176.77 1005.47 1180.95C1009.64 1185.13 1011.99 1190.8 1011.99 1196.71C1011.99 1202.62 1009.64 1208.29 1005.47 1212.46C1001.29 1216.64 995.625 1218.99 989.719 1218.99H833.844V1308.11H922.916V1352.68H1011.99V1305.85C1039.01 1300.32 1063.01 1284.94 1079.35 1262.71C1095.69 1240.48 1103.2 1212.97 1100.43 1185.51C1097.66 1158.05 1084.8 1132.6 1064.35 1114.09C1043.89 1095.58 1017.3 1085.32 989.719 1085.3H945.184C939.278 1085.3 933.612 1082.95 929.438 1078.77C925.263 1074.6 922.916 1068.93 922.916 1063.02C922.916 1057.11 925.263 1051.45 929.438 1047.26C933.612 1043.08 939.278 1040.74 945.184 1040.74Z" fill="#F1F1F1"></path>
<path d="M1509.61 613.849C1419.33 523.503 1296.99 472.587 1169.3 472.215C1074 472.215 980.846 500.494 901.605 553.479C847.019 589.97 800.725 637.071 765.289 691.622C803.749 673.918 844.369 661.337 886.107 654.257C962.588 581.982 1063.82 541.399 1169.3 541.094C1250.99 541.094 1330.84 565.33 1398.77 610.746C1466.69 656.165 1519.64 720.708 1550.9 796.216C1582.14 871.721 1590.34 954.827 1574.38 1034.99C1558.46 1115.15 1519.13 1188.8 1461.35 1246.58C1449.8 1258.16 1437.59 1268.98 1424.84 1279.02C1411.88 1318.81 1393.72 1356.93 1370.69 1392.37C1451.43 1355.2 1520.45 1296.37 1569.95 1222.22C1622.9 1142.93 1651.18 1049.72 1651.18 954.358C1650.8 826.595 1599.91 704.183 1509.63 613.833L1509.61 613.849Z" fill="#F1F1F1"></path>
<path d="M966.714 716.331C1048.4 716.331 1128.25 740.567 1196.18 785.983C1264.1 831.399 1317.05 895.944 1348.3 971.45C1379.57 1046.97 1387.74 1130.06 1371.79 1210.23C1355.86 1290.39 1316.53 1364.03 1258.76 1421.82C1201 1479.62 1127.41 1518.97 1047.29 1534.93C967.182 1550.87 884.128 1542.68 808.666 1511.41C733.188 1480.14 668.681 1427.16 623.307 1359.2C577.921 1291.25 553.7 1211.34 553.7 1129.59C554.021 1020.09 597.634 915.154 675.016 837.724C752.401 760.29 857.269 716.638 966.714 716.331ZM966.714 647.454C871.409 647.454 778.253 675.732 699.012 728.717C619.769 781.697 558.013 856.994 521.541 945.095C485.054 1033.2 475.508 1130.14 494.103 1223.68C512.703 1317.21 558.596 1403.12 625.977 1470.54C693.355 1537.98 779.223 1583.89 872.701 1602.49C966.18 1621.1 1063.07 1611.54 1151.11 1575.05C1239.16 1538.55 1314.41 1476.75 1367.36 1397.47C1420.32 1318.18 1448.58 1224.97 1448.58 1129.61C1448.21 1001.85 1397.33 879.436 1307.03 789.087C1216.75 698.753 1094.4 647.825 966.714 647.454Z" fill="#F1F1F1"></path>
</g>
</g>
<defs>
<clipPath id="clip0_214_702">
<rect width="2136" height="2137" fill="white"></rect>
</clipPath>
</defs>
</svg>