<svg width="2136" height="2136" viewBox="0 0 2136 2136" fill="none" xmlns="http://www.w3.org/2000/svg">
<g clip-path="url(#clip0_214_251)">
<path d="M2136 0H0V2136H2136V0Z" fill="#270065"></path>
<path d="M1112.24 1200.24H1023.76V1288.68H1112.24V1200.24Z" fill="#F1F1F1"></path>
<path d="M1112.24 1377.12H1023.76V1465.57H1112.24V1377.12Z" fill="#F1F1F1"></path>
<path d="M1377.68 876.086V536.902H1510.41V448.457H625.592V536.902H758.314V876.086C758.314 895.223 764.524 913.844 776.01 929.153L879.976 1067.57L776.01 1205.98C764.524 1221.29 758.314 1239.91 758.314 1259.05V1598.24H625.592V1686.68H1510.41V1598.24H1377.68V1259.05C1377.68 1239.91 1371.48 1221.29 1359.99 1205.98L1256.02 1067.57L1359.99 929.153C1371.48 913.844 1377.68 895.223 1377.68 876.086ZM1289.2 536.902V846.457H846.796V536.902H1289.2ZM1289.2 1259.05V1598.24H846.796V1259.05L990.578 1067.57L891.036 934.902H1244.96L1145.42 1067.57L1289.2 1259.05Z" fill="#F1F1F1"></path>
</g>
<defs>
<clipPath id="clip0_214_251">
<rect width="2136" height="2136" fill="white"></rect>
</clipPath>
</defs>
</svg>