<svg width="2136" height="2136" viewBox="0 0 2136 2136" fill="none" xmlns="http://www.w3.org/2000/svg">
<g clip-path="url(#clip0_214_256)">
<path d="M2136 0H0V2136H2136V0Z" fill="#270065"></path>
<path d="M1440.56 961.225H1360.43V1041.65H1440.56C1472.43 1041.68 1502.98 1054.4 1525.51 1077.02C1548.04 1099.63 1560.72 1130.29 1560.75 1162.28V1323.12H1640.88V1162.28C1640.82 1108.97 1619.7 1057.87 1582.14 1020.18C1544.59 982.489 1493.67 961.287 1440.56 961.225Z" fill="#F1F1F1"></path>
<path d="M1360.43 559.12C1384.2 559.12 1407.44 566.195 1427.21 579.45C1446.97 592.705 1462.38 611.545 1471.48 633.588C1480.57 655.63 1482.95 679.885 1478.32 703.286C1473.68 726.686 1462.23 748.18 1445.42 765.051C1428.61 781.921 1407.2 793.411 1383.88 798.065C1360.57 802.72 1336.4 800.331 1314.44 791.2C1292.47 782.07 1273.7 766.609 1260.5 746.771C1247.29 726.933 1240.24 703.61 1240.24 679.752C1240.24 647.758 1252.9 617.075 1275.44 594.452C1297.98 571.83 1328.56 559.12 1360.43 559.12ZM1360.43 478.699C1320.81 478.699 1282.08 490.491 1249.14 512.583C1216.2 534.675 1190.52 566.075 1175.36 602.812C1160.2 639.55 1156.23 679.975 1163.96 718.975C1171.69 757.975 1190.77 793.799 1218.78 821.917C1246.8 850.035 1282.49 869.183 1321.35 876.941C1360.21 884.698 1400.49 880.717 1437.09 865.5C1473.7 850.283 1504.98 824.513 1526.99 791.45C1549.01 758.387 1560.75 719.516 1560.75 679.752C1560.75 626.429 1539.65 575.291 1502.08 537.586C1464.51 499.881 1413.56 478.699 1360.43 478.699Z" fill="#F1F1F1"></path>
<path d="M1320.37 1604.59H1240.24V1524.17C1240.2 1492.19 1227.53 1461.53 1205 1438.91C1182.46 1416.3 1151.91 1403.58 1120.05 1403.54H959.789C927.923 1403.58 897.372 1416.3 874.839 1438.91C852.306 1461.53 839.631 1492.19 839.596 1524.17V1604.59H759.467V1524.17C759.53 1470.87 780.655 1419.77 818.209 1382.08C855.764 1344.38 906.68 1323.18 959.789 1323.12H1120.05C1173.16 1323.18 1224.07 1344.38 1261.63 1382.08C1299.18 1419.77 1320.31 1470.87 1320.37 1524.17V1604.59Z" fill="#F1F1F1"></path>
<path d="M1039.92 921.014C1063.69 921.014 1086.93 928.089 1106.69 941.344C1126.46 954.6 1141.86 973.44 1150.96 995.482C1160.06 1017.52 1162.44 1041.78 1157.8 1065.18C1153.16 1088.58 1141.72 1110.07 1124.91 1126.95C1108.1 1143.82 1086.68 1155.3 1063.37 1159.96C1040.05 1164.61 1015.88 1162.23 993.922 1153.09C971.96 1143.96 953.188 1128.5 939.981 1108.67C926.774 1088.83 919.725 1065.5 919.725 1041.65C919.725 1009.65 932.388 978.969 954.929 956.347C977.469 933.724 1008.04 921.014 1039.92 921.014ZM1039.92 840.593C1000.3 840.593 961.568 852.385 928.625 874.477C895.682 896.569 870.007 927.969 854.845 964.706C839.683 1001.44 835.716 1041.87 843.445 1080.87C851.175 1119.87 870.254 1155.69 898.269 1183.81C926.285 1211.93 961.979 1231.08 1000.84 1238.84C1039.69 1246.59 1079.97 1242.61 1116.58 1227.39C1153.18 1212.18 1184.47 1186.41 1206.48 1153.34C1228.49 1120.28 1240.24 1081.41 1240.24 1041.65C1240.24 988.323 1219.13 937.185 1181.57 899.48C1144 861.776 1093.05 840.593 1039.92 840.593Z" fill="#F1F1F1"></path>
<path d="M719.402 961.225H639.273C586.164 961.288 535.247 982.49 497.693 1020.18C460.139 1057.87 439.014 1108.97 438.951 1162.28V1323.12H519.08V1162.28C519.115 1130.29 531.789 1099.63 554.322 1077.02C576.855 1054.4 607.407 1041.68 639.273 1041.65H719.402V961.225Z" fill="#F1F1F1"></path>
<path d="M719.402 559.12C743.174 559.12 766.412 566.195 786.178 579.45C805.943 592.705 821.349 611.545 830.446 633.588C839.543 655.63 841.923 679.885 837.286 703.286C832.648 726.686 821.201 748.18 804.391 765.051C787.582 781.921 766.166 793.411 742.85 798.065C719.535 802.72 695.368 800.331 673.406 791.2C651.444 782.07 632.672 766.609 619.465 746.771C606.258 726.933 599.209 703.61 599.209 679.752C599.209 647.758 611.872 617.075 634.413 594.452C656.953 571.83 687.525 559.12 719.402 559.12ZM719.402 478.699C679.782 478.699 641.052 490.491 608.109 512.583C575.166 534.675 549.49 566.075 534.329 602.812C519.167 639.55 515.2 679.975 522.929 718.975C530.659 757.975 549.737 793.799 577.753 821.917C605.768 850.035 641.462 869.183 680.321 876.941C719.18 884.698 759.458 880.717 796.062 865.5C832.666 850.283 863.952 824.513 885.964 791.45C907.975 758.387 919.724 719.516 919.724 679.752C919.724 626.429 898.619 575.291 861.051 537.586C823.483 499.881 772.531 478.699 719.402 478.699Z" fill="#F1F1F1"></path>
</g>
<defs>
<clipPath id="clip0_214_256">
<rect width="2136" height="2136" fill="white"></rect>
</clipPath>
</defs>
</svg>