<svg width="524" height="525" viewBox="0 0 524 525" fill="none" xmlns="http://www.w3.org/2000/svg">
<rect width="524" height="525" fill="#270065"></rect>
<path d="M393 169.536H331.867V187.036H363.183L296.933 253.413L259.441 215.85C257.803 214.21 255.582 213.288 253.267 213.288C250.951 213.288 248.73 214.21 247.092 215.85L200.867 262.162L213.217 274.536L253.267 234.409L290.759 271.972C292.397 273.613 294.618 274.534 296.933 274.534C299.249 274.534 301.47 273.613 303.108 271.972L375.533 199.41V230.786H393V169.536Z" fill="#F1F1F1"></path>
<path d="M393 367.597H235.8V385.097H393V367.597Z" fill="#F1F1F1"></path>
<path d="M165.933 140.098H148.467V262.598H165.933V140.098Z" fill="#F1F1F1"></path>
<path d="M162.446 318.704H187.554V333.305H157.895V342.999H187.59V357.754H161.973C165.957 364.401 171.694 368.327 179.504 369.691C187.305 371.051 194.281 368.598 201.339 365.483C203.818 369.886 206.305 374.299 208.766 378.676C208.679 378.839 208.654 378.98 208.571 379.022C193.133 387.013 175.35 387.645 160.295 378.194C152.839 373.51 148.159 366.886 145.066 359.29C144.594 358.129 144.009 357.721 142.638 357.754C138.863 357.845 135.085 357.786 131.17 357.786V343.057H141.032V333.367H131V318.704C133.591 318.704 136.15 318.71 138.708 318.704C140.447 318.697 142.562 319.216 143.821 318.508C145.034 317.823 145.362 315.859 146.088 314.46C152.219 302.579 162.045 294.787 176.526 292.406C187.652 290.58 198.106 292.654 207.94 297.549C208.091 297.624 208.199 297.768 208.405 297.944C205.926 302.419 203.44 306.907 200.939 311.421C193.144 307.367 185.205 305.113 176.415 307.921C170.41 309.842 165.841 313.312 162.449 318.7L162.446 318.704Z" fill="#F1F1F1"></path>
</svg>