<svg width="2136" height="2140" viewBox="0 0 2136 2140" fill="none" xmlns="http://www.w3.org/2000/svg">
<g clip-path="url(#clip0_214_711)">
<mask id="mask0_214_711" style="mask-type:luminance" maskUnits="userSpaceOnUse" x="0" y="0" width="2136" height="2140">
<path d="M2136 0H0V2140H2136V0Z" fill="white"></path>
</mask>
<g mask="url(#mask0_214_711)">
<path d="M2136 0H0V2140H2136V0Z" fill="#270065"></path>
<path d="M1602 691.062H1352.8V762.395H1480.46L1210.4 1032.96L1057.57 879.847C1050.89 873.161 1041.84 869.404 1032.4 869.404C1022.96 869.404 1013.91 873.161 1007.23 879.847L818.805 1068.62L869.147 1119.06L1032.4 955.497L1185.24 1108.61C1191.91 1115.3 1200.97 1119.05 1210.4 1119.05C1219.84 1119.05 1228.9 1115.3 1235.57 1108.61L1530.8 812.835V940.728H1602V691.062Z" fill="#F1F1F1"></path>
<path d="M1602 1498.4H961.203V1569.73H1602V1498.4Z" fill="#F1F1F1"></path>
<path d="M676.4 571.066H605.203V1070.4H676.4V571.066Z" fill="#F1F1F1"></path>
<path d="M619.286 1256.53H775.161V1167.4H686.089V1122.84H597.017V1169.67C569.995 1175.2 545.994 1190.58 529.652 1212.81C513.314 1235.04 505.801 1262.55 508.574 1290.01C511.345 1317.47 524.202 1342.92 544.657 1361.44C565.112 1379.95 591.706 1390.21 619.286 1390.22H663.82C669.726 1390.22 675.389 1392.57 679.567 1396.75C683.742 1400.93 686.089 1406.6 686.089 1412.51C686.089 1418.41 683.742 1424.08 679.567 1428.26C675.389 1432.44 669.726 1434.79 663.82 1434.79H507.945V1523.92H597.017V1568.48H686.089V1521.65C713.107 1516.11 737.112 1500.74 753.455 1478.51C769.793 1456.27 777.306 1428.77 774.534 1401.31C771.761 1373.85 758.901 1348.4 738.45 1329.88C717.994 1311.37 691.401 1301.11 663.82 1301.1H619.286C613.38 1301.1 607.713 1298.75 603.54 1294.57C599.365 1290.39 597.017 1284.72 597.017 1278.81C597.017 1272.9 599.365 1267.24 603.54 1263.06C607.713 1258.88 613.38 1256.53 619.286 1256.53Z" fill="#F1F1F1"></path>
</g>
</g>
<defs>
<clipPath id="clip0_214_711">
<rect width="2136" height="2140" fill="white"></rect>
</clipPath>
</defs>
</svg>