<svg width="2136" height="2136" viewBox="0 0 2136 2136" fill="none" xmlns="http://www.w3.org/2000/svg">
<g clip-path="url(#clip0_214_581)">
<mask id="mask0_214_581" style="mask-type:luminance" maskUnits="userSpaceOnUse" x="0" y="0" width="2136" height="2136">
<path d="M2136 0H0V2136H2136V0Z" fill="white"></path>
</mask>
<g mask="url(#mask0_214_581)">
<path d="M2136 0H0V2136H2136V0Z" fill="#270065"></path>
<path d="M1070.02 451.611C1058.38 451.611 1047.22 456.245 1038.99 464.501C1030.76 472.752 1026.14 483.944 1026.14 495.613V807.595C987.149 814.508 950.235 830.2 918.179 853.489L711.857 646.594C705.836 640.523 698.655 635.726 690.749 632.488C682.848 629.245 674.378 627.63 665.838 627.732C657.298 627.829 648.864 629.644 641.04 633.07C633.212 636.495 626.153 641.459 620.27 647.668C555.042 718.16 507.106 802.937 480.286 895.265C453.462 987.589 448.49 1084.91 465.757 1179.5C483.029 1274.1 522.062 1363.35 579.763 1440.15C637.467 1516.96 712.244 1579.22 798.148 1621.97C824.793 1635.84 852.695 1647.15 881.476 1655.75C985.851 1688.7 1097.07 1693.31 1203.8 1669.09C1310.54 1644.89 1408.95 1592.73 1489.01 1517.93C1495.18 1512.13 1500.11 1505.14 1503.52 1497.38C1506.94 1489.63 1508.75 1481.26 1508.87 1472.78C1508.98 1464.3 1507.39 1455.89 1504.19 1448.05C1500.99 1440.2 1496.24 1433.08 1490.24 1427.12L1284.04 1220.35C1307.17 1188.03 1322.67 1150.86 1329.37 1111.66H1640.5C1652.14 1111.66 1663.31 1107.02 1671.54 1098.77C1679.77 1090.52 1684.39 1079.33 1684.39 1067.65C1684.21 904.325 1619.42 747.738 1504.24 632.248C1389.06 516.757 1232.9 451.794 1070.02 451.611ZM1070.02 891.644C1104.73 891.644 1138.67 901.966 1167.54 921.303C1196.41 940.645 1218.9 968.137 1232.19 1000.29C1245.48 1032.46 1248.95 1067.85 1242.18 1101.99C1235.41 1136.14 1218.69 1167.5 1194.14 1192.11C1169.59 1216.73 1138.31 1233.49 1104.26 1240.28C1070.21 1247.08 1034.91 1243.59 1002.85 1230.27C970.769 1216.95 943.351 1194.38 924.066 1165.44C904.777 1136.49 894.483 1102.46 894.483 1067.65C894.536 1020.99 913.044 976.249 945.955 943.249C978.861 910.253 1023.48 891.696 1070.02 891.644ZM667.607 726.675L856.125 915.705C824.093 959.987 806.805 1013.27 806.716 1067.97C806.626 1122.68 823.739 1176.01 855.628 1220.4L667.957 1408.6C587.656 1313.25 543.577 1192.49 543.508 1067.7C543.447 942.904 587.404 822.104 667.607 726.675ZM730.044 1470.77L917.686 1282.61C949.958 1305.69 987.039 1321.12 1026.14 1327.71V1593.58C917.027 1584.83 813.429 1541.85 730.044 1470.77ZM1113.9 1593.76V1327.68C1152.84 1320.98 1189.76 1305.52 1221.89 1282.47L1409.8 1470.88C1326.45 1541.93 1222.94 1584.92 1113.9 1593.76ZM1329.37 1023.65C1320.19 969.703 1294.53 919.94 1255.93 881.236C1217.33 842.536 1167.71 816.806 1113.9 807.595V541.425C1237.91 551.999 1354.2 606.209 1442.2 694.456C1530.2 782.695 1584.26 899.301 1594.8 1023.65H1329.37Z" fill="#F1F1F1"></path>
</g>
</g>
<defs>
<clipPath id="clip0_214_581">
<rect width="2136" height="2136" fill="white"></rect>
</clipPath>
</defs>
</svg>