<svg width="2136" height="2136" viewBox="0 0 2136 2136" fill="none" xmlns="http://www.w3.org/2000/svg">
<g clip-path="url(#clip0_214_264)">
<path d="M2136 0H0V2136H2136V0Z" fill="#270065"></path>
<path d="M1396.54 944.56H1314.43C1314.39 911.905 1301.4 880.597 1278.31 857.507C1255.22 834.416 1223.91 821.428 1191.26 821.392V739.28C1245.68 739.342 1297.86 760.989 1336.34 799.473C1374.83 837.957 1396.48 890.135 1396.54 944.56Z" fill="#F1F1F1"></path>
<path d="M1478.65 1601.46H1471.67C664.921 1555.06 550.374 874.354 534.363 666.611C533.122 650.484 535.071 634.27 540.097 618.896C545.123 603.522 553.128 589.288 563.654 577.007C574.181 564.727 587.024 554.64 601.449 547.323C615.874 540.006 631.599 535.601 647.726 534.361C650.978 534.12 654.246 534 657.531 534H873.896C890.341 533.984 906.412 538.907 920.027 548.13C933.643 557.353 944.175 570.452 950.26 585.731L1012.66 739.28C1018.67 754.206 1020.16 770.568 1016.95 786.334C1013.74 802.1 1005.97 816.575 994.6 827.961L907.151 916.231C920.755 993.881 957.912 1065.47 1013.58 1121.29C1069.25 1177.1 1140.74 1214.45 1218.36 1228.26L1307.45 1139.99C1319 1128.74 1333.62 1121.15 1349.46 1118.16C1365.3 1115.16 1381.68 1116.9 1396.54 1123.15L1551.32 1185.15C1566.37 1191.42 1579.21 1202.04 1588.2 1215.64C1597.19 1229.24 1601.93 1245.21 1601.82 1261.51V1478.29C1601.82 1510.95 1588.84 1542.28 1565.74 1565.38C1542.64 1588.48 1511.32 1601.46 1478.65 1601.46ZM657.531 616.112C652.139 616.095 646.797 617.14 641.809 619.187C636.821 621.234 632.286 624.244 628.461 628.044C624.636 631.844 621.598 636.361 619.519 641.335C617.439 646.31 616.36 651.645 616.343 657.037C616.343 658.178 616.387 659.317 616.475 660.452C635.36 903.504 756.475 1478.29 1476.19 1519.34C1481.57 1519.67 1486.96 1518.93 1492.06 1517.17C1497.15 1515.41 1501.85 1512.66 1505.89 1509.08C1509.92 1505.51 1513.21 1501.17 1515.57 1496.32C1517.93 1491.47 1519.31 1486.21 1519.63 1480.82C1519.68 1479.98 1519.71 1479.13 1519.71 1478.29V1261.51L1364.92 1199.52L1247.09 1316.53L1227.39 1314.06C870.2 1269.31 821.754 912.126 821.754 908.431L819.291 888.724L935.89 770.893L874.306 616.112H657.531Z" fill="#F1F1F1"></path>
</g>
<defs>
<clipPath id="clip0_214_264">
<rect width="2136" height="2136" fill="white"></rect>
</clipPath>
</defs>
</svg>